<?xml version="1.0" standalone="no"?>
<!DOCTYPE svg PUBLIC "-//W3C//DTD SVG 1.1//EN" "http://www.w3.org/Graphics/SVG/1.1/DTD/svg11.dtd" >
<svg xmlns="http://www.w3.org/2000/svg" xmlns:xlink="http://www.w3.org/1999/xlink" version="1.1">
<metadata>
Created by FontForge 20190801 at Sat Nov 16 06:30:47 2019
 By Unknown
Copyright (c) 2019, Heaven Castro.
</metadata>
<defs>
<font id="Exoplanetaria" horiz-adv-x="600" >
  <font-face 
    font-family="Exoplanetaria"
    font-weight="400"
    font-stretch="normal"
    units-per-em="1000"
    panose-1="2 0 5 3 0 0 0 0 0 0"
    ascent="800"
    descent="-200"
    x-height="510"
    cap-height="653"
    bbox="13 -350 1451 900"
    underline-thickness="50"
    underline-position="-100"
    unicode-range="U+0001-FF1F"
  />
<missing-glyph horiz-adv-x="826" 
d="M741 391l52 14l10 -41l-51 -14zM683 600l52 14l50 -188l-52 -14zM351 253l-43 159l34 10l4 -17l52 14l14 -53l-51 -14l24 -90zM165 376l107 29l42 -158l-107 -29zM74 190l-15 55l67 18l-17 61q-51 -14 -65 -18l-31 116q48 13 98 26l13 -47l-64 -18l7 -25l63 17l43 -158
q-50 -13 -99 -27zM213 338l16 -59l37 10l-16 59zM464 283l-43 160l34 9l4 -17l52 14l14 -53l-52 -14l25 -90zM537 472l45 12l32 -119l54 14l-32 119l45 13q40 -152 45 -169q17 -62 33 -123q-20 -6 -146 -39l-16 62l100 27l-16 60q-50 -13 -99 -26q-23 84 -45 169z" />
    <glyph glyph-name=".notdef" horiz-adv-x="826" 
d="M741 391l52 14l10 -41l-51 -14zM683 600l52 14l50 -188l-52 -14zM351 253l-43 159l34 10l4 -17l52 14l14 -53l-51 -14l24 -90zM165 376l107 29l42 -158l-107 -29zM74 190l-15 55l67 18l-17 61q-51 -14 -65 -18l-31 116q48 13 98 26l13 -47l-64 -18l7 -25l63 17l43 -158
q-50 -13 -99 -27zM213 338l16 -59l37 10l-16 59zM464 283l-43 160l34 9l4 -17l52 14l14 -53l-52 -14l25 -90zM537 472l45 12l32 -119l54 14l-32 119l45 13q40 -152 45 -169q17 -62 33 -123q-20 -6 -146 -39l-16 62l100 27l-16 60q-50 -13 -99 -26q-23 84 -45 169z" />
    <glyph glyph-name=".null" horiz-adv-x="0" 
 />
    <glyph glyph-name="uni000D" unicode="&#xd;" 
 />
    <glyph glyph-name="uni0001" 
 />
    <glyph glyph-name="uni0002" 
 />
    <glyph glyph-name="uni0003" 
 />
    <glyph glyph-name="uni0004" 
 />
    <glyph glyph-name="uni0005" 
 />
    <glyph glyph-name="uni0006" 
 />
    <glyph glyph-name="uni0007" 
 />
    <glyph glyph-name="uni0008" 
 />
    <glyph glyph-name="uni0009" unicode="&#x9;" 
 />
    <glyph glyph-name="uni000A" unicode="&#xa;" 
 />
    <glyph glyph-name="uni000B" 
 />
    <glyph glyph-name="uni000C" 
 />
    <glyph glyph-name="uni000E" 
 />
    <glyph glyph-name="uni000F" 
 />
    <glyph glyph-name="uni0010" 
 />
    <glyph glyph-name="uni0011" 
 />
    <glyph glyph-name="uni0012" 
 />
    <glyph glyph-name="uni0013" 
 />
    <glyph glyph-name="uni0014" 
 />
    <glyph glyph-name="uni0015" 
 />
    <glyph glyph-name="uni0016" 
 />
    <glyph glyph-name="uni0017" 
 />
    <glyph glyph-name="uni0018" 
 />
    <glyph glyph-name="uni0019" 
 />
    <glyph glyph-name="uni001A" 
 />
    <glyph glyph-name="uni001B" 
 />
    <glyph glyph-name="uni001C" 
 />
    <glyph glyph-name="uni001D" 
 />
    <glyph glyph-name="uni001E" 
 />
    <glyph glyph-name="uni001F" 
 />
    <glyph glyph-name="space" unicode=" " horiz-adv-x="321" 
 />
    <glyph glyph-name="exclam" unicode="!" horiz-adv-x="331" 
d="M87 128h154v-128h-154v128zM87 767h154l44 -63v-308l-44 -53v-110h-154v110l-44 53v308z" />
    <glyph glyph-name="quotedbl" unicode="&#x22;" horiz-adv-x="413" 
d="M54 542q-3 112 -8 156h123q-6 -54 -8 -156l-2 -65h-103zM250 542q-3 112 -8 156h123q-6 -54 -9 -156l-1 -65h-103z" />
    <glyph glyph-name="numbersign" unicode="#" horiz-adv-x="601" 
d="M538 240q-23 2 -61 2h-46l-21 -156h-110l21 156h-90l-21 -156h-111l22 156h-20q-37 0 -61 -2l2 101q11 -3 64 -3h28l14 98h-34q-37 0 -61 -2l2 101q11 -3 64 -3h42l22 156h111l-22 -156h90l22 156h110l-22 -156h23q53 0 64 3l2 -101q-23 2 -61 2h-41l-14 -98h27
q54 0 64 3zM335 338l13 98h-89l-14 -98h90z" />
    <glyph glyph-name="dollar" unicode="$" horiz-adv-x="516" 
d="M167 -95q4 17 5 66v23q-45 8 -81.5 24t-54.5 36l14 123l4 3q19 -28 73 -51q57 -24 113 -24q76 0 104 46q8 14 8 28t-5 24.5t-18 21.5q-24 20 -81.5 42.5t-92 43.5t-54.5 44q-38 43 -38 109q0 59 42 110q44 54 115 76v39q0 49 -4 66h131q-2 -28 -2 -61v-36q50 -7 97 -31
l-16 -121l-3 -1q-73 40 -134 40q-44 0 -74 -22q-27 -20 -27 -46q0 -23 18 -39q34 -28 90 -46.5t90 -38t54 -41.5q38 -42 38 -108q0 -70 -44 -127q-51 -66 -137 -83v-29q2 -59 2 -60h-132z" />
    <glyph glyph-name="percent" unicode="%" horiz-adv-x="1013" 
d="M235 299q-44 0 -79.5 13t-61.5 37q-56 51 -56 128q0 73 51 126q57 59 154 59q89 0 143 -56q51 -52 51 -125q0 -75 -56 -127q-58 -55 -146 -55zM623 649h120l-366 -649h-120zM240 398q23 0 41 7t30 19q26 23 26 58q0 33 -26 57q-27 26 -73 26q-44 0 -72 -25
q-25 -23 -25 -59q0 -34 26 -57q28 -26 73 -26zM576 163q0 36 12.5 69t37.5 60q57 59 154 59q89 0 144 -56q51 -51 51 -125q0 -75 -56 -128q-59 -55 -149 -54q-83 0 -138 50q-56 51 -56 125zM679 170q0 -17 7 -31.5t19 -26.5q28 -25 74 -25q42 0 70 25q26 23 26 59
q0 33 -26 57q-27 26 -73 25q-44 0 -72 -25q-25 -23 -25 -58z" />
    <glyph glyph-name="ampersand" unicode="&#x26;" horiz-adv-x="716" 
d="M491 58q-81 -70 -194 -70q-112 0 -186 67q-72 65 -72 161q0 87 75 144q22 18 49 30q-28 47 -28 91.5t14.5 76.5t40.5 55q55 49 142 49q62 0 113 -30q-2 -42 -3 -64q0 -31 1 -38.5t0.5 -10.5t-0.5 -5q-2 -3 -1 -7l-3 -4q-20 29 -76 42q-17 4 -43.5 4t-44 -16t-17.5 -40
q0 -42 60 -107q19 -21 45 -47l114 -105q16 42 16 90q0 29 -15 48q-3 4 -5 5v6l71 -28q21 -8 33.5 -12.5t18.5 -7.5q11 -5 11 -11q0 -88 -39 -167q50 -41 64 -46.5t21 -6.5q23 -3 27 2l3 -2l-50 -110q-8 -6 -29 -6q-31 0 -113 70zM300 105q57 0 102 31l-53 49
q-84 77 -134 133q-53 -39 -53 -91t40.5 -87t97.5 -35z" />
    <glyph glyph-name="quotesingle" unicode="'" horiz-adv-x="217" 
d="M54 542q-3 112 -8 156h123q-6 -54 -8 -156l-2 -65h-103z" />
    <glyph glyph-name="parenleft" unicode="(" horiz-adv-x="354" 
d="M196 -49q-155 134 -155 381q0 165 88 291q29 42 67 75h125v-3q-122 -109 -147 -257q-9 -50 -9 -108q0 -212 151 -376v-3h-120z" />
    <glyph glyph-name="parenright" unicode=")" horiz-adv-x="357" 
d="M158 -49q155 134 156 381q0 165 -88 291q-29 42 -68 75h-125v-3q122 -109 148 -257q9 -50 9 -108q0 -212 -152 -376v-3h120z" />
    <glyph glyph-name="asterisk" unicode="*" horiz-adv-x="535" 
d="M212 371l15 137l-126 -97l-62 93l141 65l-141 83l77 88l110 -106l-20 150h120l-21 -156l111 99l74 -89l-148 -71l153 -73l-65 -91l-124 100l18 -149h-114z" />
    <glyph glyph-name="plus" unicode="+" horiz-adv-x="531" 
d="M103 244q-37 0 -60 -2l1 120q11 -3 65 -3h98v94q0 54 -3 65l121 1q-2 -23 -2 -61v-99h98q53 0 64 3l2 -120q-23 2 -61 2h-103v-108q0 -37 2 -61l-121 2q3 11 3 64v103h-104z" />
    <glyph glyph-name="comma" unicode="," horiz-adv-x="245" 
d="M73 32.5q0 35.5 -5 74.5l121 20l4 -25q4 -27 4 -56t-3 -54t-8 -46q-11 -46 -25 -54q-24 -15 -115 -35l-3 3q17 29 23.5 83t6.5 89.5z" />
    <glyph glyph-name="hyphen" unicode="-" horiz-adv-x="755" 
d="M51 432h651v-153h-651v153z" />
    <glyph glyph-name="period" unicode="." horiz-adv-x="242" 
d="M50 0q4 30 4.5 53t-0.5 31v17q-1 8 -1 16l-2 12h142q-1 -19 -2 -30l-1 -21v-34q0 -26 3 -44h-143z" />
    <glyph glyph-name="slash" unicode="/" horiz-adv-x="480" 
d="M323 747h125l-292 -830h-125z" />
    <glyph glyph-name="zero" unicode="0" horiz-adv-x="645" 
d="M41 315q0 74 21.5 138t60.5 110q83 98 212 99q123 0 196 -93q72 -90 72 -237q0 -167 -87 -261q-78 -83 -199 -83q-118 0 -197 91t-79 236zM263 118q30 -15 61 -15t57.5 13.5t48.5 40.5q48 62 48 164q0 104 -41 165q-42 61 -112 61q-71 0 -115 -63q-44 -64 -45 -166
q0 -97 47 -157q21 -28 51 -43z" />
    <glyph glyph-name="one" unicode="1" horiz-adv-x="233" 
d="M53 649h124v-649h-124v649z" />
    <glyph glyph-name="two" unicode="2" horiz-adv-x="545" 
d="M261 293q72 92 83 145q3 17 3 32q0 36 -26.5 57t-77.5 21q-47 0 -98 -25q-46 -23 -66 -52l-6 -1l4 147q43 28 120 40q24 4 46 5q123 0 184 -59q52 -49 51 -132q0 -57 -35 -122q-30 -55 -79 -119l-96 -118h158q32 0 50.5 3t31.5 12l3 -1l-36 -133l-53 3q-138 8 -390 1z
" />
    <glyph glyph-name="three" unicode="3" horiz-adv-x="580" 
d="M425 380q118 -50 117 -169q0 -95 -77 -157q-82 -66 -216 -66q-129 0 -208 60l-2 130l5 6q59 -80 204 -80q170 0 170 113q0 41 -50 64q-45 21 -104 20q-82 0 -126 -28l-3 4l5 115q59 16 124 16h25q14 0 27 -1q31 19 40 56q3 10 3 20.5t-6 21.5t-19 19q-28 19 -63 19
t-59 -3.5t-46 -11.5q-48 -16 -72 -40l-3 3l-6 125q79 46 191 46q88 0 148 -41q63 -44 63 -117q0 -40 -17.5 -72t-44.5 -52z" />
    <glyph glyph-name="four" unicode="4" horiz-adv-x="623" 
d="M462 275q74 0 123 13l3 -4l-36 -113h-90v-171h-124v171h-301l-2 36l270 441l157 1v-374zM338 275v231l-134 -231h134z" />
    <glyph glyph-name="five" unicode="5" horiz-adv-x="590" 
d="M189 427q48 10 106 10.5t107.5 -16t81.5 -43.5q66 -55 67 -141q0 -109 -81 -179q-82 -70 -206 -70q-139 0 -220 67l-6 138l5 4q69 -95 223 -95q69 0 111 32t41 82q0 82 -84 109q-28 9 -59.5 9t-58.5 -2.5t-53 -7.5q-54 -10 -89 -29v354h306q94 0 111 16l2 -1l-12 -120
q-21 -10 -99 -10h-193v-107z" />
    <glyph glyph-name="six" unicode="6" horiz-adv-x="634" 
d="M58.5 174.5q-17.5 55.5 -17.5 110.5t9 100.5t27 86.5t45.5 75.5t65.5 59.5q81 54 194 55q85 0 147 -29l5 -120l-2 -3q-54 40 -158 39q-79 0 -136 -53q-55 -51 -72 -131q61 61 153 78q27 5 64.5 5t79 -14.5t70.5 -41.5q62 -59 62 -156q0 -107 -81 -178q-79 -70 -192 -70
q-134 0 -211 90q-35 41 -52.5 96.5zM171 217q16 -54 53 -85t94 -31q65 0 108 35q44 36 44 96q0 45 -29 75q-32 32 -86 32q-69 0 -120 -36q-48 -35 -64 -86z" />
    <glyph glyph-name="seven" unicode="7" horiz-adv-x="569" 
d="M308 62q0 -33 4 -62h-149q0 72 50 233q59 191 139 307l-240 -4q-53 0 -67 -13l-4 3l-4 127l254 -2h80q36 0 64 1q63 1 100 3l-84 -171q-143 -291 -143 -422z" />
    <glyph glyph-name="eight" unicode="8" horiz-adv-x="647" 
d="M497 347q56 -20 86 -64q27 -39 27 -88t-19.5 -87.5t-55.5 -65.5q-74 -56 -205 -56q-118 0 -201 52q-91 56 -92 157q0 71 61 127q19 18 44 30q-60 48 -60 124q0 80 63 131q67 55 185 56q115 0 183 -59q62 -52 62 -131.5t-78 -125.5zM215 506q-8 -13 -8.5 -28.5t9 -30
t30.5 -28.5q44 -28 136 -42q46 23 63 67q21 56 -26 85q-33 21 -95 21q-82 0 -109 -44zM228 295q-61 -35 -61 -87q0 -107 169 -109q108 -1 135 45q10 17 10 37.5t-9 32.5t-26 21q-28 14 -77 24t-66 13.5t-31 7.5q-24 7 -44 15z" />
    <glyph glyph-name="nine" unicode="9" horiz-adv-x="635" 
d="M102 140q54 -40 158 -40q76 0 131 49q53 47 71 122q-56 -52 -148 -66q-26 -4 -63.5 -4t-79 14.5t-70.5 42.5q-62 59 -62 155q0 107 81 179q79 70 192 70q134 0 211 -90q70 -83 70 -216q0 -152 -82 -254q-92 -114 -259 -114q-85 0 -147 29l-5 120zM283 311q33 0 63.5 8.5
t53.5 23.5q48 31 62 79q-23 91 -93 118q-23 9 -54 9t-58.5 -9t-48.5 -26q-44 -36 -44 -97q0 -45 29 -75q32 -31 90 -31z" />
    <glyph glyph-name="colon" unicode=":" horiz-adv-x="246" 
d="M191 376v-35q0 -26 3 -43h-143q4 30 4.5 53t0.5 31q-1 9 -2 17v16l-2 12h142q-1 -19 -2 -31zM191 78v-34q0 -26 3 -44h-143q4 30 4.5 53t0.5 31q-1 9 -2 17v16l-2 12h142q-1 -19 -2 -30z" />
    <glyph glyph-name="semicolon" unicode=";" horiz-adv-x="244" 
d="M187 337q-2 -24 -2 -62t2 -55h-129q4 30 4 59.5t-3 57.5h128zM70 32.5q0 35.5 -5 74.5l121 20l4 -25q4 -27 4 -56t-3 -54t-8 -46q-11 -46 -25 -54q-24 -15 -115 -35l-3 3q17 29 23.5 83t6.5 89.5z" />
    <glyph glyph-name="less" unicode="&#x3c;" horiz-adv-x="423" 
d="M43 316l330 204v-137l-215 -121l215 -133v-136l-330 219v104z" />
    <glyph glyph-name="equal" unicode="=" horiz-adv-x="550" 
d="M112 352q-37 0 -60 -3l1 121q11 -3 65 -3h312q53 0 64 3l2 -121q-23 2 -61 3h-323zM112 146q-37 0 -60 -2l1 121q11 -3 65 -3h312q53 0 64 3l2 -121q-23 2 -61 2h-323z" />
    <glyph glyph-name="greater" unicode="&#x3e;" horiz-adv-x="422" 
d="M48 129l214 133l-214 121v137l330 -204v-104l-330 -219v136z" />
    <glyph glyph-name="question" unicode="?" horiz-adv-x="738" 
d="M286 128h154v-128h-154v128zM286 240v118h272v119h-519v135l90 81h474l87 -81v-288l-78 -84h-326z" />
    <glyph glyph-name="at" unicode="@" horiz-adv-x="1099" 
d="M465.5 410q48.5 17 101.5 17t100 -19l1 9h124l-21 -222q-2 -17 -2 -39q0 -51 54 -51q65 0 94 72q15 38 15 95.5t-24 110.5t-68 91q-96 83 -255 83q-182 0 -297 -106q-123 -113 -122 -279q0 -135 97 -218q102 -87 279 -87q102 0 197 25q89 22 120 50l3 -1l-46 -117
q-122 -62 -288 -62q-226 0 -356 103q-131 105 -132 293q0 18 4.5 64t26.5 102t59 106t86 92t107 73q124 64 266 64q148 0 260 -54q101 -48 157 -135q52 -83 52 -181q0 -81 -27.5 -138.5t-61.5 -90.5q-70 -67 -158 -67t-133 49q-74 -49 -163 -49q-104 0 -165 59
q-58 56 -58 139q0 55 25.5 99t62.5 73.5t85.5 46.5zM656 292q-37 23 -95 23q-59 0 -98 -30q-38 -28 -41 -73q-8 -72 63 -97q24 -8 67.5 -8t90.5 28q-1 14 1 27z" />
    <glyph glyph-name="A" unicode="A" horiz-adv-x="667" 
d="M171 -4q-42 4 -98 4h-38l212 595q14 40 14 47v8v1q32 -1 68 -2q29 0 70 1v-1q-1 -2 -1 -5q0 -9 15 -49l217 -596h-23l-25 1h-22h-76l-46 141h-221zM400 258l-74 227l-72 -227h146z" />
    <glyph glyph-name="B" unicode="B" horiz-adv-x="580" 
d="M370 3.5q-57 -15.5 -140 -15.5t-177 15v643q95 15 164.5 15.5t114 -13t73.5 -35.5q56 -43 55.5 -112.5t-50.5 -114.5q60 -19 92 -71q30 -46 30 -102.5t-16.5 -96.5t-52.5 -68.5t-93 -44zM182 404q21 -3 51.5 -3.5t50.5 8t31 20.5q18 20 17 55q0 75 -88 75q-37 0 -62 -3
v-152zM255 299q-41 0 -73 -5v-192q34 -9 72 -9t66.5 9t47.5 25q40 32 40 82q0 90 -153 90z" />
    <glyph glyph-name="C" unicode="C" horiz-adv-x="606" 
d="M393 662q91 0 156 -32v-150l-1 -1q-27 42 -115 56q-26 4 -65.5 4.5t-78 -14.5t-62.5 -43q-47 -53 -47 -151q0 -115 60 -171q50 -47 132 -47q93 0 150 39q21 14 36 36l1 -1v-137q-75 -62 -201 -62q-149 0 -234 95q-81 90 -81 239q0 158 89 248q90 92 261 92z" />
    <glyph glyph-name="D" unicode="D" horiz-adv-x="615" 
d="M202 -12q-79 0 -149 12v654q64 8 149.5 8t154.5 -23.5t116 -66.5q94 -86 93 -240q0 -173 -104 -264q-94 -80 -260 -80zM180 107q32 -6 63.5 -6t68.5 12.5t64 38.5q58 56 57 162q0 175 -127 215q-42 13 -97 13h-14h-15v-435z" />
    <glyph glyph-name="E" unicode="E" horiz-adv-x="467" 
d="M380 117q30 0 42 6h2l-5 -123h-366v653q13 -1 29 -2l34 -1q34 -1 75 -1q112 0 221 4q-5 -43 -5 -114v-12v-2q-25 7 -73 8h-154v-125h116q54 0 65 3l1 -120q-23 2 -60 2h-122v-176h200z" />
    <glyph glyph-name="F" unicode="F" horiz-adv-x="467" 
d="M395 281q-23 2 -60 2h-148v-283h-134v653q13 -1 30 -2l36 -1q37 -1 78 -1q120 0 229 4q-5 -43 -5 -114q0 -8 1 -12l-1 -2q-26 7 -73 8h-161v-135h142q54 0 65 3z" />
    <glyph glyph-name="G" unicode="G" horiz-adv-x="674" 
d="M626 392q-9 -17 -9 -80v-151q0 -69 -71 -120q-74 -53 -181 -53q-148 0 -237 93q-85 89 -85 227q0 146 87 244q97 110 267 110q114 0 180 -44l-8 -144l-3 -1q-17 30 -68 48q-48 18 -100.5 18.5t-91.5 -16.5t-67 -47q-58 -63 -57 -167q0 -90 51 -145q51 -54 130 -54
q88 0 120 46q10 15 9 33v81h-63q-51 0 -55 -9l-1 1l-5 127q14 -4 111 -4h58q54 0 88 8z" />
    <glyph glyph-name="H" unicode="H" horiz-adv-x="593" 
d="M180 -3q-47 3 -112 3h-15v652q30 -2 43 -3h20q39 0 64 4v-260h229v259q41 -2 79 -2.5t48 3.5v-656q-23 3 -93 3h-34v276h-229v-279z" />
    <glyph glyph-name="I" unicode="I" horiz-adv-x="245" 
d="M53 651q49 -2 59 -2h35q26 0 42 4l-1 -653h-135v651z" />
    <glyph glyph-name="J" unicode="J" horiz-adv-x="438" 
d="M254 652q30 -2 44 -3h38q24 0 47 4v-437q0 -107 -57 -169q-54 -59 -146 -59q-63 0 -107 25q-16 9 -32 23v141l3 1q21 -32 48.5 -53t68.5 -21q93 0 93 108v440z" />
    <glyph glyph-name="K" unicode="K" horiz-adv-x="583" 
d="M177 -3q-34 3 -85 3h-39v651l20 -1q21 -1 30 -1h14q43 0 60 4v-276l198 274q31 -2 53 -2h27q50 0 72 4l-189 -246l186 -368q12 -27 22 -39h-30q-103 0 -129 -4q-5 33 -14 57l-125 238l-71 -93v-201z" />
    <glyph glyph-name="L" unicode="L" horiz-adv-x="402" 
d="M148 0q-72 0 -95 -3v655q12 -3 48.5 -3t85.5 2v-534h101q44 0 71 3q-3 -114 -4 -119v-4q-48 3 -160 3h-47z" />
    <glyph glyph-name="M" unicode="M" horiz-adv-x="689" 
d="M183 -3q-23 3 -91 3h-39v651q31 -2 69 -2t53 4l165 -278l157 278q16 -4 60 -4t75 2v-651h-39q-67 0 -90 -3v438l-160 -286l-160 263v-415z" />
    <glyph glyph-name="N" unicode="N" horiz-adv-x="591" 
d="M49 0q3 17 3 36v613h98l259 -407v374q0 27 -5 33h132q-2 -20 -3 -43v-606h-101l-255 391v-391h-128z" />
    <glyph glyph-name="O" unicode="O" horiz-adv-x="758" 
d="M68.5 179.5q-25.5 59.5 -25.5 130.5t23.5 134.5t68 111.5t107.5 77t141 29q135 0 227 -85q99 -91 99 -245q0 -149 -102 -249q-62 -61 -148 -84q-42 -11 -99.5 -11t-117 23.5t-104 66t-70 102zM178 316q0 -45 15.5 -83t41.5 -66q57 -58 147 -57q85 0 138 55q53 57 52 156
q0 93 -50 155q-54 66 -148 66q-91 0 -145 -67q-51 -64 -51 -159z" />
    <glyph glyph-name="P" unicode="P" horiz-adv-x="508" 
d="M53 653q68 9 139 9q133 0 202 -62.5t69 -186.5q0 -111 -76 -175q-71 -61 -182 -61q-13 0 -28 2v-179h-124v653zM207 544q-15 0 -30 -1v-257q16 -2 38.5 -2t47 9.5t40.5 26.5q35 36 35 94q0 130 -131 130z" />
    <glyph glyph-name="Q" unicode="Q" horiz-adv-x="818" 
d="M451 -3q-41 -9 -94.5 -9t-113.5 23.5t-104 65.5q-96 91 -96 234q0 145 93 245q98 105 249 106q138 0 228 -87q96 -93 97 -243q0 -121 -69 -211q-21 -28 -48 -51q18 -5 43 -16q53 -25 100 -26h10q25 0 34 7l2 -2l-37 -93q-7 -21 -26 -21q-28 0 -57 11.5t-51.5 22t-43 18.5
t-39.5 13q-32 9 -77 13zM174 316q0 -45 16 -84t43 -67q60 -60 150 -60q86 0 140 58q56 60 56 158q0 93 -53 155q-57 66 -151 66q-92 0 -148 -67q-53 -64 -53 -159z" />
    <glyph glyph-name="R" unicode="R" horiz-adv-x="564" 
d="M263 252q-15 -1 -31.5 -1t-49.5 3v-254h-129v653q68 9 168 9q136 0 202.5 -50t66.5 -155q0 -81 -61 -139q-20 -19 -46 -32l100 -210q29 -65 45 -77l-3 -2q-47 8 -149 -1zM230 546q-25 0 -48 -2v-187q24 -3 56.5 -3t54.5 5.5t38 17.5q35 26 34.5 77.5t-36.5 72.5
q-34 19 -99 19z" />
    <glyph glyph-name="S" unicode="S" horiz-adv-x="564" 
d="M457 613l-9 -143l-4 -1q-36 54 -123 70q-27 5 -52 5t-43 -4t-31 -13q-26 -18 -26 -46q0 -37 23 -55q29 -22 97 -31.5t109 -25t67 -39.5q50 -45 50 -127q0 -107 -81 -165q-69 -50 -175 -50q-85 0 -168 32q-28 11 -48 25l6 163l2 1q61 -104 199 -104q98 0 129 47
q11 16 11 36t-6.5 33t-20.5 22q-28 19 -95 25t-109.5 24t-68.5 43q-46 47 -46 131q0 87 62 141q62 55 167 54.5t184 -48.5z" />
    <glyph glyph-name="T" unicode="T" horiz-adv-x="538" 
d="M334 -3q-23 3 -120 3h-16v540h-97q-43 0 -51 -4l-12 -8h-1v125l1 2q16 -5 87 -6h307q43 0 50.5 4.5t12.5 8.5l1 -1v-125l-1 -1q-16 5 -87 5h-74v-543z" />
    <glyph glyph-name="U" unicode="U" horiz-adv-x="612" 
d="M423 652q30 -2 50 -3h41q21 0 43 4v-403q0 -120 -73 -193q-69 -69 -173 -69q-114 0 -184 59q-79 66 -78 191v414q41 -2 77 -2q35 -1 58 3v-421q0 -62 38 -96q35 -31 88 -31q78 0 104 80q9 29 9 71v396z" />
    <glyph glyph-name="V" unicode="V" horiz-adv-x="625" 
d="M380 -2q-16 2 -51 2h-54q-13 0 -24 -1l-1 1q2 3 2 7.5t-0.5 9.5t-4 17.5t-10.5 36.5l-21 66l-181 514q30 -2 77 -2t60 4l147 -444l129 442q29 -2 72 -2q59 0 68 4l-178 -515l-17 -57q-14 -49 -14 -63.5t2 -17.5z" />
    <glyph glyph-name="W" unicode="W" horiz-adv-x="895" 
d="M347 -2q-15 2 -49 2h-57q-17 0 -27 -1l-1 1q2 3 2 7.5t-0.5 9.5t-4 17.5t-9.5 36.5l-166 580q31 -2 75.5 -2t57.5 4l115 -442l113 440q7 0 13 -1h11q16 -1 40.5 -1t49.5 4l115 -442l98 440q29 -2 76.5 -2t57.5 4l-140 -515q-27 -89 -28.5 -105.5t-1.5 -23t2 -9.5l-1 -2
q-16 2 -50 2h-53q-24 0 -34 -1l-1 1q2 3 2 7.5t-0.5 9t-2.5 17t-7 36.5l-13 67l-81 304l-76 -303q-23 -93 -24 -107q-2 -27 0 -31z" />
    <glyph glyph-name="X" unicode="X" horiz-adv-x="613" 
d="M394 602q10 21 10.5 32t-1.5 15h175q-5 -6 -13.5 -14t-18.5 -19q-24 -27 -45 -63l-117 -215l109 -207l14 -27q37 -77 63 -104h-160q-2 17 -16 46l-96 183q-101 -205 -103 -210q-2 -8 -4 -19h-159q18 19 37 52l58 104l104 177l-136 257q-22 42 -39 59h164q-2 -5 -2 -10
q0 -13 12 -37l82 -163z" />
    <glyph glyph-name="Y" unicode="Y" horiz-adv-x="655" 
d="M255 0q6 19 7 89v136q-84 186 -108 232t-40 73q-51 86 -61.5 98.5t-20.5 20.5h168q5 -10 15 -28l118 -250q8 21 19 46q106 229 108 232h161q-25 -20 -61 -84q-11 -19 -22 -43l-110 -230q-19 -42 -32 -75v-140q0 -49 6 -77h-147z" />
    <glyph glyph-name="Z" unicode="Z" horiz-adv-x="563" 
d="M60 605q0 16 -2 44h463l-284 -532h177q69 0 82 4t20 8v-136q-21 2 -34.5 3.5t-29.5 2.5q-23 1 -88 1h-329l294 532h-154q-95 0 -121 -10q6 24 6 69v14z" />
    <glyph glyph-name="bracketleft" unicode="[" horiz-adv-x="342" 
d="M51 -54q2 31 2 37v598q0 68 -2 117h156q76 0 95 3l-2 -121q-12 3 -59 3h-63l4 -521h33q74 0 85 2l2 -120q-37 2 -72 2h-179z" />
    <glyph glyph-name="backslash" unicode="\" horiz-adv-x="480" 
d="M156 747h-125l292 -830h125z" />
    <glyph glyph-name="bracketright" unicode="]" horiz-adv-x="344" 
d="M291 -54q-2 31 -2 37v598q0 68 2 117h-156q-76 0 -95 3l2 -121q12 3 59 3h63l-4 -521h-33q-74 0 -85 2l-2 -120q37 2 72 2h179z" />
    <glyph glyph-name="asciicircum" unicode="^" horiz-adv-x="577" 
d="M231 691h105l203 -442h-137l-117 298l-111 -298h-137z" />
    <glyph glyph-name="underscore" unicode="_" horiz-adv-x="808" 
d="M748 -85v-78h-690v78h690z" />
    <glyph glyph-name="grave" unicode="`" horiz-adv-x="324" 
d="M40 742q83 -8 157 -8l82 -153h-110l-128 158z" />
    <glyph glyph-name="a" unicode="a" horiz-adv-x="557" 
d="M387 30q-69 -38 -125.5 -37.5t-96.5 11t-68 30.5q-57 42 -57 120q0 70 70 117q75 51 204 51h19q6 0 13.5 -0.5t13.5 -1.5q-4 78 -68 91q-21 4 -44.5 4.5t-46 -4t-44.5 -11.5q-47 -15 -68 -34l-1 1l-15 108q86 45 189 45q159 0 204 -115q14 -37 14 -82v-177q0 -57 40 -77
l-88 -81q-28 14 -45 42zM360 232q-13 2 -27 2h-20q-108 0 -137 -47q-9 -14 -9 -30t6 -28t19 -20q25 -15 75 -14.5t94 24.5q0 5 -1 11v102z" />
    <glyph glyph-name="b" unicode="b" horiz-adv-x="568" 
d="M169 492q55 28 112 28t98 -18t73 -51q68 -74 67 -186q0 -124 -73 -200q-71 -73 -177 -72q-93 0 -152 48q-67 55 -68 151v535h120v-235zM169 193q0 -86 107 -86q52 0 88 46q36 47 36 117t-38 106q-34 32 -92 32q-35 0 -77 -24q-13 -7 -24 -16v-175z" />
    <glyph glyph-name="c" unicode="c" horiz-adv-x="516" 
d="M472 47q-55 -55 -172 -54q-113 0 -185 69q-73 70 -72 185q0 118 71 193q76 80 204 80q90 0 151 -40l-19 -125l-4 1q-23 28 -49 37q-42 15 -84 15t-66 -11t-41 -30q-34 -39 -34 -103q0 -114 79 -150q27 -12 57.5 -11.5t53.5 5.5t41 15q40 20 54 45l3 -1z" />
    <glyph glyph-name="d" unicode="d" horiz-adv-x="592" 
d="M422 27q-62 -35 -124 -34.5t-108.5 20t-79.5 53.5q-67 70 -67 183q0 116 78 193q79 78 201 78q38 0 74 -10v218h120v-522q0 -65 6 -85t13.5 -29.5t19.5 -17.5l-92 -81q-25 13 -41 34zM321 105q41 0 75 16v270q-34 14 -74 14t-68.5 -10.5t-49.5 -29.5q-43 -40 -43 -104
q0 -70 39 -112q42 -44 121 -44z" />
    <glyph glyph-name="e" unicode="e" horiz-adv-x="595" 
d="M43 251q0 57 19.5 106t55.5 85q76 78 199 78q104 0 167 -69q62 -66 62 -167q0 -39 -6 -53q-49 -14 -198 -13h-172q13 -52 59 -81.5t121 -29.5q78 0 133 28q15 7 22 14q-1 -21 -3 -42l-5 -76q-37 -25 -120 -35q-24 -3 -47 -3q-124 0 -205 72q-82 73 -82 186zM416 312
q-20 105 -114 105q-74 0 -113 -63q-12 -20 -18 -43q12 0 29 -1h36q18 0 35 -1h28q25 0 49 1l40 1q15 0 28 1z" />
    <glyph glyph-name="f" unicode="f" horiz-adv-x="419" 
d="M352 454q-4 -14 -3 -71v-43h-118v-340h-120v340h-72q0 32 1 57l1 52v5h70v30q0 117 55 189q57 74 157 74q42 0 56 -6l1 -123l-1 -2q-19 19 -47.5 18.5t-46 -10t-29.5 -26.5q-25 -35 -25 -97v-47h121z" />
    <glyph glyph-name="g" unicode="g" horiz-adv-x="612" 
d="M204 136q-18 -24 -18 -38t4.5 -21.5t18.5 -14.5q32 -15 106 -26.5t116 -28.5t67 -42q48 -47 48.5 -134t-60.5 -134t-181 -47q-121 0 -196 53q-74 53 -76 140q-3 102 80 147q-22 19 -30 44t-8 57q0 54 48 92q-55 52 -56 130q0 87 63 145q66 62 171 62q55 0 103 -20
q63 27 93 47t39 29h3q4 -12 10 -34l9 -35q12 -43 14 -59q-21 -23 -76 -33q21 -41 21 -86.5t-15.5 -82.5t-44.5 -64q-64 -60 -163 -60q-48 0 -90 14zM191 355q-7 -18 -6.5 -35.5t8 -34t21.5 -30.5q33 -29 86 -29q40 0 69 27q31 29 31 70.5t-28 67t-77 25.5q-81 -1 -104 -61z
M311 -246q120 0 120 84q0 40 -39 64q-44 28 -151 44l-25 4q-32 -17 -47.5 -44t-15 -51t11.5 -41.5t31 -30.5q45 -29 115 -29z" />
    <glyph glyph-name="h" unicode="h" horiz-adv-x="544" 
d="M173 55q0 -42 2 -55h-122v698h120v-226q63 48 130 48q82 0 132 -54q49 -54 49 -144v-194q0 -83 2.5 -99.5t6.5 -21.5t7 -8l-1 -2q-40 3 -58 3h-34q-16 0 -43 -1v282q0 67 -30 100q-22 24 -61 24q-57 0 -100 -66v-284z" />
    <glyph glyph-name="i" unicode="i" horiz-adv-x="268" 
d="M46 656q39 61 82 107l105 -82q-21 -26 -39 -51l-38 -53zM175 55q0 -42 2 -55h-125v510h123v-455z" />
    <glyph glyph-name="j" unicode="j" horiz-adv-x="352" 
d="M149 652q32 51 73 96l93 -74q-24 -31 -33 -43l-17 -24q-8 -11 -17 -25zM95 -76q72 0 72 108v478h119v-443q0 -205 -117 -243q-38 -12 -86 -12l-51 128l1 3q28 -19 62 -19z" />
    <glyph glyph-name="k" unicode="k" horiz-adv-x="606" 
d="M173 64q0 -42 3 -64h-123v698h120v-427l223 239h145l-192 -202l109 -150q36 -57 54 -83l32 -46q15 -19 25 -29h-77q-43 0 -74 -7l-152 222l-93 -98v-53z" />
    <glyph glyph-name="l" unicode="l" horiz-adv-x="232" 
d="M175 55q0 -42 2 -55h-124v728h122v-673z" />
    <glyph glyph-name="m" unicode="m" horiz-adv-x="799" 
d="M177 141q0 -110 4 -141h-128v510h124v-44q67 54 137 54q83 0 120 -72q38 39 63 51q42 21 83.5 21t71 -14t48.5 -40q39 -52 38 -144v-194q0 -83 2.5 -99.5t6.5 -21.5t7 -8l-1 -2q-39 3 -57 3h-37q-18 0 -44 -1v264q0 114 -36 135q-12 7 -27.5 7t-27.5 -3.5t-23 -11.5
q-18 -13 -41 -52v-8v-129q0 -125 6 -201h-70q-29 0 -56 -1v264q0 80 -9.5 104t-20 31t-26.5 7q-64 0 -107 -62v-202z" />
    <glyph glyph-name="n" unicode="n" horiz-adv-x="546" 
d="M171 62q0 -43 4 -62h-122v510h118v-43q64 53 138 53q80 0 128 -54.5t48 -143.5v-194q0 -83 2.5 -99.5t6.5 -21.5t7 -8l-1 -2q-40 3 -58 3h-34q-16 0 -42 -1v266q0 143 -87 143q-64 0 -108 -67v-279z" />
    <glyph glyph-name="o" unicode="o" horiz-adv-x="612" 
d="M43 252q0 54 18 103t52 86q75 79 194 79t189 -75q67 -71 67 -185t-69 -188q-73 -79 -193 -79q-124 0 -194 77q-64 71 -64 182zM161 255q0 -31 10.5 -59.5t29.5 -49.5q41 -44 106 -44q61 0 97 44q34 42 34 109q0 68 -35 110q-38 45 -103 45q-66 0 -104 -48
q-34 -44 -35 -107z" />
    <glyph glyph-name="p" unicode="p" horiz-adv-x="575" 
d="M173 10v-143q0 -42 2 -55h-122v698h120v-31q59 42 113 41.5t96 -15.5t74 -47q70 -69 70 -196q0 -84 -40 -151q-34 -56 -93 -90q-53 -30 -114.5 -30t-105.5 19zM173 133q37 -31 96 -31q97 0 125 93q10 32 10 68.5t-7 58t-18 37.5t-24.5 26.5t-27.5 16.5q-25 11 -51.5 11.5
t-55 -12t-47.5 -32.5v-236z" />
    <glyph glyph-name="q" unicode="q" horiz-adv-x="584" 
d="M405 -188q2 13 2 55v178q-61 -52 -134 -52q-101 0 -164 65q-66 67 -66 179q0 127 70 204q68 74 173 74q80 0 126 -25l115 20v-698h-122zM407 375q-35 34 -112 34q-61 0 -97 -46q-36 -45 -36 -113q0 -102 73 -136q24 -12 57 -11q69 0 115 63v209z" />
    <glyph glyph-name="r" unicode="r" horiz-adv-x="375" 
d="M172 55q0 -42 2 -55h-122v510h120v-37q42 47 87.5 47t71.5 -11l-9 -132l-2 -1q-17 30 -70 30q-21 0 -42 -14t-36 -37v-300z" />
    <glyph glyph-name="s" unicode="s" horiz-adv-x="509" 
d="M249 -7q-138 0 -208 50q1 15 3 33l4 35q4 35 5 43.5t1.5 9.5t8 -8t28 -21t47.5 -21q58 -20 121 -20q84 0 84 56q0 18 -16 27q-29 15 -84.5 22.5t-91.5 22t-58 34.5q-42 39 -42 101q0 76 59 120q58 43 161 43q102 0 173 -58q-3 -13 -7 -24q-11 -32 -17 -46l-11 -29
q-1 -4 -2 -4t-7 10q-31 36 -96 47q-20 4 -41 4q-89 0 -89 -54q1 -19 19 -28q35 -19 95 -27.5t91 -23.5t50 -36q35 -38 35 -101q0 -69 -55 -112q-57 -45 -160 -45z" />
    <glyph glyph-name="t" unicode="t" horiz-adv-x="441" 
d="M306 107q63 0 87 33h4l1 -113q-24 -24 -89 -32q-18 -2 -44 -2t-56.5 9.5t-51.5 31.5q-44 45 -45 142v222h-73q0 14 -1 29v75q0 8 1 8h73v139h120v-139h134v-112h-134v-199q0 -77 43 -88q13 -4 31 -4z" />
    <glyph glyph-name="u" unicode="u" horiz-adv-x="536" 
d="M356 44q-62 -52 -136 -51q-79 0 -124 53q-43 52 -43 142v194q0 98 -4 112t-6 18q22 -2 47 -2h40q16 0 43 2v-283q0 -101 55 -117q17 -5 36 -5q58 0 92 42v361h122v-448q0 -43 3 -62h-125v44z" />
    <glyph glyph-name="v" unicode="v" horiz-adv-x="581" 
d="M35 510h138l119 -336l116 336h135l-202 -510h-100z" />
    <glyph glyph-name="w" unicode="w" horiz-adv-x="817" 
d="M35 510h132l91 -366l97 366h113l101 -374l90 374h119l-151 -510h-126l-97 334l-90 -334h-125z" />
    <glyph glyph-name="x" unicode="x" horiz-adv-x="570" 
d="M213 260l-173 250h153l90 -156l98 156h142l-11 -14l-159 -227l180 -269h-151l-98 166l-96 -166h-153z" />
    <glyph glyph-name="y" unicode="y" horiz-adv-x="575" 
d="M46 -170l32 26q73 59 121 174l22 54l-187 426h137l117 -295l109 295h141q-25 -35 -62 -131l-74 -181q-147 -346 -230 -412z" />
    <glyph glyph-name="z" unicode="z" horiz-adv-x="532" 
d="M79 487l-1 23h412l-249 -412h192q43 0 58 12l-32 -117q-21 1 -52 2l-60 3q-56 2 -106 2q-110 0 -206 -7l256 422h-121q-57 0 -93 -13q2 38 2 59v26z" />
    <glyph glyph-name="braceleft" unicode="{" horiz-adv-x="341" 
d="M303 -45q-34 -6 -73.5 -6t-73.5 10t-55 28q-42 34 -43 91q0 56 42 99q13 30 20.5 48.5t7.5 35.5q0 40 -92 55v27q66 12 84 29q7 7 7.5 15.5t-1 16.5t-4.5 16q-6 16 -21 47q-42 41 -43 102q0 53 41 91q49 45 137 46q29 0 67 -6l-5 -99l-2 -1q-14 3 -24 3.5t-22 2t-25 -1.5
t-22 -9q-20 -13 -20 -32q0 -39 49 -85q28 -60 29 -91q0 -38 -78 -62q78 -25 78 -58q0 -29 -25 -84l-24 -28q-29 -34 -29 -56t21 -37q22 -17 53 -13q10 1 19 1.5t20 4.5l2 -1z" />
    <glyph glyph-name="bar" unicode="|" horiz-adv-x="233" 
d="M52 -83q2 31 2 58v713q0 11 -3 59h130q-2 -49 -3 -89v-686q0 -42 2 -55h-128z" />
    <glyph glyph-name="braceright" unicode="}" horiz-adv-x="342" 
d="M39 -45q34 -6 73.5 -6t73 10t55.5 28q42 34 42 91q0 56 -42 99q-13 30 -20 48.5t-7 35.5q0 40 91 55v27q-66 12 -84 29q-7 7 -7 15.5t1 16.5t4 16q6 16 22 47q42 41 42 102q0 53 -41 91q-49 45 -137 46q-29 0 -66 -6l5 -99l2 -1q14 3 23.5 3.5t22 2t25 -1.5t22.5 -9
q20 -13 19 -32q0 -39 -49 -85q-28 -60 -28 -91q0 -38 78 -62q-78 -25 -78 -58q0 -29 24 -84l24 -28q29 -34 29 -56t-21 -37q-22 -17 -53 -13q-10 1 -19 1.5t-19 4.5l-2 -1z" />
    <glyph glyph-name="asciitilde" unicode="~" horiz-adv-x="717" 
d="M518 265q104 0 138 100l3 -1l9 -134q-42 -78 -165 -77q-66 0 -156 65q-55 40 -85.5 52t-55.5 12t-45.5 -4.5t-38.5 -14.5q-36 -21 -66 -71l-3 1l-4 135q60 69 170 69q59 0 156 -66t143 -66z" />
    <glyph glyph-name="Euro" unicode="&#x20ac;" horiz-adv-x="689" 
d="M649 55q-81 -67 -205 -67q-123 0 -206 62q-83 61 -110 165h-91l29 96h49v6q0 16 3 44h-81l31 96h74q41 95 129 150q90 55 204 55q90 0 164 -37l-34 -126h-2q-44 45 -131 45q-64 0 -113 -23t-79 -64h196q53 0 64 3l-27 -101q-23 2 -61 2h-210q-2 -15 -2 -27v-16v-7h196
q54 0 65 2l-33 -101q-23 2 -60 3h-145q42 -83 140 -104q28 -6 55 -6t54.5 6t52.5 18q54 25 83 66l1 -1v-139z" />
    <glyph glyph-name="quotesinglbase" unicode="&#x201a;" horiz-adv-x="236" 
d="M181 107q5 -51 5.5 -77t-1.5 -50.5t-5 -43.5q-7 -42 -17 -49q-24 -15 -115 -34l-3 2q18 33 18 146q0 50 -3 87z" />
    <glyph glyph-name="florin" unicode="&#x192;" horiz-adv-x="457" 
d="M407 594q-16 19 -46.5 19t-52 -9.5t-37.5 -27.5q-33 -36 -38 -96l-3 -26h135q-5 -10 -12 -71l-4 -43h-132l-47 -423h-119l47 423h-61l12 114h62q21 192 154 252q44 20 93 19.5t62 -6.5l-12 -122z" />
    <glyph glyph-name="quotedblbase" unicode="&#x201e;" horiz-adv-x="429" 
d="M181 108q5 -51 5 -77.5t-1.5 -50.5t-4.5 -44q-7 -42 -18 -49q-24 -16 -115 -34l-2 3q18 33 17 146q0 50 -3 86zM375 108q5 -51 5 -77.5t-1.5 -50.5t-4.5 -44q-7 -42 -17 -49q-24 -16 -115 -34l-3 3q18 33 17 146q0 50 -2 86z" />
    <glyph glyph-name="ellipsis" unicode="&#x2026;" horiz-adv-x="740" 
d="M688 78v-34q0 -26 3 -44h-143q4 30 4.5 53t-0.5 31v17q-1 8 -1 16l-2 12h142q-1 -19 -2 -30zM439 78v-34q0 -26 3 -44h-143q4 30 4.5 53t0.5 31q-1 9 -2 17v16l-2 12h142q-1 -19 -2 -30zM190 78v-34q0 -26 3 -44h-143q4 30 4.5 53t-0.5 31v17q-1 8 -1 16l-2 12h142
q-1 -19 -2 -30z" />
    <glyph glyph-name="dagger" unicode="&#x2020;" horiz-adv-x="365" 
d="M117 -122q2 31 1 58v459h-21q-37 0 -60 -2l1 120q11 -3 65 -3h15v129q0 11 -2 59h129q-2 -49 -2 -89v-99h16q53 0 64 3l2 -120q-23 2 -61 2h-21v-462q0 -42 2 -55h-128z" />
    <glyph glyph-name="daggerdbl" unicode="&#x2021;" horiz-adv-x="375" 
d="M103 133q-37 0 -60 -2l1 120q11 -3 65 -2h15v146h-21q-37 0 -60 -2l1 120q11 -3 65 -3h15v129q0 11 -2 59h129q-2 -49 -2 -89v-99h16q53 0 64 3l2 -120q-23 2 -61 2h-21v-146h16q53 0 64 2l2 -120q-23 2 -61 2h-21v-200q0 -42 2 -55h-128q2 31 1 58v197h-21z" />
    <glyph glyph-name="circumflex" unicode="&#x2c6;" horiz-adv-x="447" 
d="M173 580q-105 0 -128 -1l-2 1l119 162q12 -1 32 -2h25l59 2l124 -162l-2 -1l-124 1l-55 87z" />
    <glyph glyph-name="perthousand" unicode="&#x2030;" horiz-adv-x="1489" 
d="M235 299q-44 0 -79.5 13t-61.5 37q-56 51 -56 128q0 73 50 126q57 59 155 59q89 0 143 -56q51 -52 51 -125q0 -75 -56 -127q-58 -55 -146 -55zM623 649h120l-367 -649h-119zM240 398q23 0 40.5 7t30.5 19q26 23 25 58q0 33 -25 57q-27 26 -73 26q-44 0 -72 -25
q-25 -23 -25 -59q0 -34 26 -57q28 -26 73 -26zM1052 163q0 36 12.5 69t38.5 60q57 59 154 59q89 0 143 -56q51 -51 51 -125q0 -75 -55 -128q-59 -55 -150 -54q-83 0 -138 50q-56 51 -56 125zM576 163q0 36 12.5 69t37.5 60q57 59 154 59q89 0 144 -56q51 -51 51 -125
q0 -75 -56 -128q-59 -55 -149 -54q-83 0 -139 50q-55 51 -55 125zM1156 170q0 -17 6.5 -31.5t19.5 -26.5q28 -25 74 -25q42 0 69 25q26 23 26 59q0 33 -26 57q-27 26 -73 25q-44 0 -71 -25q-25 -23 -25 -58zM679 170q0 -17 6.5 -31.5t19.5 -26.5q28 -25 74 -25q42 0 70 25
q26 23 26 59q0 33 -26 57q-27 26 -73 25q-44 0 -72 -25q-25 -23 -25 -58z" />
    <glyph glyph-name="Scaron" unicode="&#x160;" horiz-adv-x="563" 
d="M457 613l-9 -143l-4 -1q-36 54 -123 70q-27 5 -52 5t-43 -4t-31 -13q-26 -18 -26 -46q0 -37 23 -55q29 -22 97 -31.5t109 -25t67 -39.5q50 -45 50 -127q0 -107 -81 -165q-69 -50 -175 -50q-85 0 -168 32q-28 11 -48 25l6 163l2 1q61 -104 199 -104q98 0 129 47
q11 16 11 36t-6.5 33t-20.5 22q-28 19 -95 25t-109.5 24t-68.5 43q-46 47 -46 131q0 87 62 141q62 55 167 54.5t184 -48.5zM268 668h-25q-21 0 -32 -1l-118 162l1 1q23 -1 129 -1l47 -87l55 87l125 1l2 -1l-125 -162z" />
    <glyph glyph-name="guilsinglleft" unicode="&#x2039;" horiz-adv-x="320" 
d="M56 219q-14 24 -14 33q0 17 11 39l98 156h125l-111 -190l114 -189h-125z" />
    <glyph glyph-name="OE" unicode="&#x152;" horiz-adv-x="1003" 
d="M585 70q-92 -82 -213 -82q-140 0 -233 89q-96 91 -96 234q0 145 93 245q98 105 249 106q115 0 200 -72v63q13 -1 28 -2l34 -1q33 -1 72 -1q120 0 229 4q-5 -43 -5 -114q0 -8 1 -12l-1 -2q-26 7 -72 8h-162v-125h143q54 0 64 3l2 -120q-23 2 -61 2h-148v-176h207
q30 0 42 6h2l-5 -123h-370v70zM169 316q0 -45 17 -84t46 -67q61 -60 151 -60q85 0 142 58q60 62 60 158q0 95 -60 158q-60 62 -150 63q-92 0 -151 -67q-55 -65 -55 -159z" />
    <glyph glyph-name="Zcaron" unicode="&#x17d;" horiz-adv-x="563" 
d="M60 605q0 16 -2 44h463l-284 -532h177q69 0 82 4t20 8v-136q-21 2 -34.5 3.5t-29.5 2.5q-23 1 -88 1h-329l294 532h-154q-95 0 -121 -10q6 24 6 69v14zM274 668h-25q-21 0 -32 -1l-118 162l1 1q23 -1 129 -1l47 -87l55 87l125 1l2 -1l-125 -162z" />
    <glyph glyph-name="quoteleft" unicode="&#x2018;" horiz-adv-x="232" 
d="M52 446q-5 51 -5.5 77t1.5 50.5t5 44.5q7 42 17 49q24 15 115 34l3 -3q-18 -29 -18 -146q0 -50 3 -87z" />
    <glyph glyph-name="quoteright" unicode="&#x2019;" horiz-adv-x="233" 
d="M180 706q5 -51 5.5 -77.5t-1.5 -51t-5 -43.5q-7 -42 -17 -49q-24 -16 -115 -34l-3 3q18 33 18 146q0 50 -3 86z" />
    <glyph glyph-name="quotedblleft" unicode="&#x201c;" horiz-adv-x="453" 
d="M391 544q0 -37 3 -74l-122 -19q-5 51 -5 77t1.5 50.5t4.5 44.5q7 42 17 48q24 15 115 35l3 -3q-17 -29 -17 -159zM171 544q0 -37 3 -74l-122 -19q-5 51 -5 77t1.5 50.5t4.5 44.5q7 42 18 48q24 15 114 35l3 -3q-17 -29 -17 -159z" />
    <glyph glyph-name="quotedblright" unicode="&#x201d;" horiz-adv-x="453" 
d="M62 612q0 37 -3 74l122 20q5 -51 5 -77.5t-1.5 -51t-4.5 -43.5q-7 -42 -18 -49q-24 -15 -115 -34l-3 3q18 28 18 158zM282 612q0 37 -3 74l121 20q5 -51 5.5 -77.5t-1.5 -51t-5 -43.5q-7 -42 -17 -49q-24 -15 -115 -34l-3 3q18 28 18 158z" />
    <glyph glyph-name="bullet" unicode="&#x2022;" horiz-adv-x="352" 
d="M176 234q-26 0 -50 8t-42 23q-40 33 -40 82q0 46 35 80q37 35 94 34q58 0 97 -35q36 -34 36 -78q0 -52 -39 -84q-36 -30 -91 -30z" />
    <glyph glyph-name="endash" unicode="&#x2013;" horiz-adv-x="604" 
d="M110 244q-37 0 -60 -2l1 120q11 -3 65 -3h371q53 0 65 3l1 -120q-23 2 -60 2h-383z" />
    <glyph glyph-name="emdash" unicode="&#x2014;" horiz-adv-x="769" 
d="M111 244q-37 0 -61 -2l2 120q11 -3 64 -3h536q53 0 65 3l1 -120q-23 2 -60 2h-547z" />
    <glyph glyph-name="tilde" unicode="&#x2dc;" horiz-adv-x="425" 
d="M133 625q-46 0 -81 -37l-2 1l-2 97q33 39 90 39q45 0 83.5 -26.5t79.5 -26.5q58 0 76 41l1 -1l-5 -106q-8 -15 -29.5 -24t-45 -9t-38 4t-26.5 9.5t-22.5 12t-22.5 12.5q-27 14 -56 14z" />
    <glyph glyph-name="trademark" unicode="&#x2122;" horiz-adv-x="1105" 
d="M300 238l-95 1h-6v330h-96q-53 0 -64 -11l1 19v37v26v15q16 -5 85 -5h258q43 0 50.5 4t9.5 7v-7l1 -16q0 -34 -1 -75q-6 6 -82 6h-61v-331zM620 235q-16 2 -99 2v414q15 -1 21 -1h15q41 0 66 2l161 -257l154 257q15 -2 38 -2h46q19 0 29 1v-414q-75 0 -99 -2v258
l-166 -268l-166 251v-241z" />
    <glyph glyph-name="scaron" unicode="&#x161;" horiz-adv-x="509" 
d="M249 -7q-138 0 -208 50q1 15 3 33l4 35q4 35 5 43.5t1.5 9.5t8 -8t28 -21t47.5 -21q58 -20 121 -20q84 0 84 56q0 18 -16 27q-29 15 -84.5 22.5t-91.5 22t-58 34.5q-42 39 -42 101q0 76 59 120q58 43 161 43q102 0 173 -58q-3 -13 -7 -24q-11 -32 -17 -46l-11 -29
q-1 -4 -2 -4t-7 10q-31 36 -96 47q-20 4 -41 4q-89 0 -89 -54q1 -19 19 -28q35 -19 95 -27.5t91 -23.5t50 -36q35 -38 35 -101q0 -69 -55 -112q-57 -45 -160 -45zM251 580h-25q-21 0 -32 -1l-118 161l1 2q23 -1 129 -2l47 -86l55 86l125 2l2 -2l-125 -161z" />
    <glyph glyph-name="guilsinglright" unicode="&#x203a;" horiz-adv-x="319" 
d="M263 296q14 -24 14 -33q0 -17 -11 -38l-98 -157h-125l111 190l-114 189h125z" />
    <glyph glyph-name="oe" unicode="&#x153;" horiz-adv-x="1027" 
d="M758 -7q-152 0 -233 93q-38 -44 -92.5 -68.5t-122 -24.5t-118 22.5t-83.5 59.5q-66 72 -66 175q0 117 75 192q78 78 207.5 78t202.5 -92q77 92 212 92q104 0 170 -63q68 -65 69 -173q0 -28 -6 -52q-54 -15 -204 -14h-69q-32 0 -59 1v108q20 -3 59 -3h55q17 0 35 1l36 1
q18 0 31 1q-18 56 -87 75q-21 6 -47.5 6t-51 -10t-43.5 -28q-39 -38 -43 -99l1 -17v-6q0 -2 1 -19.5t16 -42.5t40 -42q51 -36 138 -36.5t151 51.5q-2 -54 -7 -128q-39 -25 -120 -35q-24 -3 -47 -3zM162 257q0 -29 12 -57t32 -49q44 -44 108 -44t107 39q45 41 45 106
q0 66 -42 111t-108 45q-69 0 -114 -47q-40 -43 -40 -104z" />
    <glyph glyph-name="zcaron" unicode="&#x17e;" horiz-adv-x="531" 
d="M78 487l-1 23h412l-249 -412h192q43 0 58 12l-32 -117q-21 1 -52 2l-60 3q-56 2 -106 2q-110 0 -206 -7l256 422h-121q-57 0 -93 -13q2 38 2 59v26zM253 580h-25q-21 0 -32 -1l-118 161l1 2q23 -1 129 -2l47 -86l55 86l125 2l2 -2l-125 -161z" />
    <glyph glyph-name="Ydieresis" unicode="&#x178;" horiz-adv-x="655" 
d="M255 0q6 19 7 89v136q-84 186 -108 232t-40 73q-51 86 -61.5 98.5t-20.5 20.5h168q5 -10 15 -28l118 -250q8 21 19 46q106 229 108 232h161q-25 -20 -61 -84q-11 -19 -22 -43l-110 -230q-19 -42 -32 -75v-140q0 -49 6 -77h-147zM496 837q-2 -24 -2 -62t2 -55h-129
q4 30 3.5 60t-2.5 57h128zM286 837q-2 -24 -2 -62t2 -55h-129q4 30 3.5 60t-2.5 57h128z" />
    <glyph glyph-name="uni00A0" unicode="&#xa0;" horiz-adv-x="321" 
 />
    <glyph glyph-name="exclamdown" unicode="&#xa1;" horiz-adv-x="234" 
d="M54 482q25 -3 86 -3h39l1 -477l-44 2h-11q-57 0 -72 -4zM52 548q2 24 2 62t-2 55h129q-4 -30 -4 -59.5t3 -57.5h-128z" />
    <glyph glyph-name="cent" unicode="&#xa2;" horiz-adv-x="585" 
d="M282 -95q4 17 5 66v18q-110 9 -179 80t-69 173q0 105 68 180q66 73 176 93v32q0 49 -4 66h131q-2 -28 -2 -60v-35q82 -6 129 -25l-13 -133l-5 -5q-39 33 -127 44q-26 3 -60 3.5t-67 -11t-55 -31.5q-43 -39 -43 -100q0 -67 48 -110q52 -45 136 -45q100 0 161 55
q19 17 29 39l4 -3l-7 -144q-42 -39 -126 -54v-33q2 -59 2 -60h-132z" />
    <glyph glyph-name="sterling" unicode="&#xa3;" horiz-adv-x="563" 
d="M268 281q2 -20 2 -61.5t-17 -92.5q29 -5 42 -7t24 -4.5t24 -4.5q30 -6 58.5 -6t46.5 1.5t31 4.5q28 7 44 20h3l-4 -127q-41 -17 -99 -16q-21 0 -60 6l-57 10q-26 4 -42 7l-27 5q-20 3 -35 4q-22 0 -37 -4q-41 -21 -104 -29l-24 124q24 14 83 21q25 57 25.5 93t-1.5 56
h-86l-6 117h71q-6 38 -6 78.5t15.5 75.5t44.5 59q60 50 158 51q92 0 151 -21l-17 -122l-1 -3q-37 16 -80 22t-57 6q-90 0 -90 -79q0 -41 4 -67h125q53 0 65 3l1 -122q-23 2 -60 2h-108z" />
    <glyph glyph-name="currency" unicode="&#xa4;" horiz-adv-x="623" 
d="M506 422q29 -48 29 -104.5t-33 -104.5l38 -37q22 -23 44 -42l-93 -92q-11 18 -44 49l-44 44q-44 -18 -94 -18t-91 16l-43 -43q-35 -35 -44 -49l-92 93q11 9 22 19l60 60q-29 45 -29 100.5t28 102.5l-37 36q-32 33 -49 44l92 93q19 -22 42 -45l45 -45q48 21 102 21t95 -17
q67 66 84 87l93 -92q-15 -8 -49 -44zM214 318q0 -19 8 -34.5t23 -27.5q29 -24 71 -24t70 23q30 24 30 65q0 35 -28 60q-30 27 -75 28q-44 0 -72 -27q-27 -26 -27 -63z" />
    <glyph glyph-name="yen" unicode="&#xa5;" horiz-adv-x="649" 
d="M272 0q6 19 7 89v92h-172v95h172v46h-172v96h106l-82 116q-57 82 -100 115h173q3 -15 26 -48l108 -180l106 180q22 40 21 48h151q-11 -6 -76 -112l-78 -119h41q54 0 64 3v-101q-23 2 -59 2h-105v-46h99q54 0 64 3v-101q-23 2 -63 3h-100v-104q0 -49 6 -77h-137z" />
    <glyph glyph-name="brokenbar" unicode="&#xa6;" horiz-adv-x="233" 
d="M178 470q0 -42 2 -54h-128q2 31 2 37v235q0 11 -3 59h130q-2 -49 -3 -89v-188zM178 -28q0 -42 2 -55h-128l1 16q1 17 1 36v219q0 11 -3 60h130q-2 -49 -3 -90v-186z" />
    <glyph glyph-name="section" unicode="&#xa7;" horiz-adv-x="595" 
d="M462 85q66 -52 66 -120q0 -91 -80 -142q-71 -46 -169 -46q-80 0 -155 35q-22 10 -36 21l-6 150l2 1q23 -39 85 -67t125 -28q46 0 70.5 12t33.5 22.5t9 22.5q0 51 -150 79q-154 28 -204 112q-17 27 -17 58q0 103 100 159q-71 57 -71 126q0 78 68 128q71 53 194 54
q84 0 149 -31q19 -9 30 -18l-18 -140l-3 -2q-40 53 -123 71q-28 6 -57.5 6t-50 -4.5t-35.5 -12.5q-30 -16 -30 -40q0 -40 81 -67q25 -8 71 -15.5t89.5 -25t71.5 -40.5q55 -44 55 -101q0 -102 -95 -157zM163 250q-7 -11 -7.5 -24.5t13 -25.5t34 -21.5t46 -17t49.5 -12.5
q38 -8 75 -14l28 19q25 18 31.5 31t6.5 26.5t-18 27t-47 25.5q-51 20 -133 35q-56 -15 -78 -49z" />
    <glyph glyph-name="dieresis" unicode="&#xa8;" horiz-adv-x="435" 
d="M386 698q-2 -24 -2 -62t2 -55h-129q4 30 4 59.5t-3 57.5h128zM176 698q-2 -24 -2 -62t2 -55h-129q4 30 4 59.5t-3 57.5h128z" />
    <glyph glyph-name="copyright" unicode="&#xa9;" horiz-adv-x="830" 
d="M68.5 253q-28.5 62 -28.5 129t15.5 113.5t41.5 83.5t62 63.5t78 44.5q129 54 273 22q94 -20 163 -73q72 -56 100 -142q14 -43 14.5 -93.5t-13 -95t-38.5 -82.5t-59 -69t-75 -52q-86 -45 -177.5 -45.5t-160 23.5t-118 67.5t-78 105.5zM155 390q0 -48 18.5 -88.5
t52.5 -71.5q73 -67 186 -66q121 0 192 64q68 62 69 158q0 104 -71 171q-72 66 -189 66q-120 0 -190 -67q-68 -65 -68 -166zM541 266q-37 -31 -116 -31q-83 0 -135 45q-50 44 -50 111q0 69 54 115q56 48 142 48q58 0 100 -19v-111q-21 20 -72 27q-14 2 -27 3q-44 0 -66 -17
t-22 -43t25.5 -42.5t68.5 -16.5q42 0 79 19q11 6 18 13l1 -1v-100z" />
    <glyph glyph-name="ordfeminine" unicode="&#xaa;" horiz-adv-x="543" 
d="M359 328q-49 -46 -111.5 -46t-100.5 15.5t-61 41.5q-45 49 -45 128q0 83 54 138q56 56 149 57q52 0 97 -29v32h125v-227q0 -83 39 -99l-1 -3l-96 -63q-26 9 -49 55zM341 534q-44 21 -85 20.5t-66 -22.5t-25 -59t28 -60q29 -24 70 -24t78 20v125z" />
    <glyph glyph-name="guillemotleft" unicode="&#xab;" horiz-adv-x="553" 
d="M56 219q-14 24 -14 33q0 17 11 39l99 156h124l-111 -190l114 -189h-125zM289 219q-14 24 -14 33q0 17 11 39l98 156h125l-111 -190l114 -189h-125z" />
    <glyph glyph-name="logicalnot" unicode="&#xac;" horiz-adv-x="591" 
d="M107 244q-37 0 -60 -2l1 120q11 -3 65 -3h361q54 0 64 3v-197q0 -37 3 -61l-121 2q3 11 3 64v74h-316z" />
    <glyph glyph-name="uni00AD" unicode="&#xad;" horiz-adv-x="125" 
 />
    <glyph glyph-name="registered" unicode="&#xae;" horiz-adv-x="830" 
d="M68.5 253q-28.5 62 -28.5 129t15.5 113.5t42 83.5t62 63.5t77.5 44.5q129 54 273 22q94 -20 163 -73q72 -56 100 -142q14 -43 14.5 -93.5t-13 -95t-38.5 -82.5t-59 -69t-75 -52q-86 -45 -177.5 -45.5t-160 23.5t-118 67.5t-78 105.5zM155 390q0 -48 18.5 -88.5
t52.5 -71.5q73 -67 186 -66q121 0 192 64q68 62 69 158q0 104 -70 171q-72 66 -190 66q-120 0 -190 -67q-68 -65 -68 -166zM438 312q-16 -2 -25 -2h-15q-4 0 -8 1v-69h-110v298q49 13 105 13t89.5 -10t55.5 -26q42 -33 42.5 -83t-39.5 -83l26 -51q4 -7 9 -17q23 -39 28 -42
l-1 -1q-11 1 -19 2h-21q-53 0 -80 -2zM412 393q55 0 55 43q0 16 -17 26t-35 10h-20q-2 0 -5 -1v-77q6 -1 11 -1h11z" />
    <glyph glyph-name="macron" unicode="&#xaf;" horiz-adv-x="429" 
d="M379 744q-2 -24 -2 -37v-17q0 -4 2 -29h-330l1 12q2 16 2.5 29.5t-2.5 41.5h329z" />
    <glyph glyph-name="degree" unicode="&#xb0;" horiz-adv-x="434" 
d="M212 357q-39 0 -70 13t-54 35q-48 47 -48 119q0 71 47 120q50 52 133 52q74 0 123 -52q47 -50 48 -117q0 -73 -51 -121q-51 -49 -128 -49zM185.5 457.5q14.5 -5.5 32 -5.5t31 5.5t24.5 15.5q21 22 21 56q0 51 -45 70q-15 6 -33 6t-32 -6.5t-25 -16.5q-21 -22 -20.5 -46.5
t6 -38.5t16 -24t25 -15.5z" />
    <glyph glyph-name="plusminus" unicode="&#xb1;" horiz-adv-x="535" 
d="M325 282q0 -37 2 -60l-121 1q3 11 3 65v103h-104q-37 0 -60 -3l1 121q11 -3 65 -3h98v94q0 54 -3 64l121 2q-2 -23 -2 -61v-99h98q53 0 64 3l2 -121q-23 2 -61 3h-103v-109zM105 49q-37 0 -60 -3l1 111q11 -3 65 -3h312q53 0 64 3l2 -111q-23 2 -61 3h-323z" />
    <glyph glyph-name="twosuperior" unicode="&#xb2;" horiz-adv-x="396" 
d="M310 294q-68 4 -123 5q-92 0 -150 -4l45 71q90 144 90 180q0 14 -8.5 25.5t-18.5 11.5t-20.5 -2t-20.5 -6q-23 -8 -37 -20h-4l3 112q28 20 101 19q57 0 96 -28q40 -28 40 -77q0 -68 -68 -185h76q34 0 45 9l2 -1z" />
    <glyph glyph-name="threesuperior" unicode="&#xb3;" horiz-adv-x="387" 
d="M278 515q30 -16 47.5 -42.5t17.5 -56.5t-11 -52.5t-33 -38.5q-44 -33 -121 -33q-87 0 -134 36l-1 97l2 3q24 -24 92 -35q20 -3 38 -4q56 0 56 31q0 12 -10 19q-18 14 -35 14.5t-24.5 -0.5t-14.5 -2q-14 -2 -15 -4l-1 3l2 75q15 7 44 8h1q25 10 25 27q0 32 -45.5 32
t-80.5 -21l-1 2l-3 93q38 25 114 25q60 0 98 -25q37 -25 37 -72t-44 -79z" />
    <glyph glyph-name="acute" unicode="&#xb4;" horiz-adv-x="322" 
d="M125 734q73 0 156 8v-3l-128 -158h-110z" />
    <glyph glyph-name="mu" unicode="&#xb5;" horiz-adv-x="595" 
d="M111 -199q-55 41 -55 177v422q0 69 -7 112q22 -2 45 -2h39q16 0 42 2v-365q32 -40 96 -40q42 0 73 30v373h120v-327q0 -75 52 -76q26 0 39 16h4l-28 -121q-16 -9 -52 -9q-66 0 -104 49q-61 -49 -129 -49q-42 0 -82 20q3 -116 45 -145v-3z" />
    <glyph glyph-name="paragraph" unicode="&#xb6;" horiz-adv-x="615" 
d="M245 11q-29 -11 -69 -11t-71 14v116l3 1q26 -15 47.5 -14.5t29.5 3.5t14 10q11 14 11 50v95q-82 3 -129 60q-42 51 -42 126q0 136 139 176q46 13 107 12h278q-4 -40 -4 -116v-478q0 -42 2 -55h-121v533q-23 1 -41 2h-33q-16 0 -31 -1v-306q0 -182 -90 -217z" />
    <glyph glyph-name="periodcentered" unicode="&#xb7;" horiz-adv-x="244" 
d="M49 293q4 30 4.5 53t0.5 32l-2 16v16l-2 12h142q-1 -19 -2 -30l-1 -21v-35q0 -25 3 -43h-143z" />
    <glyph glyph-name="cedilla" unicode="&#xb8;" horiz-adv-x="243" 
d="M184 20l4 -25q4 -27 4 -68.5t-11 -68t-25 -35.5q-29 -19 -105 -34l-3 3q34 48 34 208z" />
    <glyph glyph-name="onesuperior" unicode="&#xb9;" horiz-adv-x="223" 
d="M50 679h120v-386h-120v386z" />
    <glyph glyph-name="ordmasculine" unicode="&#xba;" horiz-adv-x="511" 
d="M248 282q-50 0 -89.5 16.5t-65.5 42.5q-52 52 -52 126q0 83 61 138q62 56 154 57q90 0 150 -53q61 -53 61 -134q0 -80 -62 -136q-63 -57 -157 -57zM218 393.5q18 -6.5 38.5 -6.5t37 6.5t27.5 17.5q26 24 27 57q0 37 -29 61q-27 25 -59 25t-49.5 -7.5t-29.5 -20.5
q-23 -24 -23 -48.5t7.5 -40t21 -26.5t31.5 -17.5z" />
    <glyph glyph-name="guillemotright" unicode="&#xbb;" horiz-adv-x="551" 
d="M263 219q14 24 13 33q0 17 -11 39l-98 156h-124l110 -190l-113 -189h124zM496 219q14 24 13 33q0 17 -11 39l-98 156h-125l111 -190l-113 -189h124z" />
    <glyph glyph-name="onequarter" unicode="&#xbc;" horiz-adv-x="830" 
d="M45 679h120v-386h-120v386zM461 649h120l-366 -649h-120zM722 177q46 0 72 7l2 -1l-31 -113h-53v-70h-120v70h-189l-9 21l152 285l166 -1v-198h10zM592 177v116l-47 -116h47z" />
    <glyph glyph-name="onehalf" unicode="&#xbd;" horiz-adv-x="805" 
d="M45 679h120v-386h-120v386zM450 649h119l-366 -649h-120zM723 -4q-143 9 -272 1l44 70q90 144 90 181q0 14 -8 25t-18 11t-20.5 -1.5t-21.5 -5.5q-23 -8 -37 -20l-3 -1l2 112q28 20 102 20q57 0 96 -28q41 -29 40 -77q0 -68 -68 -185h76q34 0 44 8l3 -1z" />
    <glyph glyph-name="threequarters" unicode="&#xbe;" horiz-adv-x="943" 
d="M576 649h119l-366 -649h-120zM835 177q46 0 73 7l1 -1l-30 -113h-54v-70h-120v70h-188l-10 21l152 285l166 -1v-198h10zM705 177v116l-46 -116h46zM274 515q30 -16 48 -42.5t18 -56.5t-11.5 -52.5t-32.5 -38.5q-44 -33 -121 -33q-87 0 -135 36l-1 97l3 3q24 -24 92 -35
q20 -3 38 -4q56 0 55 31q0 12 -9 19q-18 14 -35 14.5t-25 -0.5t-14 -2q-14 -2 -15 -4l-2 3l3 75q15 7 44 8h1q25 10 25 27q0 32 -45.5 32t-80.5 -21l-1 2l-3 93q38 25 114 25q60 0 98 -25q37 -25 36.5 -72t-44.5 -79z" />
    <glyph glyph-name="questiondown" unicode="&#xbf;" horiz-adv-x="464" 
d="M172 428q42 32 92 55q61 -23 61 -87q0 -27 -14 -50q-28 -44 -83 -89q-40 -33 -50 -49q-16 -23 -16 -43t8.5 -34t22.5 -24q30 -20 75 -20q60 0 107 40q16 14 27 34l3 1q-1 -21 5 -44l20 -73q-69 -65 -179 -66q-93 0 -156 54q-59 51 -58 121q0 35 14 61q24 42 62.5 76
t53.5 49t22 25q11 16 11 30t-8.5 22.5t-19.5 10.5zM183 534q2 24 2 62t-2 55h129q-4 -30 -3.5 -59.5t2.5 -57.5h-128z" />
    <glyph glyph-name="Agrave" unicode="&#xc0;" horiz-adv-x="667" 
d="M171 -4q-42 4 -98 4h-38l212 595q14 40 14 47v8v1q32 -1 68 -2q29 0 70 1v-1q-1 -2 -1 -5q0 -9 15 -49l217 -596h-23l-25 1h-22h-76l-46 141h-221zM400 258l-74 227l-72 -227h146zM213 881q83 -8 156 -8l83 -153h-111l-128 158v3z" />
    <glyph glyph-name="Aacute" unicode="&#xc1;" horiz-adv-x="667" 
d="M171 -4q-42 4 -98 4h-38l212 595q14 40 14 47v8v1q32 -1 68 -2q29 0 70 1v-1q-1 -2 -1 -5q0 -9 15 -49l217 -596h-23l-25 1h-22h-76l-46 141h-221zM400 258l-74 227l-72 -227h146zM295 873q73 0 157 8l-1 -3l-128 -158h-110z" />
    <glyph glyph-name="Acircumflex" unicode="&#xc2;" horiz-adv-x="667" 
d="M171 -4q-42 4 -98 4h-38l212 595q14 40 14 47v8v1q32 -1 68 -2q29 0 70 1v-1q-1 -2 -1 -5q0 -9 15 -49l217 -596h-23l-25 1h-22h-76l-46 141h-221zM400 258l-74 227l-72 -227h146zM283 719q-105 0 -129 -1l-1 1l118 162q12 -1 32 -2h25l59 2l125 -162l-2 -1l-125 1
l-55 87z" />
    <glyph glyph-name="Atilde" unicode="&#xc3;" horiz-adv-x="667" 
d="M171 -4q-42 4 -98 4h-38l212 595q14 40 14 47v8v1q32 -1 68 -2q29 0 70 1v-1q-1 -2 -1 -5q0 -9 15 -49l217 -596h-23l-25 1h-22h-76l-46 141h-221zM400 258l-74 227l-72 -227h146zM252 764q-46 0 -81 -36h-2l-2 97q33 39 90 39q45 0 83.5 -26.5t79.5 -26.5q58 0 77 41
l1 -1l-5 -105q-8 -15 -30 -24.5t-45.5 -9.5t-37.5 4t-26.5 9.5t-23 12.5t-21.5 12q-28 14 -57 14z" />
    <glyph glyph-name="Adieresis" unicode="&#xc4;" horiz-adv-x="667" 
d="M171 -4q-42 4 -98 4h-38l212 595q14 40 14 47v8v1q32 -1 68 -2q29 0 70 1v-1q-1 -2 -1 -5q0 -9 15 -49l217 -596h-23l-25 1h-22h-76l-46 141h-221zM400 258l-74 227l-72 -227h146zM502 837q-2 -24 -2 -62t2 -55h-129q4 30 3.5 60t-3.5 57h129zM292 837q-2 -24 -2 -62
t2 -55h-129q4 30 3.5 60t-2.5 57h128z" />
    <glyph glyph-name="Aring" unicode="&#xc5;" horiz-adv-x="667" 
d="M171 -4q-42 4 -98 4h-38l212 595q14 40 14 47v8v1q32 -1 68 -2q29 0 70 1v-1q-1 -2 -1 -5q0 -9 15 -49l217 -596h-23l-25 1h-22h-76l-46 141h-221zM400 258l-74 227l-72 -227h146zM329 667q-30 0 -54.5 8t-41.5 23q-37 31 -37 84q0 52 36 84q37 34 104 34q59 0 96 -34
q37 -33 36 -82q0 -54 -39 -85q-38 -32 -100 -32zM306.5 740q11.5 -4 24.5 -4t23 4t18 10q17 15 17 29t-3.5 23t-11.5 15q-17 16 -38 16t-31.5 -4t-17.5 -12q-14 -13 -14 -27.5t4 -23.5t11 -15.5t18.5 -10.5z" />
    <glyph glyph-name="AE" unicode="&#xc6;" horiz-adv-x="872" 
d="M178 -4q-53 4 -105 4h-38l342 595l17 27q8 13 8 19t-1 9v1q31 -1 68 -2h102h58l58 1q64 0 130 3q-5 -43 -5 -114q0 -8 1 -12l-1 -2q-26 7 -72 8h-162v-125h128q54 0 65 3l1 -120q-23 2 -61 2h-133v-176h207q30 0 42 6h2l-5 -123h-370l1 141h-199zM456 258l2 258
l-139 -258h137z" />
    <glyph glyph-name="Ccedilla" unicode="&#xc7;" horiz-adv-x="606" 
d="M404 -10q3 -27 3 -66t-11 -65.5t-25 -35.5q-29 -19 -105 -34l-3 3q24 34 32 146q2 30 2 54q-121 18 -189 110q-65 87 -65 220q0 158 89 248q90 91 252 92q101 0 165 -32v-150l-1 -1q-27 42 -115 56q-26 4 -65.5 4.5t-78 -14.5t-62.5 -43q-47 -53 -47 -151q0 -115 60 -171
q50 -47 132 -47q93 0 150 39q21 14 36 36l1 -1v-137q-59 -50 -155 -60z" />
    <glyph glyph-name="Egrave" unicode="&#xc8;" horiz-adv-x="466" 
d="M379 117q30 0 42 6h2l-5 -123h-366v653q13 -1 29 -2l34 -1q34 -1 75 -1q112 0 221 4q-5 -43 -5 -114v-12v-2q-25 7 -73 8h-154v-125h116q54 0 65 3l1 -120q-23 2 -60 2h-122v-176h200zM111 881q83 -8 156 -8l82 -153h-110l-128 158v3z" />
    <glyph glyph-name="Eacute" unicode="&#xc9;" horiz-adv-x="466" 
d="M379 117q30 0 42 6h2l-5 -123h-366v653q13 -1 29 -2l34 -1q34 -1 75 -1q112 0 221 4q-5 -43 -5 -114v-12v-2q-25 7 -73 8h-154v-125h116q54 0 65 3l1 -120q-23 2 -60 2h-122v-176h200zM193 873q73 0 156 8v-3l-128 -158h-110z" />
    <glyph glyph-name="Ecircumflex" unicode="&#xca;" horiz-adv-x="466" 
d="M379 117q30 0 42 6h2l-5 -123h-366v653q13 -1 29 -2l34 -1q34 -1 75 -1q112 0 221 4q-5 -43 -5 -114v-12v-2q-25 7 -73 8h-154v-125h116q54 0 65 3l1 -120q-23 2 -60 2h-122v-176h200zM180 719q-105 0 -128 -1l-1 1l118 162q12 -1 32 -2h25l59 2l124 -162l-2 -1l-124 1
l-55 87z" />
    <glyph glyph-name="Edieresis" unicode="&#xcb;" horiz-adv-x="467" 
d="M380 117q30 0 42 6h2l-5 -123h-366v653q13 -1 29 -2l34 -1q34 -1 75 -1q112 0 221 4q-5 -43 -5 -114v-12v-2q-25 7 -73 8h-154v-125h116q54 0 65 3l1 -120q-23 2 -60 2h-122v-176h200zM401 837q-2 -24 -2 -62t2 -55h-130q4 30 4 60t-3 57h129zM191 837q-2 -24 -2 -62
t2 -55h-130q4 30 4 60t-3 57h129z" />
    <glyph glyph-name="Igrave" unicode="&#xcc;" horiz-adv-x="305" 
d="M89 651q49 -2 59 -2h35q26 0 42 4l-1 -653h-135v651zM32 881q83 -8 156 -8l83 -153h-111l-128 158v3z" />
    <glyph glyph-name="Iacute" unicode="&#xcd;" horiz-adv-x="305" 
d="M89 651q49 -2 59 -2h35q26 0 42 4l-1 -653h-135v651zM115 873q73 0 156 8l-1 -3l-128 -158h-110z" />
    <glyph glyph-name="Icircumflex" unicode="&#xce;" horiz-adv-x="425" 
d="M149 651q49 -2 59 -2h35q26 0 42 4l-1 -653h-135v651zM162 719q-105 0 -129 -1l-1 1l118 162q12 -1 32 -2h25l59 2l125 -162l-2 -1l-125 1l-55 87z" />
    <glyph glyph-name="Idieresis" unicode="&#xcf;" horiz-adv-x="407" 
d="M140 651q49 -2 59 -2h35q26 0 42 4l-1 -653h-135v651zM372 837q-2 -24 -2 -62t2 -55h-129q4 30 4 60t-3 57h128zM162 837q-2 -24 -2 -62t2 -55h-129q4 30 4 60t-3 57h128z" />
    <glyph glyph-name="Eth" unicode="&#xd0;" horiz-adv-x="651" 
d="M238 -12q-79 0 -149 12v268h-48v115h48v271q64 8 149.5 8t154.5 -23.5t116 -66.5q94 -86 93 -240q0 -173 -104 -264q-94 -80 -260 -80zM216 107q32 -6 63.5 -6t68.5 12.5t64 38.5q58 56 57 162q0 175 -127 215q-42 13 -97 13h-14h-15v-159h147v-115h-147v-161z" />
    <glyph glyph-name="Ntilde" unicode="&#xd1;" horiz-adv-x="590" 
d="M49 0q3 17 3 36v613h98l259 -407v374q0 27 -5 33h132q-2 -20 -3 -43v-606h-101l-255 391v-391h-128zM213 764q-46 0 -82 -36h-2l-1 97q33 39 90 39q45 0 83.5 -26.5t79.5 -26.5q58 0 76 41l1 -1l-5 -105q-8 -15 -29.5 -24.5t-45 -9.5t-38 4t-26.5 9.5t-22.5 12.5
t-22.5 12q-27 14 -56 14z" />
    <glyph glyph-name="Ograve" unicode="&#xd2;" horiz-adv-x="758" 
d="M68.5 179.5q-25.5 59.5 -25.5 130.5t23.5 134.5t68 111.5t107.5 77t141 29q135 0 227 -85q99 -91 99 -245q0 -149 -102 -249q-62 -61 -148 -84q-42 -11 -99.5 -11t-117 23.5t-104 66t-70 102zM178 316q0 -45 15.5 -83t41.5 -66q57 -58 147 -57q85 0 138 55q53 57 52 156
q0 93 -50 155q-54 66 -148 66q-91 0 -145 -67q-51 -64 -51 -159zM256 881q83 -8 157 -8l82 -153h-110l-128 158z" />
    <glyph glyph-name="Oacute" unicode="&#xd3;" horiz-adv-x="758" 
d="M68.5 179.5q-25.5 59.5 -25.5 130.5t23.5 134.5t68 111.5t107.5 77t141 29q135 0 227 -85q99 -91 99 -245q0 -149 -102 -249q-62 -61 -148 -84q-42 -11 -99.5 -11t-117 23.5t-104 66t-70 102zM178 316q0 -45 15.5 -83t41.5 -66q57 -58 147 -57q85 0 138 55q53 57 52 156
q0 93 -50 155q-54 66 -148 66q-91 0 -145 -67q-51 -64 -51 -159zM339 873q73 0 156 8v-3l-128 -158h-111z" />
    <glyph glyph-name="Ocircumflex" unicode="&#xd4;" horiz-adv-x="758" 
d="M68.5 179.5q-25.5 59.5 -25.5 130.5t23.5 134.5t68 111.5t107.5 77t141 29q135 0 227 -85q99 -91 99 -245q0 -149 -102 -249q-62 -61 -148 -84q-42 -11 -99.5 -11t-117 23.5t-104 66t-70 102zM178 316q0 -45 15.5 -83t41.5 -66q57 -58 147 -57q85 0 138 55q53 57 52 156
q0 93 -50 155q-54 66 -148 66q-91 0 -145 -67q-51 -64 -51 -159zM326 719q-105 0 -128 -1l-2 1l118 162q12 -1 33 -2h25l59 2l124 -162l-2 -1l-124 1l-55 87z" />
    <glyph glyph-name="Otilde" unicode="&#xd5;" horiz-adv-x="758" 
d="M68.5 179.5q-25.5 59.5 -25.5 130.5t23.5 134.5t68 111.5t107.5 77t141 29q135 0 227 -85q99 -91 99 -245q0 -149 -102 -249q-62 -61 -148 -84q-42 -11 -99.5 -11t-117 23.5t-104 66t-70 102zM178 316q0 -45 15.5 -83t41.5 -66q57 -58 147 -57q85 0 138 55q53 57 52 156
q0 93 -50 155q-54 66 -148 66q-91 0 -145 -67q-51 -64 -51 -159zM296 764q-46 0 -82 -36h-2l-2 97q33 39 91 39q45 0 83.5 -26.5t79.5 -26.5q58 0 76 41l1 -1l-5 -105q-8 -15 -29.5 -24.5t-45 -9.5t-38 4t-26.5 9.5t-22.5 12.5t-22.5 12q-27 14 -56 14z" />
    <glyph glyph-name="Odieresis" unicode="&#xd6;" horiz-adv-x="758" 
d="M68.5 179.5q-25.5 59.5 -25.5 130.5t23.5 134.5t68 111.5t107.5 77t141 29q135 0 227 -85q99 -91 99 -245q0 -149 -102 -249q-62 -61 -148 -84q-42 -11 -99.5 -11t-117 23.5t-104 66t-70 102zM178 316q0 -45 15.5 -83t41.5 -66q57 -58 147 -57q85 0 138 55q53 57 52 156
q0 93 -50 155q-54 66 -148 66q-91 0 -145 -67q-51 -64 -51 -159zM545 837q-2 -24 -2 -62t2 -55h-129q4 30 4 60t-3 57h128zM335 837q-2 -24 -1.5 -62t1.5 -55h-129q4 30 4 60t-3 57h128z" />
    <glyph glyph-name="multiply" unicode="&#xd7;" horiz-adv-x="480" 
d="M37 188q11 6 48 43l69 69l-66 67q-36 37 -47 43l84 87q19 -22 41 -45l70 -70l69 70q37 36 44 47l86 -84q-22 -19 -44 -41l-73 -74l76 -76q22 -23 45 -41l-87 -84q-6 11 -43 47l-73 73l-73 -73q-23 -22 -42 -45z" />
    <glyph glyph-name="Oslash" unicode="&#xd8;" horiz-adv-x="758" 
d="M357 -12q-59 0 -121 26l-56 -97h-96l81 138q-56 43 -89 108t-33 141.5t23.5 140t68 111.5t107.5 77t135 29t130 -22l62 107h96l-85 -146q129 -92 129 -269q0 -149 -102 -249q-97 -95 -250 -95zM443 531q-32 11 -74.5 11t-79 -18.5t-60.5 -48.5q-50 -63 -51 -159
q0 -88 54 -145zM301 125q40 -15 81.5 -15t76.5 14t61 41q53 57 52 156q0 102 -60 165z" />
    <glyph glyph-name="Ugrave" unicode="&#xd9;" horiz-adv-x="612" 
d="M423 652q30 -2 50 -3h41q21 0 43 4v-403q0 -120 -73 -193q-69 -69 -173 -69q-114 0 -184 59q-79 66 -78 191v414q41 -2 77 -2q35 -1 58 3v-421q0 -62 38 -96q35 -31 88 -31q78 0 104 80q9 29 9 71v396zM183 881q83 -8 157 -8l82 -153h-110l-128 158z" />
    <glyph glyph-name="Uacute" unicode="&#xda;" horiz-adv-x="611" 
d="M422 652q30 -2 50 -3h41q21 0 43 4v-403q0 -120 -73 -193q-69 -69 -173 -69q-114 0 -184 59q-79 66 -78 191v414q41 -2 77 -2q35 -1 58 3v-421q0 -62 38 -96q35 -31 88 -31q78 0 104 80q9 29 9 71v396zM265 873q73 0 156 8v-3l-128 -158h-111z" />
    <glyph glyph-name="Ucircumflex" unicode="&#xdb;" horiz-adv-x="611" 
d="M422 652q30 -2 50 -3h41q21 0 43 4v-403q0 -120 -73 -193q-69 -69 -173 -69q-114 0 -184 59q-79 66 -78 191v414q41 -2 77 -2q35 -1 58 3v-421q0 -62 38 -96q35 -31 88 -31q78 0 104 80q9 29 9 71v396zM252 719q-105 0 -128 -1l-2 1l118 162q12 -1 33 -2h25l59 2
l124 -162l-2 -1l-124 1l-55 87z" />
    <glyph glyph-name="Udieresis" unicode="&#xdc;" horiz-adv-x="611" 
d="M422 652q30 -2 50 -3h41q21 0 43 4v-403q0 -120 -73 -193q-69 -69 -173 -69q-114 0 -184 59q-79 66 -78 191v414q41 -2 77 -2q35 -1 58 3v-421q0 -62 38 -96q35 -31 88 -31q78 0 104 80q9 29 9 71v396zM471 837q-2 -24 -2 -62t2 -55h-129q4 30 4 60t-3 57h128zM261 837
q-2 -24 -1.5 -62t1.5 -55h-129q4 30 4 60t-3 57h128z" />
    <glyph glyph-name="Yacute" unicode="&#xdd;" horiz-adv-x="655" 
d="M255 0q6 19 7 89v136q-84 186 -108 232t-40 73q-51 86 -61.5 98.5t-20.5 20.5h168q5 -10 15 -28l118 -250q8 21 19 46q106 229 108 232h161q-25 -20 -61 -84q-11 -19 -22 -43l-110 -230q-19 -42 -32 -75v-140q0 -49 6 -77h-147zM289 873q73 0 157 8l-1 -3l-128 -158h-110
z" />
    <glyph glyph-name="Thorn" unicode="&#xde;" horiz-adv-x="541" 
d="M329.5 109q-52.5 -15 -96 -15t-56.5 1v-95h-124v649h124v-95q151 0 235 -65q80 -62 80 -165q0 -111 -74 -171q-36 -29 -88.5 -44zM276 431q-28 10 -55 10t-44 -2v-232q19 -1 35 -1q71 0 111 27.5t40 79.5q0 56 -40 91q-19 17 -47 27z" />
    <glyph glyph-name="germandbls" unicode="&#xdf;" horiz-adv-x="629" 
d="M383 104q79 0 79 71q0 45 -93 92q-56 33 -73 54q-28 34 -28.5 65t10 53.5t28 42t24.5 30t11 19.5q7 16 7 27.5t-4 19t-12 13.5q-18 13 -43 13t-43 -9t-32 -31q-28 -45 -27 -149v-437q0 -74 -11 -106q-17 -51 -45 -71l-98 64v3q22 15 29 71q5 49 5 193v264q0 310 232 310
q72 0 121 -40t49 -99q0 -40 -27 -76q-11 -14 -24 -27t-18 -19.5t-8 -10.5q-5 -10 -5.5 -17.5t4 -14t14.5 -15.5q24 -21 64 -45.5t60.5 -44.5t32.5 -42q21 -39 20.5 -83.5t-12 -74t-35.5 -52.5q-52 -52 -142 -52q-81 0 -121 27l-5 122l2 2q24 -24 52 -32t62 -8z" />
    <glyph glyph-name="agrave" unicode="&#xe0;" horiz-adv-x="556" 
d="M386 30q-69 -38 -125.5 -37.5t-96.5 11t-68 30.5q-57 42 -57 120q0 70 70 117q75 51 204 51h19q6 0 13.5 -0.5t13.5 -1.5q-4 78 -68 91q-21 4 -44.5 4.5t-46 -4t-44.5 -11.5q-47 -15 -68 -34l-1 1l-15 108q86 45 189 45q159 0 204 -115q14 -37 14 -82v-177q0 -57 40 -77
l-88 -81q-28 14 -45 42zM359 232q-13 2 -27 2h-20q-108 0 -137 -47q-9 -14 -9 -30t6 -28t19 -20q25 -15 75 -14.5t94 24.5q0 5 -1 11v102zM114 742q83 -8 156 -8l82 -153h-110l-128 158v3z" />
    <glyph glyph-name="aacute" unicode="&#xe1;" horiz-adv-x="556" 
d="M386 30q-69 -38 -125.5 -37.5t-96.5 11t-68 30.5q-57 42 -57 120q0 70 70 117q75 51 204 51h19q6 0 13.5 -0.5t13.5 -1.5q-4 78 -68 91q-21 4 -44.5 4.5t-46 -4t-44.5 -11.5q-47 -15 -68 -34l-1 1l-15 108q86 45 189 45q159 0 204 -115q14 -37 14 -82v-177q0 -57 40 -77
l-88 -81q-28 14 -45 42zM359 232q-13 2 -27 2h-20q-108 0 -137 -47q-9 -14 -9 -30t6 -28t19 -20q25 -15 75 -14.5t94 24.5q0 5 -1 11v102zM255 734q73 0 156 8v-3l-128 -158h-111z" />
    <glyph glyph-name="acircumflex" unicode="&#xe2;" horiz-adv-x="556" 
d="M386 30q-69 -38 -125.5 -37.5t-96.5 11t-68 30.5q-57 42 -57 120q0 70 70 117q75 51 204 51h19q6 0 13.5 -0.5t13.5 -1.5q-4 78 -68 91q-21 4 -44.5 4.5t-46 -4t-44.5 -11.5q-47 -15 -68 -34l-1 1l-15 108q86 45 189 45q159 0 204 -115q14 -37 14 -82v-177q0 -57 40 -77
l-88 -81q-28 14 -45 42zM359 232q-13 2 -27 2h-20q-108 0 -137 -47q-9 -14 -9 -30t6 -28t19 -20q25 -15 75 -14.5t94 24.5q0 5 -1 11v102zM213 580q-105 0 -129 -1l-1 1l118 162q12 -1 32 -2h25l59 2l125 -162l-2 -1l-125 1l-55 87z" />
    <glyph glyph-name="atilde" unicode="&#xe3;" horiz-adv-x="556" 
d="M386 30q-69 -38 -125.5 -37.5t-96.5 11t-68 30.5q-57 42 -57 120q0 70 70 117q75 51 204 51h19q6 0 13.5 -0.5t13.5 -1.5q-4 78 -68 91q-21 4 -44.5 4.5t-46 -4t-44.5 -11.5q-47 -15 -68 -34l-1 1l-15 108q86 45 189 45q159 0 204 -115q14 -37 14 -82v-177q0 -57 40 -77
l-88 -81q-28 14 -45 42zM359 232q-13 2 -27 2h-20q-108 0 -137 -47q-9 -14 -9 -30t6 -28t19 -20q25 -15 75 -14.5t94 24.5q0 5 -1 11v102zM183 625q-46 0 -82 -37l-2 1l-2 97q33 39 90 39q45 0 84 -26.5t80 -26.5q58 0 76 41l1 -1l-5 -106q-8 -15 -29.5 -24t-45 -9t-38 4
t-27 9.5t-23 12t-21.5 12.5q-27 14 -56 14z" />
    <glyph glyph-name="adieresis" unicode="&#xe4;" horiz-adv-x="556" 
d="M386 30q-69 -38 -125.5 -37.5t-96.5 11t-68 30.5q-57 42 -57 120q0 70 70 117q75 51 204 51h19q6 0 13.5 -0.5t13.5 -1.5q-4 78 -68 91q-21 4 -44.5 4.5t-46 -4t-44.5 -11.5q-47 -15 -68 -34l-1 1l-15 108q86 45 189 45q159 0 204 -115q14 -37 14 -82v-177q0 -57 40 -77
l-88 -81q-28 14 -45 42zM359 232q-13 2 -27 2h-20q-108 0 -137 -47q-9 -14 -9 -30t6 -28t19 -20q25 -15 75 -14.5t94 24.5q0 5 -1 11v102zM432 698q-2 -24 -2 -62t2 -55h-129q4 30 4 59.5t-3 57.5h128zM222 698q-2 -24 -2 -62t2 -55h-129q4 30 4 59.5t-3 57.5h128z" />
    <glyph glyph-name="aring" unicode="&#xe5;" horiz-adv-x="555" 
d="M385 30q-69 -38 -125.5 -37.5t-96.5 11t-68 30.5q-57 42 -57 120q0 70 70 117q75 51 204 51h19q6 0 13.5 -0.5t13.5 -1.5q-4 78 -68 91q-21 4 -44.5 4.5t-46 -4t-44.5 -11.5q-47 -15 -68 -34l-1 1l-15 108q86 45 189 45q159 0 204 -115q14 -37 14 -82v-177q0 -57 40 -77
l-88 -81q-28 14 -45 42zM358 232q-13 2 -27 2h-20q-108 0 -137 -47q-9 -14 -9 -30t6 -28t19 -20q25 -15 75 -14.5t94 24.5q0 5 -1 11v102zM258 576q-30 0 -54 8t-42 22q-37 31 -37 84q0 52 37 85t103 34q59 0 96 -34q37 -33 36 -82q0 -54 -39 -86q-38 -31 -100 -31zM236 649
q11 -4 24 -4t23 3.5t18 10.5q17 14 17 28.5t-3.5 23t-10.5 16.5q-17 16 -38 15.5t-32 -5t-18 -10.5q-14 -14 -13.5 -28.5t4 -23.5t11 -15.5t18.5 -10.5z" />
    <glyph glyph-name="ae" unicode="&#xe6;" horiz-adv-x="885" 
d="M415 51q-75 -58 -181 -58q-89 0 -142 48q-52 47 -52 121q0 81 73 135q74 55 185 55q15 0 23 -1q-18 69 -103 68q-57 0 -105 -40q-15 -13 -27 -28l-1 1l-15 113q70 55 173.5 55t160.5 -73q75 73 199 73q99 0 166 -66q68 -66 68 -170q0 -28 -6 -52q-54 -15 -204 -14h-81
h-59h-40q13 -53 60.5 -82t133.5 -29t149 52q-2 -54 -7 -128q-39 -25 -119 -35q-24 -3 -48 -3q-125 0 -201 58zM457 325q13 0 31 -1h35h35h26h55l45 2q18 0 31 1q-17 56 -83 75q-21 6 -43.5 6t-42.5 -6t-37 -16q-34 -22 -52 -61zM353 132q-28 48 -29 118q-10 1 -33 1
t-49.5 -5.5t-44.5 -16.5q-37 -21 -37 -55.5t23.5 -55.5t59.5 -21q68 0 110 35z" />
    <glyph glyph-name="ccedilla" unicode="&#xe7;" horiz-adv-x="516" 
d="M310 -7q4 -26 3.5 -67t-11 -67.5t-25.5 -35.5q-29 -19 -105 -34l-3 3q34 48 35 208l16 3q-81 21 -129 86t-48 158q0 118 71 193q76 80 204 80q90 0 151 -40l-19 -125l-4 1q-23 28 -49 37q-42 15 -84 15t-66 -11t-41 -30q-34 -39 -34 -103q0 -114 79 -150
q27 -12 57.5 -11.5t53.5 5.5t41 15q40 20 54 45l3 -1l12 -120q-53 -52 -162 -54z" />
    <glyph glyph-name="egrave" unicode="&#xe8;" horiz-adv-x="594" 
d="M43 251q0 57 19.5 106t55.5 85q76 78 199 78q104 0 167 -69q62 -66 62 -167q0 -39 -6 -53q-49 -14 -198 -13h-172q13 -52 59 -81.5t121 -29.5q78 0 133 28q15 7 22 14q-1 -21 -3 -42l-5 -76q-37 -25 -120 -35q-24 -3 -47 -3q-124 0 -205 72q-82 73 -82 186zM416 312
q-20 105 -114 105q-74 0 -113 -63q-12 -20 -18 -43q12 0 29 -1h36q18 0 35 -1h28q25 0 49 1l40 1q15 0 28 1zM146 742q83 -8 157 -8l82 -153h-110l-128 158z" />
    <glyph glyph-name="eacute" unicode="&#xe9;" horiz-adv-x="594" 
d="M43 251q0 57 19.5 106t55.5 85q76 78 199 78q104 0 167 -69q62 -66 62 -167q0 -39 -6 -53q-49 -14 -198 -13h-172q13 -52 59 -81.5t121 -29.5q78 0 133 28q15 7 22 14q-1 -21 -3 -42l-5 -76q-37 -25 -120 -35q-24 -3 -47 -3q-124 0 -205 72q-82 73 -82 186zM416 312
q-20 105 -114 105q-74 0 -113 -63q-12 -20 -18 -43q12 0 29 -1h36q18 0 35 -1h28q25 0 49 1l40 1q15 0 28 1zM288 734q73 0 156 8l-1 -3l-128 -158h-110z" />
    <glyph glyph-name="ecircumflex" unicode="&#xea;" horiz-adv-x="594" 
d="M43 251q0 57 19.5 106t55.5 85q76 78 199 78q104 0 167 -69q62 -66 62 -167q0 -39 -6 -53q-49 -14 -198 -13h-172q13 -52 59 -81.5t121 -29.5q78 0 133 28q15 7 22 14q-1 -21 -3 -42l-5 -76q-37 -25 -120 -35q-24 -3 -47 -3q-124 0 -205 72q-82 73 -82 186zM416 312
q-20 105 -114 105q-74 0 -113 -63q-12 -20 -18 -43q12 0 29 -1h36q18 0 35 -1h28q25 0 49 1l40 1q15 0 28 1zM246 580q-105 0 -129 -1l-1 1l118 162q12 -1 32 -2h25l59 2l125 -162l-2 -1l-125 1l-55 87z" />
    <glyph glyph-name="edieresis" unicode="&#xeb;" horiz-adv-x="594" 
d="M43 251q0 57 19.5 106t55.5 85q76 78 199 78q104 0 167 -69q62 -66 62 -167q0 -39 -6 -53q-49 -14 -198 -13h-172q13 -52 59 -81.5t121 -29.5q78 0 133 28q15 7 22 14q-1 -21 -3 -42l-5 -76q-37 -25 -120 -35q-24 -3 -47 -3q-124 0 -205 72q-82 73 -82 186zM416 312
q-20 105 -114 105q-74 0 -113 -63q-12 -20 -18 -43q12 0 29 -1h36q18 0 35 -1h28q25 0 49 1l40 1q15 0 28 1zM465 698q-2 -24 -2 -62t2 -55h-130q4 30 4 59.5t-3 57.5h129zM255 698q-2 -24 -2 -62t2 -55h-130q4 30 4 59.5t-3 57.5h129z" />
    <glyph glyph-name="igrave" unicode="&#xec;" horiz-adv-x="311" 
d="M247 55q0 -42 2 -55h-125v510h123v-455zM32 742q83 -8 156 -8l83 -153h-110l-128 158z" />
    <glyph glyph-name="iacute" unicode="&#xed;" horiz-adv-x="307" 
d="M190 55q0 -42 2 -55h-125v510h123v-455zM116 734q73 0 157 8l-1 -3l-128 -158h-110z" />
    <glyph glyph-name="icircumflex" unicode="&#xee;" horiz-adv-x="428" 
d="M279 55q0 -42 2 -55h-125v510h123v-455zM163 580q-105 0 -128 -1l-2 1l119 162q12 -1 32 -2h25l59 2l124 -162l-2 -1l-124 1l-55 87z" />
    <glyph glyph-name="idieresis" unicode="&#xef;" horiz-adv-x="415" 
d="M272 55q0 -42 2 -55h-125v510h123v-455zM376 698q-2 -24 -2 -62t2 -55h-130q4 30 4 59.5t-3 57.5h129zM166 698q-2 -24 -2 -62t2 -55h-130q4 30 4 59.5t-3 57.5h129z" />
    <glyph glyph-name="eth" unicode="&#xf0;" horiz-adv-x="571" 
d="M388 567q134 -158 134 -321q0 -110 -73 -184q-70 -70 -170 -69q-101 0 -170 66q-67 65 -67 157q0 109 73 169q63 52 161 52q35 0 76 -15q-29 51 -74 104l-150 -57l-28 89l108 39q-27 25 -57 50l-65 51h157q41 -29 76 -60l117 42l27 -84zM403 242v8q-21 42 -50.5 58.5
t-62 16.5t-52.5 -6.5t-35 -17.5q-35 -27 -35 -74q0 -48 35 -83q35 -36 87 -37q45 0 77 32q36 37 36 103z" />
    <glyph glyph-name="ntilde" unicode="&#xf1;" horiz-adv-x="543" 
d="M170 62q0 -43 4 -62h-122v510h118v-43q64 53 138 53q80 0 128 -54.5t48 -143.5v-194q0 -83 2.5 -99.5t6.5 -21.5t7 -8l-1 -2q-40 3 -58 3h-34q-16 0 -42 -1v266q0 143 -87 143q-64 0 -108 -67v-279zM206 625q-46 0 -82 -37l-2 1l-2 97q33 39 91 39q45 0 83.5 -26.5
t79.5 -26.5q58 0 76 41l1 -1l-5 -106q-8 -15 -29.5 -24t-45 -9t-38 4t-26.5 9.5t-22.5 12t-22.5 12.5q-27 14 -56 14z" />
    <glyph glyph-name="ograve" unicode="&#xf2;" horiz-adv-x="612" 
d="M43 252q0 54 18 103t52 86q75 79 194 79t189 -75q67 -71 67 -185t-69 -188q-73 -79 -193 -79q-124 0 -194 77q-64 71 -64 182zM161 255q0 -31 10.5 -59.5t29.5 -49.5q41 -44 106 -44q61 0 97 44q34 42 34 109q0 68 -35 110q-38 45 -103 45q-66 0 -104 -48
q-34 -44 -35 -107zM152 742q83 -8 156 -8l82 -153h-110l-128 158v3z" />
    <glyph glyph-name="oacute" unicode="&#xf3;" horiz-adv-x="612" 
d="M43 252q0 54 18 103t52 86q75 79 194 79t189 -75q67 -71 67 -185t-69 -188q-73 -79 -193 -79q-124 0 -194 77q-64 71 -64 182zM161 255q0 -31 10.5 -59.5t29.5 -49.5q41 -44 106 -44q61 0 97 44q34 42 34 109q0 68 -35 110q-38 45 -103 45q-66 0 -104 -48
q-34 -44 -35 -107zM293 734q73 0 156 8l-1 -3l-128 -158h-110z" />
    <glyph glyph-name="ocircumflex" unicode="&#xf4;" horiz-adv-x="612" 
d="M43 252q0 54 18 103t52 86q75 79 194 79t189 -75q67 -71 67 -185t-69 -188q-73 -79 -193 -79q-124 0 -194 77q-64 71 -64 182zM161 255q0 -31 10.5 -59.5t29.5 -49.5q41 -44 106 -44q61 0 97 44q34 42 34 109q0 68 -35 110q-38 45 -103 45q-66 0 -104 -48
q-34 -44 -35 -107zM251 580q-105 0 -129 -1l-1 1l118 162q12 -1 32 -2h25l59 2l125 -162l-2 -1l-125 1l-55 87z" />
    <glyph glyph-name="otilde" unicode="&#xf5;" horiz-adv-x="612" 
d="M43 252q0 54 18 103t52 86q75 79 194 79t189 -75q67 -71 67 -185t-69 -188q-73 -79 -193 -79q-124 0 -194 77q-64 71 -64 182zM161 255q0 -31 10.5 -59.5t29.5 -49.5q41 -44 106 -44q61 0 97 44q34 42 34 109q0 68 -35 110q-38 45 -103 45q-66 0 -104 -48
q-34 -44 -35 -107zM220 625q-46 0 -81 -37l-2 1l-2 97q33 39 90 39q45 0 83.5 -26.5t79.5 -26.5q58 0 77 41l1 -1l-5 -106q-8 -15 -30 -24t-45.5 -9t-37.5 4t-26.5 9.5t-23 12t-21.5 12.5q-28 14 -57 14z" />
    <glyph glyph-name="odieresis" unicode="&#xf6;" horiz-adv-x="612" 
d="M43 252q0 54 18 103t52 86q75 79 194 79t189 -75q67 -71 67 -185t-69 -188q-73 -79 -193 -79q-124 0 -194 77q-64 71 -64 182zM161 255q0 -31 10.5 -59.5t29.5 -49.5q41 -44 106 -44q61 0 97 44q34 42 34 109q0 68 -35 110q-38 45 -103 45q-66 0 -104 -48
q-34 -44 -35 -107zM470 698q-2 -24 -2 -62t2 -55h-129q4 30 3.5 59.5t-3.5 57.5h129zM260 698q-2 -24 -2 -62t2 -55h-129q4 30 3.5 59.5t-2.5 57.5h128z" />
    <glyph glyph-name="divide" unicode="&#xf7;" horiz-adv-x="540" 
d="M337 510v-34q0 -26 2 -44h-142q4 30 4 53v31q0 9 -0.5 17.5t-1.5 15.5l-1 12h141q-1 -19 -1 -30zM105 244q-37 0 -60 -2l1 120q11 -3 65 -3h312q53 0 64 3l2 -120q-23 2 -61 2h-323zM337 125v-35q0 -25 2 -43h-142q4 30 4 53v32q0 8 -0.5 16.5t-1.5 15.5l-1 12h141
q-1 -19 -1 -30z" />
    <glyph glyph-name="oslash" unicode="&#xf8;" horiz-adv-x="612" 
d="M411.5 14q-48.5 -21 -105 -21t-102.5 14l-50 -90h-86l69 125q-94 73 -94 208q0 115 70 191q75 79 194 79q45 0 86 -12l40 73h86l-58 -106q49 -35 75.5 -90.5t26.5 -117t-17.5 -110.5t-51.5 -85.5t-82.5 -57.5zM337 406q-17 4 -44.5 4t-53.5 -13q-25 -13 -43 -35
q-34 -44 -35 -104q0 -64 36 -107zM259 109q23 -7 51 -7t52.5 11.5t41.5 32.5q34 42 34 109q0 69 -37 112z" />
    <glyph glyph-name="ugrave" unicode="&#xf9;" horiz-adv-x="535" 
d="M355 44q-62 -52 -136 -51q-79 0 -124 53q-43 52 -43 142v194q0 98 -4 112t-6 18q22 -2 47 -2h40q16 0 43 2v-283q0 -101 55 -117q17 -5 36 -5q58 0 92 42v361h122v-448q0 -43 3 -62h-125v44zM108 742q83 -8 156 -8l83 -153h-111l-128 158v3z" />
    <glyph glyph-name="uacute" unicode="&#xfa;" horiz-adv-x="535" 
d="M355 44q-62 -52 -136 -51q-79 0 -124 53q-43 52 -43 142v194q0 98 -4 112t-6 18q22 -2 47 -2h40q16 0 43 2v-283q0 -101 55 -117q17 -5 36 -5q58 0 92 42v361h122v-448q0 -43 3 -62h-125v44zM249 734q73 0 156 8v-3l-128 -158h-111z" />
    <glyph glyph-name="ucircumflex" unicode="&#xfb;" horiz-adv-x="535" 
d="M355 44q-62 -52 -136 -51q-79 0 -124 53q-43 52 -43 142v194q0 98 -4 112t-6 18q22 -2 47 -2h40q16 0 43 2v-283q0 -101 55 -117q17 -5 36 -5q58 0 92 42v361h122v-448q0 -43 3 -62h-125v44zM207 580q-105 0 -128 -1l-2 1l118 162q12 -1 33 -2h24l59 2l125 -162l-2 -1
l-124 1l-56 87z" />
    <glyph glyph-name="udieresis" unicode="&#xfc;" horiz-adv-x="535" 
d="M355 44q-62 -52 -136 -51q-79 0 -124 53q-43 52 -43 142v194q0 98 -4 112t-6 18q22 -2 47 -2h40q16 0 43 2v-283q0 -101 55 -117q17 -5 36 -5q58 0 92 42v361h122v-448q0 -43 3 -62h-125v44zM426 698q-2 -24 -2 -62t2 -55h-129q4 30 4 59.5t-3 57.5h128zM216 698
q-2 -24 -2 -62t2 -55h-129q4 30 4 59.5t-3 57.5h128z" />
    <glyph glyph-name="yacute" unicode="&#xfd;" horiz-adv-x="577" 
d="M47 -170l32 26q73 59 121 174l22 54l-187 426h137l117 -295l109 295h141q-25 -35 -62 -131l-74 -181q-147 -346 -230 -412zM293 734q73 0 156 8l-1 -3l-128 -158h-110z" />
    <glyph glyph-name="thorn" unicode="&#xfe;" horiz-adv-x="572" 
d="M328 -1q-28 -8 -71.5 -8t-83.5 18v-142q0 -42 2 -55h-122v886h122q-2 -13 -2 -54v-153q55 29 108.5 29t96 -15.5t75.5 -47.5q71 -70 70 -195q0 -124 -85 -201q-50 -45 -110 -62zM173 143q40 -36 91 -36q62 0 100 43q40 44 40 120q0 96 -77 127q-25 10 -51.5 10.5t-55 -11
t-47.5 -32.5v-221z" />
    <glyph glyph-name="ydieresis" unicode="&#xff;" horiz-adv-x="577" 
d="M47 -170l32 26q73 59 121 174l22 54l-187 426h137l117 -295l109 295h141q-25 -35 -62 -131l-74 -181q-147 -346 -230 -412zM470 698q-2 -24 -2 -62t2 -55h-130q4 30 4 59.5t-3 57.5h129zM260 698q-2 -24 -2 -62t2 -55h-130q4 30 4 59.5t-3 57.5h129z" />
    <glyph glyph-name="NameMe.144" horiz-adv-x="730" 
d="M684 612v-135h-651v135l90 81h474z" />
    <glyph glyph-name="uni6771" unicode="&#x6771;" horiz-adv-x="1000" 
d="M191 358v-67h242v67h-242zM191 436h242v57h-242v-57zM793 358h-228v-67h228v67zM793 436v57h-228v-57h228zM430 789h132v-53h311l87 -49v-82h-398v-45h328v-339h-268l352 -161l-48 -71l-364 167v-156h-132v158l-368 -169l-48 71l352 161h-268v339h332v45h-397v82l90 49
h307v53z" />
    <glyph glyph-name="uni4EAC" unicode="&#x4eac;" horiz-adv-x="1000" 
d="M960 605h-927v82l90 49h307v53h132v-53h311l87 -49v-82zM171 560h639v-339h-224v-221h-177v221h-238v339zM272 488v-186h438v186h-438zM368 182l-201 -182h-152l201 182h152zM624 182h152l201 -182h-152z" />
    <glyph glyph-name="uni89D2" unicode="&#x89d2;" horiz-adv-x="1000" 
d="M243 231h267v81h-243zM837 231v81h-195v-81h195zM837 499h-195v-76h195v76zM323 499l-23 -76h210v76h-187zM580 670h-366l-40 -82h-121l97 201h512l57 -64l-41 -111h196l98 -105v-509h-135v119h-628l-35 -119h-150l183 614h352z" />
    <glyph glyph-name="uni90FD" unicode="&#x90fd;" horiz-adv-x="1000" 
d="M578 330v-330h-432v222l-50 -61l-76 76l153 188h-153v84l84 76v60h-84v86h84v58h102v-58h94v-86h-94v-55h102l160 196l76 -76l-97 -120h44l87 -81v-84h-266l-78 -95h344zM507 217v48h-282v-48h282zM507 136h-282v-57h282v57zM739 653v-362h116v95h-102v87l93 180h-107z
M963 789v-136l-93 -180h102v-192l-96 -123h-137v-158h-124v789h348z" />
    <glyph glyph-name="uni65B9" unicode="&#x65b9;" horiz-adv-x="1000" 
d="M33 571v82l90 49h307v87h132v-87h311l87 -49v-82h-608l-36 -123h504l76 -80v-278l-86 -90h-198l-50 50v62h220v208h-503l-93 -320h-132l166 571h-187z" />
    <glyph glyph-name="NameMe.144.1" horiz-adv-x="125" 
 />
    <glyph glyph-name="Amacron" unicode="&#x100;" horiz-adv-x="666" 
d="M170 -4q-42 4 -98 4h-38l212 595q14 40 14 47v8v1q32 -1 68 -2q29 0 70 1v-1q-1 -2 -1 -5q0 -9 15 -49l217 -596h-23l-25 1h-22h-76l-46 141h-221zM399 258l-74 227l-72 -227h146zM499 830q-2 -24 -2 -37v-17q0 -4 2 -29h-330l2 13q2 16 2 29t-3 41h329z" />
    <glyph glyph-name="amacron" unicode="&#x101;" horiz-adv-x="555" 
d="M385 30q-69 -38 -125.5 -37.5t-96.5 11t-68 30.5q-57 42 -57 120q0 70 70 117q75 51 204 51h19q6 0 13.5 -0.5t13.5 -1.5q-4 78 -68 91q-21 4 -44.5 4.5t-46 -4t-44.5 -11.5q-47 -15 -68 -34l-1 1l-15 108q86 45 189 45q159 0 204 -115q14 -37 14 -82v-177q0 -57 40 -77
l-88 -81q-28 14 -45 42zM358 232q-13 2 -27 2h-20q-108 0 -137 -47q-9 -14 -9 -30t6 -28t19 -20q25 -15 75 -14.5t94 24.5q0 5 -1 11v102zM426 744q-2 -24 -2 -37v-17q0 -4 2 -29h-329l1 12q2 16 2.5 29.5t-2.5 41.5h328z" />
    <glyph glyph-name="Abreve" unicode="&#x102;" horiz-adv-x="665" 
d="M169 -4q-42 4 -98 4h-38l212 595q14 40 14 47v8v1q32 -1 68 -2q29 0 70 1v-1q-1 -2 -1 -5q0 -9 15 -49l217 -596h-23l-25 1h-22h-76l-46 141h-221zM398 258l-74 227l-72 -227h146zM498 882q5 -5 5 -33.5t-10 -56t-31 -49.5q-47 -49 -132 -49t-132 49q-41 43 -41 105
q0 29 5 34l64 -2q5 -39 19 -57q29 -41 85 -41q57 0 83 38q15 21 21 60z" />
    <glyph glyph-name="abreve" unicode="&#x103;" horiz-adv-x="553" 
d="M384 30q-69 -38 -125.5 -37.5t-96.5 11t-68 30.5q-57 42 -57 120q0 70 70 117q75 51 204 51h19q6 0 13.5 -0.5t13.5 -1.5q-4 78 -68 91q-21 4 -44.5 4.5t-46 -4t-44.5 -11.5q-47 -15 -68 -34l-1 1l-15 108q86 45 189 45q159 0 204 -115q14 -37 14 -82v-177q0 -57 40 -77
l-88 -81q-28 14 -45 42zM357 232q-13 2 -27 2h-20q-108 0 -137 -47q-9 -14 -9 -30t6 -28t19 -20q25 -15 75 -14.5t94 24.5q0 5 -1 11v102zM429 786q5 -5 4.5 -33t-10.5 -56t-31 -50q-47 -49 -132 -49t-132 49q-41 43 -41 105q0 29 5 34l65 -1q5 -39 18 -57q29 -41 85 -41
q57 0 84 38q15 21 20 60z" />
    <glyph glyph-name="Aogonek" unicode="&#x104;" horiz-adv-x="666" 
d="M170 -4q-42 4 -98 4h-38l212 595q14 40 14 47v8v1q32 -1 68 -2q29 0 70 1v-1q-1 -2 -1 -5q0 -9 15 -49l217 -596q-53 0 -91 -34q-36 -32 -36 -71q0 -51 94 -52q18 0 28 8l1 -2l-50 -119q-130 0 -176 79q-17 29 -16 72q0 50 45 101q19 21 48 40l-39 120h-221zM399 258
l-74 227l-72 -227h146z" />
    <glyph glyph-name="aogonek" unicode="&#x105;" horiz-adv-x="555" 
d="M358 232q-13 2 -27 2h-20q-108 0 -137 -47q-9 -14 -9 -30t6 -28t19 -20q25 -15 75 -14.5t94 24.5q0 5 -1 11v102zM441 -2q-43 -41 -54 -63q-12 -24 -12 -41q0 -51 93 -52q18 0 29 8l1 -2l-51 -119q-130 0 -175 79q-17 29 -17 72q0 36 34 87q13 19 31 36
q-38 -11 -77.5 -10.5t-79.5 11t-68 30.5q-57 42 -57 120q0 70 70 117q75 51 204 51h19q6 0 13.5 -0.5t13.5 -1.5q-4 78 -68 91q-21 4 -44.5 4.5t-46 -4t-44.5 -11.5q-47 -15 -68 -34l-1 1l-15 108q86 45 189 45q159 0 204 -115q14 -37 14 -82v-177q0 -57 40 -77z" />
    <glyph glyph-name="Cacute" unicode="&#x106;" horiz-adv-x="602" 
d="M390 662q91 0 156 -32v-150l-1 -1q-27 42 -115 56q-26 4 -65.5 4.5t-78 -14.5t-62.5 -43q-47 -53 -47 -151q0 -115 60 -171q50 -47 132 -47q93 0 150 39q21 14 36 36l1 -1v-137q-75 -62 -201 -62q-149 0 -234 95q-81 90 -81 239q0 158 89 248q90 92 261 92zM305 873
q73 0 156 8v-3l-128 -158h-110z" />
    <glyph glyph-name="cacute" unicode="&#x107;" horiz-adv-x="511" 
d="M468 47q-55 -55 -172 -54q-113 0 -185 69q-73 70 -72 185q0 118 71 193q76 80 204 80q90 0 151 -40l-19 -125l-4 1q-23 28 -49 37q-42 15 -84 15t-66 -11t-41 -30q-34 -39 -34 -103q0 -114 79 -150q27 -12 57.5 -11.5t53.5 5.5t41 15q40 20 54 45l3 -1zM276 734
q73 0 157 8l-1 -3l-128 -158h-110z" />
    <glyph glyph-name="Ccircumflex" unicode="&#x108;" horiz-adv-x="602" 
d="M390 662q91 0 156 -32v-150l-1 -1q-27 42 -115 56q-26 4 -65.5 4.5t-78 -14.5t-62.5 -43q-47 -53 -47 -151q0 -115 60 -171q50 -47 132 -47q93 0 150 39q21 14 36 36l1 -1v-137q-75 -62 -201 -62q-149 0 -234 95q-81 90 -81 239q0 158 89 248q90 92 261 92zM292 719
q-105 0 -128 -1l-2 1l119 162q12 -1 32 -2h25l59 2l124 -162l-2 -1l-124 1l-55 87z" />
    <glyph glyph-name="ccircumflex" unicode="&#x109;" horiz-adv-x="511" 
d="M468 47q-55 -55 -172 -54q-113 0 -185 69q-73 70 -72 185q0 118 71 193q76 80 204 80q90 0 151 -40l-19 -125l-4 1q-23 28 -49 37q-42 15 -84 15t-66 -11t-41 -30q-34 -39 -34 -103q0 -114 79 -150q27 -12 57.5 -11.5t53.5 5.5t41 15q40 20 54 45l3 -1zM234 580
q-105 0 -128 -1l-2 1l119 162q12 -1 32 -2h25l59 2l124 -162l-2 -1l-124 1l-55 87z" />
    <glyph glyph-name="Cdotaccent" unicode="&#x10a;" horiz-adv-x="602" 
d="M390 662q91 0 156 -32v-150l-1 -1q-27 42 -115 56q-26 4 -65.5 4.5t-78 -14.5t-62.5 -43q-47 -53 -47 -151q0 -115 60 -171q50 -47 132 -47q93 0 150 39q21 14 36 36l1 -1v-137q-75 -62 -201 -62q-149 0 -234 95q-81 90 -81 239q0 158 89 248q90 92 261 92zM259 790
q32 51 72 96l94 -74q-24 -31 -34 -43l-17 -24q-8 -11 -17 -25z" />
    <glyph glyph-name="cdotaccent" unicode="&#x10b;" horiz-adv-x="511" 
d="M468 47q-55 -55 -172 -54q-113 0 -185 69q-73 70 -72 185q0 118 71 193q76 80 204 80q90 0 151 -40l-19 -125l-4 1q-23 28 -49 37q-42 15 -84 15t-66 -11t-41 -30q-34 -39 -34 -103q0 -114 79 -150q27 -12 57.5 -11.5t53.5 5.5t41 15q40 20 54 45l3 -1zM201 652
q32 51 72 96l94 -74q-24 -31 -34 -43l-17 -24q-8 -11 -17 -25z" />
    <glyph glyph-name="Ccaron" unicode="&#x10c;" horiz-adv-x="602" 
d="M390 662q91 0 156 -32v-150l-1 -1q-27 42 -115 56q-26 4 -65.5 4.5t-78 -14.5t-62.5 -43q-47 -53 -47 -151q0 -115 60 -171q50 -47 132 -47q93 0 150 39q21 14 36 36l1 -1v-137q-75 -62 -201 -62q-149 0 -234 95q-81 90 -81 239q0 158 89 248q90 92 261 92zM338 668h-25
q-21 0 -32 -1l-119 162l2 1q23 -1 128 -1l48 -87l55 87l124 1l2 -1l-124 -162z" />
    <glyph glyph-name="ccaron" unicode="&#x10d;" horiz-adv-x="511" 
d="M468 47q-55 -55 -172 -54q-113 0 -185 69q-73 70 -72 185q0 118 71 193q76 80 204 80q90 0 151 -40l-19 -125l-4 1q-23 28 -49 37q-42 15 -84 15t-66 -11t-41 -30q-34 -39 -34 -103q0 -114 79 -150q27 -12 57.5 -11.5t53.5 5.5t41 15q40 20 54 45l3 -1zM280 580h-25
q-21 0 -32 -1l-119 161l2 2q23 -1 128 -2l48 -86l55 86l124 2l2 -2l-124 -161z" />
    <glyph glyph-name="Dcaron" unicode="&#x10e;" horiz-adv-x="613" 
d="M200 -12q-79 0 -149 12v654q64 8 149.5 8t154.5 -23.5t116 -66.5q94 -86 93 -240q0 -173 -104 -264q-94 -80 -260 -80zM178 107q32 -6 63.5 -6t68.5 12.5t64 38.5q58 56 57 162q0 175 -127 215q-42 13 -97 13h-14h-15v-435zM306 668h-25q-21 0 -32 -1l-119 162l2 1
q23 -1 128 -1l48 -87l55 87l124 1l2 -1l-124 -162z" />
    <glyph glyph-name="dcaron" unicode="&#x10f;" horiz-adv-x="734" 
d="M418 27q-62 -35 -124 -34.5t-108.5 20t-79.5 53.5q-67 70 -67 183q0 116 78 193q79 78 201 78q38 0 74 -10v218h120v-522q0 -65 6 -85t13.5 -29.5t19.5 -17.5l-92 -81q-25 13 -41 34zM317 105q41 0 75 16v270q-34 14 -74 14t-68.5 -10.5t-49.5 -29.5q-43 -40 -43 -104
q0 -70 39 -112q42 -44 121 -44zM688 706q5 -51 5 -77.5t-1.5 -51t-4.5 -43.5q-7 -42 -18 -49q-12 -8 -41 -13l-54 -12l-3 3q8 14 8 88v49q0 50 -3 86z" />
    <glyph glyph-name="Dcroat" unicode="&#x110;" horiz-adv-x="649" 
d="M236 -12q-79 0 -149 12v268h-48v115h48v271q64 8 149.5 8t154.5 -23.5t116 -66.5q94 -86 93 -240q0 -173 -104 -264q-94 -80 -260 -80zM214 107q32 -6 63.5 -6t68.5 12.5t64 38.5q58 56 57 162q0 175 -127 215q-42 13 -97 13h-14h-15v-159h147v-115h-147v-161z" />
    <glyph glyph-name="dcroat" unicode="&#x111;" horiz-adv-x="607" 
d="M418 27q-62 -35 -124 -34.5t-108.5 20t-79.5 53.5q-67 70 -67 183q0 116 78 193q79 78 201 78q38 0 74 -10v62h-35q-37 0 -61 -3l2 92q11 -3 64 -3h30v70h120v-70q46 0 56 3l1 -92q-23 2 -57 3v-366q0 -65 6 -85t13.5 -29.5t19.5 -17.5l-92 -81q-25 13 -41 34zM317 105
q41 0 75 16v270q-34 14 -74 14t-68.5 -10.5t-49.5 -29.5q-43 -40 -43 -104q0 -70 39 -112q42 -44 121 -44z" />
    <glyph glyph-name="Emacron" unicode="&#x112;" horiz-adv-x="465" 
d="M378 117q30 0 42 6h2l-5 -123h-366v653q13 -1 29 -2l34 -1q34 -1 75 -1q112 0 221 4q-5 -43 -5 -114v-12v-2q-25 7 -73 8h-154v-125h116q54 0 65 3l1 -120q-23 2 -60 2h-122v-176h200zM397 830q-2 -24 -2 -37v-17q0 -4 2 -29h-330l2 13q2 16 2 29t-3 41h329z" />
    <glyph glyph-name="emacron" unicode="&#x113;" horiz-adv-x="591" 
d="M39 251q0 57 19.5 106t55.5 85q76 78 199 78q104 0 167 -69q62 -66 62 -167q0 -39 -6 -53q-49 -14 -198 -13h-172q13 -52 59 -81.5t121 -29.5q78 0 133 28q15 7 22 14q-1 -21 -3 -42l-5 -76q-37 -25 -120 -35q-24 -3 -47 -3q-124 0 -205 72q-82 73 -82 186zM412 312
q-20 105 -114 105q-74 0 -113 -63q-12 -20 -18 -43q12 0 29 -1h36q18 0 35 -1h28q25 0 49 1l40 1q15 0 28 1zM456 744q-2 -24 -2 -37v-17q0 -4 2 -29h-330l2 12q2 16 2 29.5t-3 41.5h329z" />
    <glyph glyph-name="Ebreve" unicode="&#x114;" horiz-adv-x="464" 
d="M378 117q30 0 42 6h2l-5 -123h-366v653q13 -1 29 -2l34 -1q34 -1 75 -1q112 0 221 4q-5 -43 -5 -114v-12v-2q-25 7 -73 8h-154v-125h116q54 0 65 3l1 -120q-23 2 -60 2h-122v-176h200zM397 882q5 -5 5 -33.5t-10 -56t-31 -49.5q-47 -49 -132 -49t-133 49q-41 43 -41 105
q0 29 5 34l65 -2q5 -39 18 -57q29 -41 86 -41t83 38q15 21 20 60z" />
    <glyph glyph-name="ebreve" unicode="&#x115;" horiz-adv-x="591" 
d="M39 251q0 57 19.5 106t55.5 85q76 78 199 78q104 0 167 -69q62 -66 62 -167q0 -39 -6 -53q-49 -14 -198 -13h-172q13 -52 59 -81.5t121 -29.5q78 0 133 28q15 7 22 14q-1 -21 -3 -42l-5 -76q-37 -25 -120 -35q-24 -3 -47 -3q-124 0 -205 72q-82 73 -82 186zM412 312
q-20 105 -114 105q-74 0 -113 -63q-12 -20 -18 -43q12 0 29 -1h36q18 0 35 -1h28q25 0 49 1l40 1q15 0 28 1zM459 786q5 -5 5 -33t-10 -56t-31 -50q-47 -49 -132 -49t-132 49q-41 43 -42 105q0 29 5 34l65 -1q5 -39 18 -57q29 -41 86 -41t83 38q15 21 20 60z" />
    <glyph glyph-name="Edotaccent" unicode="&#x116;" horiz-adv-x="465" 
d="M378 117q30 0 42 6h2l-5 -123h-366v653q13 -1 29 -2l34 -1q34 -1 75 -1q112 0 221 4q-5 -43 -5 -114v-12v-2q-25 7 -73 8h-154v-125h116q54 0 65 3l1 -120q-23 2 -60 2h-122v-176h200zM146 790q32 51 72 96l94 -74q-24 -31 -33 -43l-18 -24q-8 -11 -17 -25z" />
    <glyph glyph-name="edotaccent" unicode="&#x117;" horiz-adv-x="591" 
d="M39 251q0 57 19.5 106t55.5 85q76 78 199 78q104 0 167 -69q62 -66 62 -167q0 -39 -6 -53q-49 -14 -198 -13h-172q13 -52 59 -81.5t121 -29.5q78 0 133 28q15 7 22 14q-1 -21 -3 -42l-5 -76q-37 -25 -120 -35q-24 -3 -47 -3q-124 0 -205 72q-82 73 -82 186zM412 312
q-20 105 -114 105q-74 0 -113 -63q-12 -20 -18 -43q12 0 29 -1h36q18 0 35 -1h28q25 0 49 1l40 1q15 0 28 1zM208 652q32 51 73 96l93 -74q-24 -31 -33 -43l-17 -24q-8 -11 -18 -25z" />
    <glyph glyph-name="Eogonek" unicode="&#x118;" horiz-adv-x="465" 
d="M388 -156q18 0 29 8l1 -3l-51 -119q-130 0 -175 80q-17 29 -17 71q0 40 31 84q13 18 33 35h-188v653q13 -1 29 -2l34 -1q34 -1 75 -1q112 0 221 4q-5 -43 -5 -114v-12v-2q-25 7 -73 8h-154v-125h116q54 0 65 3l1 -120q-23 2 -60 2h-122v-176h200q30 0 42 6h2l-5 -116
l5 -7h-6q-51 -2 -87 -35q-34 -32 -34 -70q0 -51 93 -51z" />
    <glyph glyph-name="eogonek" unicode="&#x119;" horiz-adv-x="591" 
d="M257 -125q0 58 63 118q-122 2 -201 73q-80 73 -80 186q0 114 75 190q76 78 199 78q104 0 167 -69q62 -66 62 -167q0 -39 -6 -53q-49 -14 -198 -13h-172q13 -52 59 -81.5t121 -29.5q78 0 133 28q15 7 22 14q-1 -21 -3 -42l-5 -76l-9 -6q-60 -37 -91 -80q-22 -31 -22 -48
t8.5 -27t20.5 -16q23 -11 50.5 -11.5t38.5 7.5l1 -2l-51 -119q-182 0 -182 146zM412 312q-20 105 -114 105q-74 0 -113 -63q-12 -20 -18 -43q12 0 29 -1h36q18 0 35 -1h28q25 0 49 1l40 1q15 0 28 1z" />
    <glyph glyph-name="Ecaron" unicode="&#x11a;" horiz-adv-x="463" 
d="M377 117q30 0 42 6h2l-5 -123h-366v653q13 -1 29 -2l34 -1q34 -1 75 -1q112 0 221 4q-5 -43 -5 -114v-12v-2q-25 7 -73 8h-154v-125h116q54 0 65 3l1 -120q-23 2 -60 2h-122v-176h200zM224 668h-25q-21 0 -32 -1l-118 162l1 1q23 -1 128 -1l48 -87l55 87l124 1l2 -1
l-124 -162z" />
    <glyph glyph-name="ecaron" unicode="&#x11b;" horiz-adv-x="591" 
d="M39 251q0 57 19.5 106t55.5 85q76 78 199 78q104 0 167 -69q62 -66 62 -167q0 -39 -6 -53q-49 -14 -198 -13h-172q13 -52 59 -81.5t121 -29.5q78 0 133 28q15 7 22 14q-1 -21 -3 -42l-5 -76q-37 -25 -120 -35q-24 -3 -47 -3q-124 0 -205 72q-82 73 -82 186zM412 312
q-20 105 -114 105q-74 0 -113 -63q-12 -20 -18 -43q12 0 29 -1h36q18 0 35 -1h28q25 0 49 1l40 1q15 0 28 1zM287 580h-25q-21 0 -32 -1l-118 161l1 2q23 -1 129 -2l47 -86l55 86l125 2l2 -2l-125 -161z" />
    <glyph glyph-name="Gcircumflex" unicode="&#x11c;" horiz-adv-x="669" 
d="M622 392q-9 -17 -9 -80v-151q0 -69 -71 -120q-74 -53 -181 -53q-148 0 -237 93q-85 89 -85 227q0 146 87 244q97 110 267 110q114 0 180 -44l-8 -144l-3 -1q-17 30 -68 48q-48 18 -100.5 18.5t-91.5 -16.5t-67 -47q-58 -63 -57 -167q0 -90 51 -145q51 -54 130 -54
q88 0 120 46q10 15 9 33v81h-63q-51 0 -55 -9l-1 1l-5 127q14 -4 111 -4h58q54 0 88 8zM306 719q-105 0 -129 -1l-1 1l118 162q12 -1 32 -2h25l59 2l125 -162l-2 -1l-125 1l-55 87z" />
    <glyph glyph-name="gcircumflex" unicode="&#x11d;" horiz-adv-x="608" 
d="M203 136q-18 -24 -18 -38t4.5 -21.5t18.5 -14.5q32 -15 106 -26.5t116 -28.5t67 -42q48 -47 48.5 -134t-60.5 -134t-181 -47q-121 0 -196 53q-74 53 -76 140q-3 102 80 147q-22 19 -30 44t-8 57q0 54 48 92q-55 52 -56 130q0 87 63 145q66 62 171 62q55 0 103 -20
q63 27 93 47t39 29h3q4 -12 10 -34l9 -35q12 -43 14 -59q-21 -23 -76 -33q21 -41 21 -86.5t-15.5 -82.5t-44.5 -64q-64 -60 -163 -60q-48 0 -90 14zM190 355q-7 -18 -6.5 -35.5t8 -34t21.5 -30.5q33 -29 86 -29q40 0 69 27q31 29 31 70.5t-28 67t-77 25.5q-81 -1 -104 -61z
M310 -246q120 0 120 84q0 40 -39 64q-44 28 -151 44l-25 4q-32 -17 -47.5 -44t-15 -51t11.5 -41.5t31 -30.5q45 -29 115 -29zM263 580q-105 0 -128 -1l-2 1l118 162q12 -1 33 -2h25l59 2l124 -162l-2 -1l-124 1l-56 87z" />
    <glyph glyph-name="Gbreve" unicode="&#x11e;" horiz-adv-x="669" 
d="M622 392q-9 -17 -9 -80v-151q0 -69 -71 -120q-74 -53 -181 -53q-148 0 -237 93q-85 89 -85 227q0 146 87 244q97 110 267 110q114 0 180 -44l-8 -144l-3 -1q-17 30 -68 48q-48 18 -100.5 18.5t-91.5 -16.5t-67 -47q-58 -63 -57 -167q0 -90 51 -145q51 -54 130 -54
q88 0 120 46q10 15 9 33v81h-63q-51 0 -55 -9l-1 1l-5 127q14 -4 111 -4h58q54 0 88 8zM524 882q5 -5 4.5 -33.5t-10.5 -56t-31 -49.5q-47 -49 -132 -49t-132 49q-41 43 -41 105q0 29 5 34l65 -2q5 -39 18 -57q29 -41 85 -41q57 0 84 38q15 21 20 60z" />
    <glyph glyph-name="gbreve" unicode="&#x11f;" horiz-adv-x="608" 
d="M203 136q-18 -24 -18 -38t4.5 -21.5t18.5 -14.5q32 -15 106 -26.5t116 -28.5t67 -42q48 -47 48.5 -134t-60.5 -134t-181 -47q-121 0 -196 53q-74 53 -76 140q-3 102 80 147q-22 19 -30 44t-8 57q0 54 48 92q-55 52 -56 130q0 87 63 145q66 62 171 62q55 0 103 -20
q63 27 93 47t39 29h3q4 -12 10 -34l9 -35q12 -43 14 -59q-21 -23 -76 -33q21 -41 21 -86.5t-15.5 -82.5t-44.5 -64q-64 -60 -163 -60q-48 0 -90 14zM190 355q-7 -18 -6.5 -35.5t8 -34t21.5 -30.5q33 -29 86 -29q40 0 69 27q31 29 31 70.5t-28 67t-77 25.5q-81 -1 -104 -61z
M310 -246q120 0 120 84q0 40 -39 64q-44 28 -151 44l-25 4q-32 -17 -47.5 -44t-15 -51t11.5 -41.5t31 -30.5q45 -29 115 -29zM481 786q5 -5 5 -33t-10 -56t-31 -50q-47 -49 -133 -49q-85 0 -132 49q-41 43 -41 105q0 29 5 34l65 -1q5 -39 18 -57q29 -41 85 -41q57 0 84 38
q15 21 20 60z" />
    <glyph glyph-name="Gdotaccent" unicode="&#x120;" horiz-adv-x="669" 
d="M622 392q-9 -17 -9 -80v-151q0 -69 -71 -120q-74 -53 -181 -53q-148 0 -237 93q-85 89 -85 227q0 146 87 244q97 110 267 110q114 0 180 -44l-8 -144l-3 -1q-17 30 -68 48q-48 18 -100.5 18.5t-91.5 -16.5t-67 -47q-58 -63 -57 -167q0 -90 51 -145q51 -54 130 -54
q88 0 120 46q10 15 9 33v81h-63q-51 0 -55 -9l-1 1l-5 127q14 -4 111 -4h58q54 0 88 8zM272 790q32 51 73 96l93 -74q-24 -31 -33 -43l-17 -24q-8 -11 -18 -25z" />
    <glyph glyph-name="gdotaccent" unicode="&#x121;" horiz-adv-x="608" 
d="M203 136q-18 -24 -18 -38t4.5 -21.5t18.5 -14.5q32 -15 106 -26.5t116 -28.5t67 -42q48 -47 48.5 -134t-60.5 -134t-181 -47q-121 0 -196 53q-74 53 -76 140q-3 102 80 147q-22 19 -30 44t-8 57q0 54 48 92q-55 52 -56 130q0 87 63 145q66 62 171 62q55 0 103 -20
q63 27 93 47t39 29h3q4 -12 10 -34l9 -35q12 -43 14 -59q-21 -23 -76 -33q21 -41 21 -86.5t-15.5 -82.5t-44.5 -64q-64 -60 -163 -60q-48 0 -90 14zM190 355q-7 -18 -6.5 -35.5t8 -34t21.5 -30.5q33 -29 86 -29q40 0 69 27q31 29 31 70.5t-28 67t-77 25.5q-81 -1 -104 -61z
M310 -246q120 0 120 84q0 40 -39 64q-44 28 -151 44l-25 4q-32 -17 -47.5 -44t-15 -51t11.5 -41.5t31 -30.5q45 -29 115 -29zM229 652q32 51 73 96l93 -74q-24 -31 -33 -43l-17 -24q-8 -11 -17 -25z" />
    <glyph glyph-name="Gcommaaccent" unicode="&#x122;" horiz-adv-x="669" 
d="M622 392q-9 -17 -9 -80v-151q0 -69 -71 -120q-74 -53 -181 -53q-148 0 -237 93q-85 89 -85 227q0 146 87 244q97 110 267 110q114 0 180 -44l-8 -144l-3 -1q-17 30 -68 48q-48 18 -100.5 18.5t-91.5 -16.5t-67 -47q-58 -63 -57 -167q0 -90 51 -145q51 -54 130 -54
q88 0 120 46q10 15 9 33v81h-63q-51 0 -55 -9l-1 1l-5 127q14 -4 111 -4h58q54 0 88 8zM266 -296q30 53 30 108.5t-5 94.5l121 19l4 -25q4 -27 4 -56t-3 -47t-8 -30q-12 -28 -40 -40q-31 -13 -100 -27z" />
    <glyph glyph-name="gcommaaccent" unicode="&#x123;" horiz-adv-x="609" 
d="M203 136q-18 -24 -18 -38t4.5 -21.5t18.5 -14.5q32 -15 106 -26.5t116 -28.5t67 -42q48 -47 48.5 -134t-60.5 -134t-181 -47q-121 0 -196 53q-74 53 -76 140q-3 102 80 147q-22 19 -30 44t-8 57q0 54 48 92q-55 52 -56 130q0 87 63 145q66 62 171 62q55 0 103 -20
q63 27 93 47t39 29h3q4 -12 10 -34l9 -35q12 -43 14 -59q-21 -23 -76 -33q21 -41 21 -86.5t-15.5 -82.5t-44.5 -64q-64 -60 -163 -60q-48 0 -90 14zM190 355q-7 -18 -6.5 -35.5t8 -34t21.5 -30.5q33 -29 86 -29q40 0 69 27q31 29 31 70.5t-28 67t-77 25.5q-81 -1 -104 -61z
M310 -246q120 0 120 84q0 40 -39 64q-44 28 -151 44l-25 4q-32 -17 -47.5 -44t-15 -51t11.5 -41.5t31 -30.5q45 -29 115 -29zM361 862q-30 -53 -30 -108.5t5 -94.5l-121 -19l-4 25q-4 27 -4 56t3 47t8 30q12 28 40 40q31 13 100 27z" />
    <glyph glyph-name="Hcircumflex" unicode="&#x124;" horiz-adv-x="589" 
d="M178 -3q-47 3 -112 3h-15v652q30 -2 43 -3h20q39 0 64 4v-260h229v259q41 -2 79 -2.5t48 3.5v-656q-23 3 -93 3h-34v276h-229v-279zM246 719q-105 0 -129 -1l-1 1l118 162q12 -1 32 -2h25l59 2l125 -162l-2 -1l-125 1l-55 87z" />
    <glyph glyph-name="hcircumflex" unicode="&#x125;" horiz-adv-x="541" 
d="M171 55q0 -42 2 -55h-122v698h120v-226q63 48 130 48q82 0 132 -54q49 -54 49 -144v-194q0 -83 2.5 -99.5t6.5 -21.5t7 -8l-1 -2q-40 3 -58 3h-34q-16 0 -43 -1v282q0 67 -30 100q-22 24 -61 24q-57 0 -100 -66v-284zM242 719q-105 0 -129 -1l-1 1l118 162q12 -1 32 -2
h25l59 2l125 -162l-2 -1l-125 1l-55 87z" />
    <glyph glyph-name="Hbar" unicode="&#x126;" horiz-adv-x="677" 
d="M221 -3q-47 3 -112 3h-15v476h-61l5 19q2 6 2 19t-5 33h59v105q30 -2 43 -3h20q39 0 64 4v-106h229v105q41 -2 79 -2.5t48 3.5v-106h62q-3 -16 -3 -29v-18q0 -8 3 -24h-62v-479q-23 3 -93 3h-34v276h-229v-279zM450 393v83h-229v-83h229z" />
    <glyph glyph-name="hbar" unicode="&#x127;" horiz-adv-x="562" 
d="M192 55q0 -42 2 -55h-122v557h-37l2 12q2 16 2 29.5t-3 41.5h36v58h120v-58h114q-2 -24 -2 -37v-18q0 -3 2 -28h-114v-85q63 48 130 48q82 0 132 -54q49 -54 49 -144v-194q0 -83 2.5 -99.5t6.5 -21.5t7 -8l-1 -2q-40 3 -58 3h-34q-16 0 -43 -1v282q0 67 -30 100
q-22 24 -61 24q-57 0 -100 -66v-284z" />
    <glyph glyph-name="Itilde" unicode="&#x128;" horiz-adv-x="397" 
d="M135 651q49 -2 59 -2h35q26 0 42 4l-1 -653h-135v651zM118 764q-46 0 -82 -36h-2l-2 97q33 39 90 39q45 0 83.5 -26.5t80.5 -26.5q58 0 76 41l1 -1l-5 -105q-8 -15 -29.5 -24.5t-45 -9.5t-38 4t-27 9.5t-23 12.5t-21.5 12q-27 14 -56 14z" />
    <glyph glyph-name="itilde" unicode="&#x129;" horiz-adv-x="402" 
d="M266 55q0 -42 2 -55h-125v510h123v-455zM120 625q-46 0 -81 -37l-2 1l-2 97q33 39 90 39q45 0 83.5 -26.5t79.5 -26.5q58 0 76 41l1 -1l-5 -106q-8 -15 -29.5 -24t-45 -9t-38 4t-26.5 9.5t-22.5 12t-22.5 12.5q-27 14 -56 14z" />
    <glyph glyph-name="Imacron" unicode="&#x12a;" horiz-adv-x="395" 
d="M131 651q49 -2 59 -2h35q26 0 42 4l-1 -653h-135v651zM361 830q-2 -24 -2 -37v-17q0 -4 2 -29h-329l1 13q2 16 2 29t-3 41h329z" />
    <glyph glyph-name="imacron" unicode="&#x12b;" horiz-adv-x="397" 
d="M263 55q0 -42 2 -55h-124v510h122v-455zM362 744q-2 -24 -2 -37v-17q0 -4 2 -29h-329l1 12q2 16 2.5 29.5t-2.5 41.5h328z" />
    <glyph glyph-name="Ibreve" unicode="&#x12c;" horiz-adv-x="413" 
d="M143 651q49 -2 59 -2h35q26 0 42 4l-1 -653h-135v651zM374 882q5 -5 5 -33.5t-10 -56t-31 -49.5q-47 -49 -132 -49t-133 49q-41 43 -41 105q0 29 5 34l65 -2q5 -39 18 -57q29 -41 86 -41t83 38q15 21 20 60z" />
    <glyph glyph-name="ibreve" unicode="&#x12d;" horiz-adv-x="413" 
d="M271 55q0 -42 2 -55h-124v510h122v-455zM374 786q5 -5 5 -33t-10.5 -56t-30.5 -50q-47 -49 -133 -49q-85 0 -132 49q-41 43 -41 105q0 29 5 34l65 -1q5 -39 18 -57q29 -41 85 -41q57 0 84 38q15 21 20 60z" />
    <glyph glyph-name="Iogonek" unicode="&#x12e;" horiz-adv-x="308" 
d="M213.5 -155.5q15.5 -2.5 32 -2.5t27.5 8l1 -2l-51 -119q-86 0 -132 25q-60 34 -60 111q0 48 33 98q13 20 34 37v651q49 -2 59 -2h20q41 0 57 4l-1 -653h-10q-29 -18 -51 -57q-17 -30 -16.5 -46.5t8.5 -26.5t21 -16.5t28.5 -9z" />
    <glyph glyph-name="iogonek" unicode="&#x12f;" horiz-adv-x="316" 
d="M96 656q39 61 82 107l105 -82q-21 -26 -39 -51l-38 -53zM212.5 -155.5q15.5 -2.5 32.5 -2.5t27 8l1 -2l-50 -119q-86 0 -132 25q-60 34 -60 111q0 48 33 98q13 20 34 37l4 1v509h123v-455q0 -42 2 -55h-5q-29 -18 -50 -57q-17 -30 -17 -46.5t8 -26.5t21 -16.5t28.5 -9z
" />
    <glyph glyph-name="Idotaccent" unicode="&#x130;" horiz-adv-x="248" 
d="M55 651q49 -2 59 -2h35q26 0 42 4l-1 -653h-135v651zM35 790q32 51 72 96l94 -74q-24 -31 -34 -43l-17 -24q-8 -11 -17 -25z" />
    <glyph glyph-name="dotlessi" unicode="&#x131;" horiz-adv-x="230" 
d="M173 55q0 -42 2 -55h-125v510h123v-455z" />
    <glyph glyph-name="IJ" unicode="&#x132;" horiz-adv-x="689" 
d="M51 651q49 -2 59 -2h35q26 0 42 4l-1 -653h-135v651zM505 652q30 -2 44 -3h38q24 0 47 4v-437q0 -107 -57 -169q-54 -59 -146 -59q-63 0 -107 25q-16 9 -32 23v141l3 1q21 -32 48.5 -53t68.5 -21q93 0 93 108v440z" />
    <glyph glyph-name="ij" unicode="&#x133;" horiz-adv-x="488" 
d="M44 656q39 61 82 107l105 -82q-21 -26 -39 -51l-38 -53zM173 55q0 -42 2 -55h-125v510h123v-455zM285 652q32 51 73 96l93 -74q-24 -31 -33 -43l-17 -24q-8 -11 -18 -25zM231 -76q72 0 72 108v478h119v-443q0 -205 -117 -243q-38 -12 -87 -12l-50 128l1 3q28 -19 62 -19z
" />
    <glyph glyph-name="Jcircumflex" unicode="&#x134;" horiz-adv-x="532" 
d="M254 652q30 -2 44 -3h38q24 0 47 4v-437q0 -107 -57 -169q-54 -59 -146 -59q-63 0 -107 25q-16 9 -32 23v141l3 1q21 -32 48.5 -53t68.5 -21q93 0 93 108v440zM270 719q-105 0 -129 -1l-1 1l118 162q12 -1 32 -2h25l59 2l125 -162l-2 -1l-125 1l-55 87z" />
    <glyph glyph-name="jcircumflex" unicode="&#x135;" horiz-adv-x="440" 
d="M94 -76q71 0 71 108v478h120v-443q0 -205 -117 -243q-38 -12 -86 -12l-51 128l1 3q28 -19 62 -19zM177 580q-105 0 -128 -1l-2 1l118 162q12 -1 33 -2h25l59 2l124 -162l-2 -1l-124 1l-55 87z" />
    <glyph glyph-name="Kcommaaccent" unicode="&#x136;" horiz-adv-x="580" 
d="M175 -3q-34 3 -85 3h-39v651l20 -1q21 -1 30 -1h14q43 0 60 4v-276l198 274q31 -2 53 -2h27q50 0 72 4l-189 -246l186 -368q12 -27 22 -39h-30q-103 0 -129 -4q-5 33 -14 57l-125 238l-71 -93v-201zM226 -296q30 53 30 108.5t-6 94.5l122 19l4 -25q4 -27 4 -56t-3 -47
t-8 -30q-12 -28 -40 -40q-31 -13 -100 -27z" />
    <glyph glyph-name="kcommaaccent" unicode="&#x137;" horiz-adv-x="602" 
d="M171 64q0 -42 3 -64h-123v698h120v-427l223 239h145l-192 -202l109 -150q36 -57 54 -83l32 -46q15 -19 25 -29h-77q-43 0 -74 -7l-152 222l-93 -98v-53zM208 -296q30 53 30 108.5t-5 94.5l121 19l4 -25q4 -27 4 -56t-3 -47t-8 -30q-12 -28 -40 -40q-31 -13 -100 -27z" />
    <glyph glyph-name="kgreenlandic" unicode="&#x138;" horiz-adv-x="603" 
d="M171 64q0 -42 3 -64h-123v510h120v-239l223 239h145l-192 -202l109 -150q36 -57 54 -83l32 -46q15 -19 25 -29h-77q-43 0 -74 -7l-152 222l-93 -98v-53z" />
    <glyph glyph-name="Lacute" unicode="&#x139;" horiz-adv-x="400" 
d="M146 0q-72 0 -95 -3v655q12 -3 48.5 -3t85.5 2v-534h101q44 0 71 3q-3 -114 -4 -119v-4q-48 3 -160 3h-47zM196 873q73 0 157 8l-1 -3l-128 -158h-110z" />
    <glyph glyph-name="lacute" unicode="&#x13a;" horiz-adv-x="302" 
d="M197 55q0 -42 2 -55h-124v662h122v-607zM113 873q73 0 156 8v-3l-128 -158h-110z" />
    <glyph glyph-name="Lcommaaccent" unicode="&#x13b;" horiz-adv-x="400" 
d="M146 0q-72 0 -95 -3v655q12 -3 48.5 -3t85.5 2v-534h101q44 0 71 3q-3 -114 -4 -119v-4q-48 3 -160 3h-47zM152 -296q30 53 30 108.5t-6 94.5l122 19l4 -25q4 -27 4 -56t-3 -47t-8 -30q-12 -28 -40 -40q-31 -13 -100 -27z" />
    <glyph glyph-name="lcommaaccent" unicode="&#x13c;" horiz-adv-x="236" 
d="M176 55q0 -42 2 -55h-124v728h122v-673zM35 -296q30 53 30 108.5t-5 94.5l121 19l4 -25q4 -27 4 -56t-3 -47t-7 -30q-12 -28 -41 -40q-31 -13 -100 -27z" />
    <glyph glyph-name="Lcaron" unicode="&#x13d;" horiz-adv-x="434" 
d="M146 0q-72 0 -95 -3v655q12 -3 48.5 -3t85.5 2v-534h101q44 0 71 3q-3 -114 -4 -119v-4q-48 3 -160 3h-47zM387 706q5 -51 5.5 -77.5t-1.5 -51t-5 -43.5q-7 -42 -17 -49q-12 -8 -41 -13l-54 -12l-3 3q8 14 8 88v49q0 50 -3 86z" />
    <glyph glyph-name="lcaron" unicode="&#x13e;" horiz-adv-x="390" 
d="M173 55q0 -42 2 -55h-124v728h122v-673zM343 706q5 -51 5.5 -77.5t-1.5 -51t-5 -43.5q-7 -42 -17 -49q-12 -8 -41 -13l-54 -12l-3 3q8 14 8 88v49q0 50 -3 86z" />
    <glyph glyph-name="Ldot" unicode="&#x13f;" horiz-adv-x="492" 
d="M146 0q-72 0 -95 -3v655q12 -3 48.5 -3t85.5 2v-534h101q44 0 71 3q-3 -114 -4 -119v-4q-48 3 -160 3h-47zM304 335q4 30 4 53v32q0 8 -0.5 16.5t-1.5 15.5l-1 12h141q-1 -19 -1 -30l-1 -20v-35q0 -26 2 -44h-142z" />
    <glyph glyph-name="ldot" unicode="&#x140;" horiz-adv-x="403" 
d="M239 295q4 25 4 64t-3 58h115q-2 -32 -2.5 -68.5t2.5 -53.5h-116zM173 55q0 -42 2 -55h-124v728h122v-673z" />
    <glyph glyph-name="Lslash" unicode="&#x141;" horiz-adv-x="459" 
d="M205 0q-72 0 -95 -3v281l-70 -24q0 9 1 19v37q-2 46 -3 54l72 25v263q12 -3 48.5 -3t85.5 2v-215l126 43l1 -54v-44v-13l-127 -44v-207h101q44 0 71 3q-3 -114 -4 -119v-4q-48 3 -160 3h-47z" />
    <glyph glyph-name="lslash" unicode="&#x142;" horiz-adv-x="343" 
d="M233 55q0 -42 2 -55h-124v293l-71 -27v18v33l-1 25q0 13 -1 24l73 28v304h122v-259l67 25q-1 -13 -1 -26v-24q0 -23 2 -47l-68 -27v-285z" />
    <glyph glyph-name="Nacute" unicode="&#x143;" horiz-adv-x="587" 
d="M47 0q3 17 3 36v613h98l259 -407v374q0 27 -5 33h132q-2 -20 -3 -43v-606h-101l-255 391v-391h-128zM254 873q73 0 156 8v-3l-128 -158h-111z" />
    <glyph glyph-name="nacute" unicode="&#x144;" horiz-adv-x="541" 
d="M168 62q0 -43 4 -62h-122v510h118v-43q64 53 138 53q80 0 128 -54.5t48 -143.5v-194q0 -83 2.5 -99.5t6.5 -21.5t7 -8l-1 -2q-40 3 -58 3h-34q-16 0 -42 -1v266q0 143 -87 143q-64 0 -108 -67v-279zM276 734q73 0 156 8v-3l-128 -158h-110z" />
    <glyph glyph-name="Ncommaaccent" unicode="&#x145;" horiz-adv-x="588" 
d="M48 0q3 17 3 36v613h98l259 -407v374q0 27 -5 33h132q-2 -20 -3 -43v-606h-101l-255 391v-391h-128zM210 -296q30 53 30 108.5t-5 94.5l121 19l4 -25q4 -27 4 -56t-3 -47t-7 -30q-12 -28 -40 -40q-31 -13 -101 -27z" />
    <glyph glyph-name="ncommaaccent" unicode="&#x146;" horiz-adv-x="542" 
d="M168 62q0 -43 4 -62h-122v510h118v-43q64 53 138 53q80 0 128 -54.5t48 -143.5v-194q0 -83 2.5 -99.5t6.5 -21.5t7 -8l-1 -2q-40 3 -58 3h-34q-16 0 -42 -1v266q0 143 -87 143q-64 0 -108 -67v-279zM202 -296q30 53 30 108.5t-5 94.5l121 19l4 -25q4 -27 4 -56t-3 -47
t-8 -30q-12 -28 -40 -40q-31 -13 -100 -27z" />
    <glyph glyph-name="Ncaron" unicode="&#x147;" horiz-adv-x="587" 
d="M47 0q3 17 3 36v613h98l259 -407v374q0 27 -5 33h132q-2 -20 -3 -43v-606h-101l-255 391v-391h-128zM287 668h-25q-21 0 -32 -1l-119 162l2 1q23 -1 128 -1l48 -87l55 87l124 1l2 -1l-124 -162z" />
    <glyph glyph-name="ncaron" unicode="&#x148;" horiz-adv-x="540" 
d="M167 62q0 -43 4 -62h-122v510h118v-43q64 53 138 53q80 0 128 -54.5t48 -143.5v-194q0 -83 2.5 -99.5t6.5 -21.5t7 -8l-1 -2q-40 3 -58 3h-34q-16 0 -42 -1v266q0 143 -87 143q-64 0 -108 -67v-279zM279 580h-25q-21 0 -33 -1l-118 161l2 2q23 -1 128 -2l47 -86l56 86
l124 2l2 -2l-124 -161z" />
    <glyph glyph-name="Eng" unicode="&#x14a;" horiz-adv-x="589" 
d="M48 0q3 17 3 36v613h108l248 -404v371q0 27 -5 33h132q-2 -20 -2 -43v-658q0 -106 -66 -169q-62 -59 -152 -59t-148 48v122l3 1q41 -42 89 -51q17 -3 40 -3t43.5 8t35.5 22q31 30 31 77v84l-232 357v-385h-128z" />
    <glyph glyph-name="eng" unicode="&#x14b;" horiz-adv-x="537" 
d="M168 62q0 -43 4 -62h-122v510h118v-43q64 53 138 53q80 0 128 -54.5t48 -143.5v-106q0 -230 -4.5 -281.5t-20 -87t-41.5 -57.5q-48 -40 -137 -40l-51 128l1 3q28 -19 53.5 -19t39 6t22.5 19q19 27 19 83l1 295q0 143 -87 143q-65 0 -109 -67v-279z" />
    <glyph glyph-name="Omacron" unicode="&#x14c;" horiz-adv-x="754" 
d="M64.5 179.5q-25.5 59.5 -25.5 130.5t23.5 134.5t68 111.5t107.5 77t141 29q135 0 227 -85q99 -91 99 -245q0 -149 -102 -249q-62 -61 -148 -84q-42 -11 -99.5 -11t-117 23.5t-104 66t-70 102zM174 316q0 -45 15.5 -83t41.5 -66q57 -58 147 -57q85 0 138 55q53 57 52 156
q0 93 -50 155q-54 66 -148 66q-91 0 -145 -67q-51 -64 -51 -159zM539 830q-2 -24 -1 -37v-17q0 -4 1 -29h-329l1 13q2 16 2.5 29t-2.5 41h328z" />
    <glyph glyph-name="omacron" unicode="&#x14d;" horiz-adv-x="608" 
d="M39 252q0 54 18 103t52 86q75 79 194 79t189 -75q67 -71 67 -185t-69 -188q-73 -79 -193 -79q-124 0 -194 77q-64 71 -64 182zM157 255q0 -31 10.5 -59.5t29.5 -49.5q41 -44 106 -44q61 0 97 44q34 42 34 109q0 68 -35 110q-38 45 -103 45q-66 0 -104 -48
q-34 -44 -35 -107zM461 744q-2 -24 -2 -37v-17q0 -4 2 -29h-330l2 12q2 16 2 29.5t-3 41.5h329z" />
    <glyph glyph-name="Obreve" unicode="&#x14e;" horiz-adv-x="754" 
d="M64.5 179.5q-25.5 59.5 -25.5 130.5t23.5 134.5t68 111.5t107.5 77t141 29q135 0 227 -85q99 -91 99 -245q0 -149 -102 -249q-62 -61 -148 -84q-42 -11 -99.5 -11t-117 23.5t-104 66t-70 102zM174 316q0 -45 15.5 -83t41.5 -66q57 -58 147 -57q85 0 138 55q53 57 52 156
q0 93 -50 155q-54 66 -148 66q-91 0 -145 -67q-51 -64 -51 -159zM540 882q5 -5 5 -33.5t-10 -56t-31 -49.5q-47 -49 -132 -49t-133 49q-41 43 -41 105q0 29 5 34l65 -2q5 -39 18 -57q29 -41 86 -41t83 38q15 21 20 60z" />
    <glyph glyph-name="obreve" unicode="&#x14f;" horiz-adv-x="608" 
d="M39 252q0 54 18 103t52 86q75 79 194 79t189 -75q67 -71 67 -185t-69 -188q-73 -79 -193 -79q-124 0 -194 77q-64 71 -64 182zM157 255q0 -31 10.5 -59.5t29.5 -49.5q41 -44 106 -44q61 0 97 44q34 42 34 109q0 68 -35 110q-38 45 -103 45q-66 0 -104 -48
q-34 -44 -35 -107zM464 786q5 -5 5 -33t-10 -56t-31 -50q-47 -49 -132 -49t-132 49q-41 43 -41 105q0 29 5 34l64 -1q5 -39 19 -57q29 -41 85 -41q57 0 83 38q15 21 21 60z" />
    <glyph glyph-name="Ohungarumlaut" unicode="&#x150;" horiz-adv-x="754" 
d="M64.5 179.5q-25.5 59.5 -25.5 130.5t23.5 134.5t68 111.5t107.5 77t141 29q135 0 227 -85q99 -91 99 -245q0 -149 -102 -249q-62 -61 -148 -84q-42 -11 -99.5 -11t-117 23.5t-104 66t-70 102zM174 316q0 -45 15.5 -83t41.5 -66q57 -58 147 -57q85 0 138 55q53 57 52 156
q0 93 -50 155q-54 66 -148 66q-91 0 -145 -67q-51 -64 -51 -159zM485 883q39 0 122 8l-1 -3l-128 -158h-76zM297 883q25 0 44 2l68 6v-3l-128 -158h-67z" />
    <glyph glyph-name="cid00634" unicode="&#x3001;" horiz-adv-x="336" 
d="M168 261l134 -268h-134l-134 268h134z" />
    <glyph glyph-name="cid00635" unicode="&#x3002;" horiz-adv-x="360" 
d="M125 127q0 -22 16 -38t38 -16t38 16t16 38t-16 38t-38 16t-38 -16t-16 -38zM45 127q0 56 39 95t95 39t95 -39t39 -95t-39 -95t-95 -39t-95 39t-39 95z" />
    <glyph glyph-name="cid00638" unicode="&#x30fb;" horiz-adv-x="294" 
d="M55 357q0 38 27 65t65 27t65 -27t27 -65t-27 -65t-65 -27t-65 27t-27 65z" />
    <glyph glyph-name="cid00643" unicode="&#x309b;" horiz-adv-x="338" 
d="M191 775h90v-162h-90v162zM56 775h90v-162h-90v162z" />
    <glyph glyph-name="cid00644" unicode="&#x309c;" horiz-adv-x="338" 
d="M270 694q0 -42 -29.5 -65.5t-75.5 -23.5t-74 23t-28 64q0 42 30 65.5t77 24.5q42 0 71 -24.5t29 -63.5zM122 698q0 -41 43 -41q17 0 31 9.5t14 23.5q0 18 -11.5 30t-28.5 11q-24 0 -37 -11q-11 -11 -11 -22z" />
    <glyph glyph-name="cid00660" unicode="&#x30fc;" horiz-adv-x="700" 
d="M18 432h651v-153h-651v153z" />
    <glyph glyph-name="notequal" unicode="&#x2260;" horiz-adv-x="551" 
d="M498 144q-23 2 -61 2h-158l-45 -159h-110l45 159h-55q-37 0 -60 -2l1 121q11 -3 65 -3h82l26 90h-114q-37 0 -60 -3l1 121q11 -3 65 -3h140l49 170h111l-49 -170h61q53 0 64 3l2 -121q-23 2 -61 3h-99l-26 -90h120q53 0 64 3z" />
    <glyph glyph-name="cid00842" unicode="&#x3041;" horiz-adv-x="576" 
d="M201 294h87v-294h-87v294zM413 358h-369v101l68 61h355l65 -61v-101l-151 -150l-60 59z" />
    <glyph glyph-name="cid00843" unicode="&#x3042;" horiz-adv-x="740" 
d="M253 392h116v-392h-116v392zM536 477h-492v135l90 81h474l87 -81v-135l-202 -200l-79 79z" />
    <glyph glyph-name="cid00844" unicode="&#x3043;" horiz-adv-x="501" 
d="M100 115l-69 75l359 330l69 -74v-91l-113 -100v-255h-90v175l-67 -60h-89z" />
    <glyph glyph-name="cid00845" unicode="&#x3044;" horiz-adv-x="645" 
d="M121 154l-91 99l479 441l92 -100l-1 -120l-150 -134v-340h-120v233l-90 -80z" />
    <glyph glyph-name="cid00846" unicode="&#x3045;" horiz-adv-x="578" 
d="M134 274v-92h-92v193l68 61h140v84h82v-84h133l65 -61v-301l-92 -74h-92v92h92v182h-304z" />
    <glyph glyph-name="cid00847" unicode="&#x3046;" horiz-adv-x="753" 
d="M173 365v-123h-123v258l90 81h188v113h108v-113h178l87 -81v-401l-123 -99h-123v123h123v242h-405z" />
    <glyph glyph-name="cid00848" unicode="&#x3047;" horiz-adv-x="585" 
d="M536 459v-101h-178v-257h178v-101h-488v101h182v257h-182v101l68 61h355z" />
    <glyph glyph-name="cid00849" unicode="&#x3048;" horiz-adv-x="748" 
d="M699 612v-135h-238v-342h238v-135h-651v135h242v342h-242v135l90 81h474z" />
    <glyph glyph-name="cid00850" unicode="&#x3049;" horiz-adv-x="573" 
d="M384 520h81v-84h64v-162h-64v-274h-81v233l-203 -197l-55 55l187 183h-272v101l67 61h276v84z" />
    <glyph glyph-name="cid00851" unicode="&#x304a;" horiz-adv-x="748" 
d="M505 694h108v-113h86v-216h-86v-365h-108v311l-270 -263l-74 74l250 243h-363v135l90 81h367v113z" />
    <glyph glyph-name="cid00852" unicode="&#x304b;" horiz-adv-x="752" 
d="M299 694h134l-37 -113h302v-482l-123 -99h-123v123h123v242h-249l-118 -365h-134l118 365h-145v135l90 81h125z" />
    <glyph glyph-name="cid00853" unicode="&#x304c;" horiz-adv-x="752" 
d="M602 770h90v-162h-90v162zM467 770h90v-162h-90v162zM299 694h134l-37 -113h302v-482l-123 -99h-123v123h123v242h-249l-118 -365h-134l118 365h-145v135l90 81h125z" />
    <glyph glyph-name="cid00854" unicode="&#x304d;" horiz-adv-x="749" 
d="M327 411h-278v89l90 81h188v113h108v-113h178l87 -81v-89h-265v-114h265v-135h-265v-162h-108v162h-278v135h278v114z" />
    <glyph glyph-name="cid00855" unicode="&#x304e;" horiz-adv-x="749" 
d="M604 779h90v-162h-90v162zM469 779h90v-162h-90v162zM327 411h-278v89l90 81h188v113h108v-113h178l87 -81v-89h-265v-114h265v-135h-265v-162h-108v162h-278v135h278v114z" />
    <glyph glyph-name="cid00856" unicode="&#x304f;" horiz-adv-x="734" 
d="M36 365l107 329h433l112 -106v-134l-123 -454h-123l123 478h-358l-37 -113h-134z" />
    <glyph glyph-name="cid00857" unicode="&#x3050;" horiz-adv-x="735" 
d="M598 750h90v-162h-90v162zM463 750h90v-162h-90v162zM36 365l107 329h282v-141h263v-99l-123 -454h-123l123 478h-358l-37 -113h-134z" />
    <glyph glyph-name="cid00858" unicode="&#x3051;" horiz-adv-x="739" 
d="M272 585h322l97 -82v-134h-143l-86 -369h-123l88 369h-224l-37 -113h-134l142 438h133z" />
    <glyph glyph-name="cid00859" unicode="&#x3052;" horiz-adv-x="739" 
d="M594 775h90v-162h-90v162zM459 775h90v-162h-90v162zM272 585h322l97 -82v-134h-143l-86 -369h-123l88 369h-224l-37 -113h-134l142 438h133z" />
    <glyph glyph-name="cid00860" unicode="&#x3053;" horiz-adv-x="755" 
d="M700 612v-612h-651v135h505v342h-505v135l90 81h474z" />
    <glyph glyph-name="cid00861" unicode="&#x3054;" horiz-adv-x="755" 
d="M604 775h90v-162h-90v162zM469 775h90v-162h-90v162zM700 578v-578h-651v135h505v342h-505v135l90 81h293v-115h268z" />
    <glyph glyph-name="cid00862" unicode="&#x3055;" horiz-adv-x="745" 
d="M699 532v-135h-120v-301l-90 -96h-130v119h112v278h-190v-118h-114v118h-119v135l90 81h29v80h114v-80h190v80h108v-80h33z" />
    <glyph glyph-name="cid00863" unicode="&#x3056;" horiz-adv-x="746" 
d="M638 776h63v-126h-63v126zM542 776h64v-126h-64v126zM699 532v-135h-120v-301l-90 -96h-130v119h112v278h-190v-118h-114v118h-119v135l90 81h29v80h114v-80h190v80h54v-61h54v-19h33z" />
    <glyph glyph-name="cid00864" unicode="&#x3057;" horiz-adv-x="740" 
d="M372 503v-147h-322v147h322zM132 31l-57 123l574 292l57 -123l-42 -113l-421 -220zM372 693v-147h-322v147h322z" />
    <glyph glyph-name="cid00865" unicode="&#x3058;" horiz-adv-x="745" 
d="M607 714h90v-162h-90v162zM472 714h90v-162h-90v162zM372 503v-147h-322v147h322zM132 31l-57 123l574 292l57 -123l-42 -113l-421 -220zM372 693v-147h-322v147h322z" />
    <glyph glyph-name="cid00866" unicode="&#x3059;" horiz-adv-x="743" 
d="M510 477h-463v135l90 81h474l87 -81v-135l-252 -212l252 -155l-73 -110l-285 176l-210 -176l-88 84z" />
    <glyph glyph-name="cid00867" unicode="&#x305a;" horiz-adv-x="742" 
d="M510 477h-463v135l90 81h282v-147h279v-69l-252 -212l252 -155l-73 -110l-285 176l-210 -176l-88 84zM454 743h90v-162h-90v162zM589 743h90v-162h-90v162z" />
    <glyph glyph-name="cid00868" unicode="&#x305b;" horiz-adv-x="747" 
d="M550 365h-307v-254h393v-111h-393l-108 91v274h-86v216h86v113h108v-113h367l90 -81v-135l-155 -161l-78 75z" />
    <glyph glyph-name="cid00869" unicode="&#x305c;" horiz-adv-x="747" 
d="M604 775h90v-162h-90v162zM469 775h90v-162h-90v162zM550 365h-307v-254h393v-111h-393l-108 91v274h-86v216h86v113h108v-113h367l90 -81v-135l-155 -161l-78 75z" />
    <glyph glyph-name="cid00870" unicode="&#x305d;" horiz-adv-x="720" 
d="M31 656l149 39l68 -259l-149 -38zM347 0l-119 63l304 621l119 -63l30 -118l-221 -464z" />
    <glyph glyph-name="cid00871" unicode="&#x305e;" horiz-adv-x="721" 
d="M606 763h67v-154h-67v154zM505 763h67v-154h-67v154zM31 656l149 39l68 -259l-149 -38zM347 0l-119 63l249 509h186l18 -69l-221 -464z" />
    <glyph glyph-name="cid00872" unicode="&#x305f;" horiz-adv-x="729" 
d="M31 221l139 473h401l112 -106v-134l-123 -454h-123l53 205h-236v106h263l43 167h-326l-69 -257h-134z" />
    <glyph glyph-name="cid00873" unicode="&#x3060;" horiz-adv-x="728" 
d="M562 737h90v-162h-90v162zM427 737h90v-162h-90v162zM31 221l139 473h231v-143h282v-97l-123 -454h-123l53 205h-236v106h263l43 167h-326l-69 -257h-134z" />
    <glyph glyph-name="cid00874" unicode="&#x3061;" horiz-adv-x="726" 
d="M652 620l13 -95l-205 -28l-48 -148h276v-112h-313l-78 -237l-96 57l59 180h-222v112h259l42 131l-267 -37l-13 95l78 92l418 59z" />
    <glyph glyph-name="cid00875" unicode="&#x3062;" horiz-adv-x="726" 
d="M585 769h90v-162h-90v162zM450 769h90v-162h-90v162zM657 573l7 -48l-205 -28l-48 -148h276v-112h-313l-78 -237l-96 57l59 180h-222v112h259l42 131l-267 -37l-13 95l78 92l279 39v-96h242z" />
    <glyph glyph-name="cid00876" unicode="&#x3063;" horiz-adv-x="582" 
d="M119 0l-40 40l420 448l40 -40v-91l-331 -357h-89zM51 520h90v-210h-90v210zM192 520h89v-210h-89v210z" />
    <glyph glyph-name="cid00877" unicode="&#x3064;" horiz-adv-x="745" 
d="M140 0l-53 53l559 598l53 -53l1 -121l-441 -477h-119zM49 693h120v-279h-120v279zM237 693h119v-279h-119v279z" />
    <glyph glyph-name="cid00878" unicode="&#x3065;" horiz-adv-x="743" 
d="M590 736h90v-162h-90v162zM455 736h90v-162h-90v162zM140 0l-53 53l456 487h157v-63l-441 -477h-119zM49 693h120v-279h-120v279zM237 693h119v-279h-119v279z" />
    <glyph glyph-name="cid00879" unicode="&#x3066;" horiz-adv-x="755" 
d="M703 612v-135h-651v135l90 81h474zM52 381h651v-135h-243l-92 -246l-120 45l76 201h-272v135z" />
    <glyph glyph-name="cid00880" unicode="&#x3067;" horiz-adv-x="753" 
d="M584 775h90v-162h-90v162zM449 775h90v-162h-90v162zM51 381h651v-135h-243l-92 -246l-120 45l76 201h-272v135zM702 588v-111h-651v135l90 81h281v-105h280z" />
    <glyph glyph-name="cid00881" unicode="&#x3068;" horiz-adv-x="765" 
d="M721 266h-558v-266h-108v694h108v-212h468l90 -81v-135z" />
    <glyph glyph-name="cid00882" unicode="&#x3069;" horiz-adv-x="764" 
d="M603 731h90v-162h-90v162zM468 731h90v-162h-90v162zM721 266h-558v-266h-108v694h108v-212h468l90 -81v-135z" />
    <glyph glyph-name="cid00883" unicode="&#x306a;" horiz-adv-x="748" 
d="M699 514v-135h-279l-117 -379h-117l117 379h-255v135l90 81h165v98h117v-98h192z" />
    <glyph glyph-name="cid00884" unicode="&#x306b;" horiz-adv-x="752" 
d="M701 135v-135h-651v135h651zM701 612v-135h-651v135l90 81h474z" />
    <glyph glyph-name="cid00885" unicode="&#x306c;" horiz-adv-x="747" 
d="M533 477h-486v135l90 81h474l87 -81v-193l-246 -177l246 -131l-56 -111l-302 161l-223 -161l-70 120l155 114l-155 82l56 111l210 -112z" />
    <glyph glyph-name="cid00886" unicode="&#x306d;" horiz-adv-x="747" 
d="M507 379h-459v135l90 81h179v98h117v-98h178l87 -81v-135l-225 -149l225 -154l-76 -76l-189 129v-129h-117v127l-193 -127l-76 76z" />
    <glyph glyph-name="cid00887" unicode="&#x306e;" horiz-adv-x="726" 
d="M125 0l-95 95l555 599l96 -95l-1 -121l-436 -478h-119z" />
    <glyph glyph-name="cid00888" unicode="&#x306f;" horiz-adv-x="716" 
d="M683 0h-150l-90 693h150zM32 0l90 693h69l68 -102l-77 -591h-150z" />
    <glyph glyph-name="cid00889" unicode="&#x3070;" horiz-adv-x="732" 
d="M32 0l90 693h69l68 -102l-77 -591h-150zM683 0h-150l-71 545h150zM506 741h76v-156h-76v156zM619 741h76v-156h-76v156z" />
    <glyph glyph-name="cid00890" unicode="&#x3071;" horiz-adv-x="716" 
d="M663 664q0 -42 -30 -65.5t-76 -23.5q-45 0 -73.5 23t-28.5 64q0 42 30 65.5t77 24.5q42 0 71.5 -24.5t29.5 -63.5zM514 668q0 -41 44 -41q17 0 31 10t14 23q0 18 -12 30t-29 12q-24 -1 -37 -12q-11 -11 -11 -22zM683 0h-150l-71 545h150zM182 0h-150l90 693h69l68 -102z
" />
    <glyph glyph-name="cid00891" unicode="&#x3072;" horiz-adv-x="750" 
d="M705 445v-135h-532v-183h470v-127h-470l-119 117v576h119v-167h445z" />
    <glyph glyph-name="cid00892" unicode="&#x3073;" horiz-adv-x="749" 
d="M585 739h90v-162h-90v162zM450 739h90v-162h-90v162zM705 445v-135h-532v-183h470v-127h-470l-119 117v576h119v-167h445z" />
    <glyph glyph-name="cid00893" unicode="&#x3074;" horiz-adv-x="749" 
d="M699 660q0 -42 -30 -65.5t-76 -23.5q-45 0 -73.5 23t-28.5 64q0 42 30 65.5t77 24.5q42 0 71.5 -24.5t29.5 -63.5zM550 664q0 -41 44 -41q17 0 31 10t14 23q0 18 -12 30t-29 12q-24 -1 -37 -12q-11 -11 -11 -22zM705 445v-135h-532v-183h470v-127h-470l-119 117v576h119
v-167h445z" />
    <glyph glyph-name="cid00894" unicode="&#x3075;" horiz-adv-x="741" 
d="M564 477h-519v135l90 81h474l87 -81v-135l-416 -477l-71 71z" />
    <glyph glyph-name="cid00895" unicode="&#x3076;" horiz-adv-x="741" 
d="M584 162h90v-162h-90v162zM449 162h90v-162h-90v162zM564 477h-519v135l90 81h474l87 -81v-135l-416 -477l-71 71z" />
    <glyph glyph-name="cid00896" unicode="&#x3077;" horiz-adv-x="741" 
d="M672 122q0 -42 -30 -65.5t-76 -23.5q-45 0 -73.5 23t-28.5 64q0 42 30 65.5t77 24.5q42 0 71.5 -24.5t29.5 -63.5zM523 126q0 -41 44 -41q17 0 31 10t14 23q0 18 -12 30t-29 12q-24 -1 -37 -12q-11 -11 -11 -22zM564 477h-519v135l90 81h474l87 -81v-135l-416 -477
l-71 71z" />
    <glyph glyph-name="cid00897" unicode="&#x3078;" horiz-adv-x="721" 
d="M324 393l-187 -179l-95 95l6 121l136 128l118 4l388 -375l-75 -75z" />
    <glyph glyph-name="cid00898" unicode="&#x3079;" horiz-adv-x="720" 
d="M552 674h90v-162h-90v162zM417 674h90v-162h-90v162zM324 393l-187 -179l-95 95l6 121l136 128l118 4l388 -375l-75 -75z" />
    <glyph glyph-name="cid00899" unicode="&#x307a;" horiz-adv-x="720" 
d="M615 589q0 -42 -30 -65.5t-76 -23.5q-45 0 -73.5 23t-28.5 64q0 42 30 65.5t77 24.5q42 0 71.5 -24.5t29.5 -63.5zM466 593q0 -41 44 -41q17 0 31 10t14 23q0 18 -12 30t-29 12q-24 -1 -37 -12q-11 -11 -11 -22zM324 393l-187 -179l-95 95l6 121l136 128l118 4l388 -375
l-75 -75z" />
    <glyph glyph-name="cid00900" unicode="&#x307b;" horiz-adv-x="747" 
d="M459 287l75 66l172 -281l-72 -72zM48 379v135l90 81h179v98h117v-98h178l87 -81v-135h-265v-379h-117v379h-269zM292 287l-175 -287l-72 72l172 281z" />
    <glyph glyph-name="cid00901" unicode="&#x307c;" horiz-adv-x="746" 
d="M603 768h81v-148h-81v148zM480 768h82v-148h-82v148zM458 287l75 66l172 -281l-72 -72zM47 379v135l90 81h179v98h117v-98h178l87 -81v-135h-265v-379h-117v379h-269zM291 287l-175 -287l-72 72l172 281z" />
    <glyph glyph-name="cid00902" unicode="&#x307d;" horiz-adv-x="746" 
d="M696 710q0 -42 -30 -65.5t-76 -23.5q-45 0 -73.5 23t-28.5 64q0 42 30 65.5t77 24.5q42 0 71.5 -24.5t29.5 -63.5zM548 714q0 -41 43 -41q17 0 31 10t14 23q0 18 -12 30t-29 12q-24 -1 -37 -12q-10 -11 -10 -22zM458 287l75 66l172 -281l-72 -72zM47 379v135l90 81h179
v98h117v-98h178l87 -81v-135h-265v-379h-117v379h-269zM291 287l-175 -287l-72 72l172 281z" />
    <glyph glyph-name="cid00903" unicode="&#x307e;" horiz-adv-x="741" 
d="M696 477l-254 -254l139 -140l-83 -83l-295 296l84 83l72 -72l170 170h-484v135l90 81h474l87 -81v-135z" />
    <glyph glyph-name="cid00904" unicode="&#x307f;" horiz-adv-x="748" 
d="M699 612v-135h-651v135l90 81h474zM699 135v-135h-651v135h651zM135 407l478 -55v-122l-478 55v122z" />
    <glyph glyph-name="cid00905" unicode="&#x3080;" horiz-adv-x="724" 
d="M381 690l99 -62l-256 -412h279l-84 140l96 66l172 -287v-135h-651v135z" />
    <glyph glyph-name="cid00906" unicode="&#x3081;" horiz-adv-x="724" 
d="M125 0l-95 95l239 258l-172 173l85 85l169 -170l234 253l96 -95l-1 -121l-174 -192l151 -152l-85 -85l-147 148l-181 -197h-119z" />
    <glyph glyph-name="cid00907" unicode="&#x3082;" horiz-adv-x="751" 
d="M701 612v-135h-348v-120h348v-135h-348v-105h302v-117h-302l-120 103v119h-183v135h183v120h-183v135l90 81h474z" />
    <glyph glyph-name="cid00908" unicode="&#x3083;" horiz-adv-x="573" 
d="M142 274h-98v162h76l-10 71l80 14l11 -85h264l67 -61v-101l-116 -121l-59 56l63 65h-196l37 -264l-80 -14z" />
    <glyph glyph-name="cid00909" unicode="&#x3084;" horiz-adv-x="749" 
d="M181 365h-131v216h101l-13 94l106 19l16 -113h351l90 -81v-135l-155 -161l-78 75l83 86h-261l49 -352l-106 -19z" />
    <glyph glyph-name="cid00910" unicode="&#x3085;" horiz-adv-x="561" 
d="M524 101v-101h-488v101h258l91 257h-315v101l67 61h290l65 -61v-101l-91 -257h123z" />
    <glyph glyph-name="cid00911" unicode="&#x3086;" horiz-adv-x="724" 
d="M687 135v-135h-651v135h344l121 342h-420v135l90 81h386l87 -81v-135l-121 -342h164z" />
    <glyph glyph-name="cid00912" unicode="&#x3087;" horiz-adv-x="588" 
d="M536 459v-459h-488v101h379v92h-341v94h341v71h-379v101l68 61h355z" />
    <glyph glyph-name="cid00913" unicode="&#x3088;" horiz-adv-x="754" 
d="M699 612v-612h-651v135h505v122h-454v126h454v94h-505v135l90 81h474z" />
    <glyph glyph-name="cid00914" unicode="&#x3089;" horiz-adv-x="753" 
d="M702 612v-135h-651v135l90 81h474zM51 368h651v-104l-344 -264l-57 96l218 168h-468v104z" />
    <glyph glyph-name="cid00915" unicode="&#x308a;" horiz-adv-x="756" 
d="M269 269h-137l-82 86v248l88 90h131v-424zM553 693h148v-610l-86 -83h-474v135h412v558z" />
    <glyph glyph-name="cid00916" unicode="&#x308b;" horiz-adv-x="719" 
d="M32 0l90 693h69l68 -102l-77 -591h-150zM551 132l132 93v-132l-132 -93h-132v693h132v-561z" />
    <glyph glyph-name="cid00917" unicode="&#x308c;" horiz-adv-x="758" 
d="M630 491l95 -95l-455 -396h-215v693h131v-472l322 271z" />
    <glyph glyph-name="cid00918" unicode="&#x308d;" horiz-adv-x="760" 
d="M705 612v-612h-651v612l90 81h474zM200 135h359v342h-359v-342z" />
    <glyph glyph-name="cid00919" unicode="&#x308e;" horiz-adv-x="595" 
d="M445 94v264h-309v-50h-83v212h488v-414l-96 -106h-169v94h169z" />
    <glyph glyph-name="cid00920" unicode="&#x308f;" horiz-adv-x="754" 
d="M573 125v352h-412v-66h-111v282h651v-552l-128 -141h-226v125h226z" />
    <glyph glyph-name="cid00921" unicode="&#x3090;" horiz-adv-x="750" 
d="M701 239v-135h-87v-104h-133v104h-431v135h98v140h-98v135l90 81h341v98h133v-98l87 -81v-135h-87v-140h87zM481 239v140h-227v-140h227z" />
    <glyph glyph-name="cid00922" unicode="&#x3091;" horiz-adv-x="748" 
d="M540 477h-492v135l90 81h474l87 -81v-135l-248 -246v-96h248v-135h-651v135h287v230h92z" />
    <glyph glyph-name="cid00923" unicode="&#x3092;" horiz-adv-x="740" 
d="M563 477h-519v135l90 81h474l87 -81v-135l-416 -477l-71 71l178 204h-267v116h369z" />
    <glyph glyph-name="cid00924" unicode="&#x3093;" horiz-adv-x="738" 
d="M364 693v-147h-322v147h322zM133 0l-95 95l559 598l96 -95v-121l-441 -477h-119z" />
    <glyph glyph-name="cid00925" unicode="&#x30a1;" horiz-adv-x="576" 
d="M201 294h87v-294h-87v294zM413 358h-369v101l68 61h355l65 -61v-101l-151 -150l-60 59z" />
    <glyph glyph-name="cid00926" unicode="&#x30a2;" horiz-adv-x="740" 
d="M253 392h116v-392h-116v392zM536 477h-492v135l90 81h474l87 -81v-135l-202 -200l-79 79z" />
    <glyph glyph-name="cid00927" unicode="&#x30a3;" horiz-adv-x="501" 
d="M100 115l-69 75l359 330l69 -74v-91l-113 -100v-255h-90v175l-67 -60h-89z" />
    <glyph glyph-name="cid00928" unicode="&#x30a4;" horiz-adv-x="645" 
d="M121 154l-91 99l479 441l92 -100l-1 -120l-150 -134v-340h-120v233l-90 -80z" />
    <glyph glyph-name="cid00929" unicode="&#x30a5;" horiz-adv-x="578" 
d="M134 274v-92h-92v193l68 61h140v84h82v-84h133l65 -61v-301l-92 -74h-92v92h92v182h-304z" />
    <glyph glyph-name="cid00930" unicode="&#x30a6;" horiz-adv-x="753" 
d="M173 365v-123h-123v258l90 81h188v113h108v-113h178l87 -81v-401l-123 -99h-123v123h123v242h-405z" />
    <glyph glyph-name="cid00931" unicode="&#x30a7;" horiz-adv-x="585" 
d="M536 459v-101h-178v-257h178v-101h-488v101h182v257h-182v101l68 61h355z" />
    <glyph glyph-name="cid00932" unicode="&#x30a8;" horiz-adv-x="748" 
d="M699 612v-135h-238v-342h238v-135h-651v135h242v342h-242v135l90 81h474z" />
    <glyph glyph-name="cid00933" unicode="&#x30a9;" horiz-adv-x="573" 
d="M384 520h81v-84h64v-162h-64v-274h-81v233l-203 -197l-55 55l187 183h-272v101l67 61h276v84z" />
    <glyph glyph-name="cid00934" unicode="&#x30aa;" horiz-adv-x="748" 
d="M505 694h108v-113h86v-216h-86v-365h-108v311l-270 -263l-74 74l250 243h-363v135l90 81h367v113z" />
    <glyph glyph-name="cid00935" unicode="&#x30ab;" horiz-adv-x="752" 
d="M299 694h134l-37 -113h302v-482l-123 -99h-123v123h123v242h-249l-118 -365h-134l118 365h-145v135l90 81h125z" />
    <glyph glyph-name="cid00936" unicode="&#x30ac;" horiz-adv-x="752" 
d="M602 770h90v-162h-90v162zM467 770h90v-162h-90v162zM299 694h134l-37 -113h302v-482l-123 -99h-123v123h123v242h-249l-118 -365h-134l118 365h-145v135l90 81h125z" />
    <glyph glyph-name="cid00937" unicode="&#x30ad;" horiz-adv-x="749" 
d="M327 411h-278v89l90 81h188v113h108v-113h178l87 -81v-89h-265v-114h265v-135h-265v-162h-108v162h-278v135h278v114z" />
    <glyph glyph-name="cid00938" unicode="&#x30ae;" horiz-adv-x="749" 
d="M604 779h90v-162h-90v162zM469 779h90v-162h-90v162zM327 411h-278v89l90 81h188v113h108v-113h178l87 -81v-89h-265v-114h265v-135h-265v-162h-108v162h-278v135h278v114z" />
    <glyph glyph-name="cid00939" unicode="&#x30af;" horiz-adv-x="734" 
d="M36 365l107 329h433l112 -106v-134l-123 -454h-123l123 478h-358l-37 -113h-134z" />
    <glyph glyph-name="cid00940" unicode="&#x30b0;" horiz-adv-x="735" 
d="M598 750h90v-162h-90v162zM463 750h90v-162h-90v162zM36 365l107 329h282v-141h263v-99l-123 -454h-123l123 478h-358l-37 -113h-134z" />
    <glyph glyph-name="cid00941" unicode="&#x30b1;" horiz-adv-x="739" 
d="M272 585h322l97 -82v-134h-143l-86 -369h-123l88 369h-224l-37 -113h-134l142 438h133z" />
    <glyph glyph-name="cid00942" unicode="&#x30b2;" horiz-adv-x="739" 
d="M594 775h90v-162h-90v162zM459 775h90v-162h-90v162zM272 585h322l97 -82v-134h-143l-86 -369h-123l88 369h-224l-37 -113h-134l142 438h133z" />
    <glyph glyph-name="cid00943" unicode="&#x30b3;" horiz-adv-x="755" 
d="M700 612v-612h-651v135h505v342h-505v135l90 81h474z" />
    <glyph glyph-name="cid00944" unicode="&#x30b4;" horiz-adv-x="755" 
d="M604 775h90v-162h-90v162zM469 775h90v-162h-90v162zM700 578v-578h-651v135h505v342h-505v135l90 81h293v-115h268z" />
    <glyph glyph-name="cid00945" unicode="&#x30b5;" horiz-adv-x="745" 
d="M699 532v-135h-120v-301l-90 -96h-130v119h112v278h-190v-118h-114v118h-119v135l90 81h29v80h114v-80h190v80h108v-80h33z" />
    <glyph glyph-name="cid00946" unicode="&#x30b6;" horiz-adv-x="746" 
d="M638 776h63v-126h-63v126zM542 776h64v-126h-64v126zM699 532v-135h-120v-301l-90 -96h-130v119h112v278h-190v-118h-114v118h-119v135l90 81h29v80h114v-80h190v80h54v-61h54v-19h33z" />
    <glyph glyph-name="cid00947" unicode="&#x30b7;" horiz-adv-x="740" 
d="M372 503v-147h-322v147h322zM132 31l-57 123l574 292l57 -123l-42 -113l-421 -220zM372 693v-147h-322v147h322z" />
    <glyph glyph-name="cid00948" unicode="&#x30b8;" horiz-adv-x="745" 
d="M607 714h90v-162h-90v162zM472 714h90v-162h-90v162zM372 503v-147h-322v147h322zM132 31l-57 123l574 292l57 -123l-42 -113l-421 -220zM372 693v-147h-322v147h322z" />
    <glyph glyph-name="cid00949" unicode="&#x30b9;" horiz-adv-x="743" 
d="M510 477h-463v135l90 81h474l87 -81v-135l-252 -212l252 -155l-73 -110l-285 176l-210 -176l-88 84z" />
    <glyph glyph-name="cid00950" unicode="&#x30ba;" horiz-adv-x="742" 
d="M510 477h-463v135l90 81h282v-147h279v-69l-252 -212l252 -155l-73 -110l-285 176l-210 -176l-88 84zM454 743h90v-162h-90v162zM589 743h90v-162h-90v162z" />
    <glyph glyph-name="cid00951" unicode="&#x30bb;" horiz-adv-x="747" 
d="M550 365h-307v-254h393v-111h-393l-108 91v274h-86v216h86v113h108v-113h367l90 -81v-135l-155 -161l-78 75z" />
    <glyph glyph-name="cid00952" unicode="&#x30bc;" horiz-adv-x="747" 
d="M604 775h90v-162h-90v162zM469 775h90v-162h-90v162zM550 365h-307v-254h393v-111h-393l-108 91v274h-86v216h86v113h108v-113h367l90 -81v-135l-155 -161l-78 75z" />
    <glyph glyph-name="cid00953" unicode="&#x30bd;" horiz-adv-x="720" 
d="M31 656l149 39l68 -259l-149 -38zM347 0l-119 63l304 621l119 -63l30 -118l-221 -464z" />
    <glyph glyph-name="cid00954" unicode="&#x30be;" horiz-adv-x="721" 
d="M606 763h67v-154h-67v154zM505 763h67v-154h-67v154zM31 656l149 39l68 -259l-149 -38zM347 0l-119 63l249 509h186l18 -69l-221 -464z" />
    <glyph glyph-name="cid00955" unicode="&#x30bf;" horiz-adv-x="729" 
d="M31 221l139 473h401l112 -106v-134l-123 -454h-123l53 205h-236v106h263l43 167h-326l-69 -257h-134z" />
    <glyph glyph-name="cid00956" unicode="&#x30c0;" horiz-adv-x="728" 
d="M562 737h90v-162h-90v162zM427 737h90v-162h-90v162zM31 221l139 473h231v-143h282v-97l-123 -454h-123l53 205h-236v106h263l43 167h-326l-69 -257h-134z" />
    <glyph glyph-name="cid00957" unicode="&#x30c1;" horiz-adv-x="726" 
d="M652 620l13 -95l-205 -28l-48 -148h276v-112h-313l-78 -237l-96 57l59 180h-222v112h259l42 131l-267 -37l-13 95l78 92l418 59z" />
    <glyph glyph-name="cid00958" unicode="&#x30c2;" horiz-adv-x="726" 
d="M585 769h90v-162h-90v162zM450 769h90v-162h-90v162zM657 573l7 -48l-205 -28l-48 -148h276v-112h-313l-78 -237l-96 57l59 180h-222v112h259l42 131l-267 -37l-13 95l78 92l279 39v-96h242z" />
    <glyph glyph-name="cid00959" unicode="&#x30c3;" horiz-adv-x="582" 
d="M119 0l-40 40l420 448l40 -40v-91l-331 -357h-89zM51 520h90v-210h-90v210zM192 520h89v-210h-89v210z" />
    <glyph glyph-name="cid00960" unicode="&#x30c4;" horiz-adv-x="745" 
d="M140 0l-53 53l559 598l53 -53l1 -121l-441 -477h-119zM49 693h120v-279h-120v279zM237 693h119v-279h-119v279z" />
    <glyph glyph-name="cid00961" unicode="&#x30c5;" horiz-adv-x="743" 
d="M590 736h90v-162h-90v162zM455 736h90v-162h-90v162zM140 0l-53 53l456 487h157v-63l-441 -477h-119zM49 693h120v-279h-120v279zM237 693h119v-279h-119v279z" />
    <glyph glyph-name="cid00962" unicode="&#x30c6;" horiz-adv-x="755" 
d="M703 612v-135h-651v135l90 81h474zM52 381h651v-135h-243l-92 -246l-120 45l76 201h-272v135z" />
    <glyph glyph-name="cid00963" unicode="&#x30c7;" horiz-adv-x="753" 
d="M584 775h90v-162h-90v162zM449 775h90v-162h-90v162zM51 381h651v-135h-243l-92 -246l-120 45l76 201h-272v135zM702 588v-111h-651v135l90 81h281v-105h280z" />
    <glyph glyph-name="cid00964" unicode="&#x30c8;" horiz-adv-x="765" 
d="M721 266h-558v-266h-108v694h108v-212h468l90 -81v-135z" />
    <glyph glyph-name="cid00965" unicode="&#x30c9;" horiz-adv-x="764" 
d="M603 731h90v-162h-90v162zM468 731h90v-162h-90v162zM721 266h-558v-266h-108v694h108v-212h468l90 -81v-135z" />
    <glyph glyph-name="cid00966" unicode="&#x30ca;" horiz-adv-x="748" 
d="M699 514v-135h-279l-117 -379h-117l117 379h-255v135l90 81h165v98h117v-98h192z" />
    <glyph glyph-name="cid00967" unicode="&#x30cb;" horiz-adv-x="752" 
d="M701 135v-135h-651v135h651zM701 612v-135h-651v135l90 81h474z" />
    <glyph glyph-name="cid00968" unicode="&#x30cc;" horiz-adv-x="747" 
d="M533 477h-486v135l90 81h474l87 -81v-193l-246 -177l246 -131l-56 -111l-302 161l-223 -161l-70 120l155 114l-155 82l56 111l210 -112z" />
    <glyph glyph-name="cid00969" unicode="&#x30cd;" horiz-adv-x="747" 
d="M507 379h-459v135l90 81h179v98h117v-98h178l87 -81v-135l-225 -149l225 -154l-76 -76l-189 129v-129h-117v127l-193 -127l-76 76z" />
    <glyph glyph-name="cid00970" unicode="&#x30ce;" horiz-adv-x="726" 
d="M125 0l-95 95l555 599l96 -95l-1 -121l-436 -478h-119z" />
    <glyph glyph-name="cid00971" unicode="&#x30cf;" horiz-adv-x="716" 
d="M683 0h-150l-90 693h150zM32 0l90 693h69l68 -102l-77 -591h-150z" />
    <glyph glyph-name="cid00972" unicode="&#x30d0;" horiz-adv-x="732" 
d="M32 0l90 693h69l68 -102l-77 -591h-150zM683 0h-150l-71 545h150zM506 741h76v-156h-76v156zM619 741h76v-156h-76v156z" />
    <glyph glyph-name="cid00973" unicode="&#x30d1;" horiz-adv-x="716" 
d="M663 664q0 -42 -30 -65.5t-76 -23.5q-45 0 -73.5 23t-28.5 64q0 42 30 65.5t77 24.5q42 0 71.5 -24.5t29.5 -63.5zM514 668q0 -41 44 -41q17 0 31 10t14 23q0 18 -12 30t-29 12q-24 -1 -37 -12q-11 -11 -11 -22zM683 0h-150l-71 545h150zM182 0h-150l90 693h69l68 -102z
" />
    <glyph glyph-name="cid00974" unicode="&#x30d2;" horiz-adv-x="750" 
d="M705 445v-135h-532v-183h470v-127h-470l-119 117v576h119v-167h445z" />
    <glyph glyph-name="cid00975" unicode="&#x30d3;" horiz-adv-x="749" 
d="M585 739h90v-162h-90v162zM450 739h90v-162h-90v162zM705 445v-135h-532v-183h470v-127h-470l-119 117v576h119v-167h445z" />
    <glyph glyph-name="cid00976" unicode="&#x30d4;" horiz-adv-x="749" 
d="M699 660q0 -42 -30 -65.5t-76 -23.5q-45 0 -73.5 23t-28.5 64q0 42 30 65.5t77 24.5q42 0 71.5 -24.5t29.5 -63.5zM550 664q0 -41 44 -41q17 0 31 10t14 23q0 18 -12 30t-29 12q-24 -1 -37 -12q-11 -11 -11 -22zM705 445v-135h-532v-183h470v-127h-470l-119 117v576h119
v-167h445z" />
    <glyph glyph-name="cid00977" unicode="&#x30d5;" horiz-adv-x="741" 
d="M564 477h-519v135l90 81h474l87 -81v-135l-416 -477l-71 71z" />
    <glyph glyph-name="cid00978" unicode="&#x30d6;" horiz-adv-x="741" 
d="M584 162h90v-162h-90v162zM449 162h90v-162h-90v162zM564 477h-519v135l90 81h474l87 -81v-135l-416 -477l-71 71z" />
    <glyph glyph-name="cid00979" unicode="&#x30d7;" horiz-adv-x="741" 
d="M672 122q0 -42 -30 -65.5t-76 -23.5q-45 0 -73.5 23t-28.5 64q0 42 30 65.5t77 24.5q42 0 71.5 -24.5t29.5 -63.5zM523 126q0 -41 44 -41q17 0 31 10t14 23q0 18 -12 30t-29 12q-24 -1 -37 -12q-11 -11 -11 -22zM564 477h-519v135l90 81h474l87 -81v-135l-416 -477
l-71 71z" />
    <glyph glyph-name="cid00980" unicode="&#x30d8;" horiz-adv-x="721" 
d="M324 393l-187 -179l-95 95l6 121l136 128l118 4l388 -375l-75 -75z" />
    <glyph glyph-name="cid00981" unicode="&#x30d9;" horiz-adv-x="720" 
d="M552 674h90v-162h-90v162zM417 674h90v-162h-90v162zM324 393l-187 -179l-95 95l6 121l136 128l118 4l388 -375l-75 -75z" />
    <glyph glyph-name="cid00982" unicode="&#x30da;" horiz-adv-x="720" 
d="M615 589q0 -42 -30 -65.5t-76 -23.5q-45 0 -73.5 23t-28.5 64q0 42 30 65.5t77 24.5q42 0 71.5 -24.5t29.5 -63.5zM466 593q0 -41 44 -41q17 0 31 10t14 23q0 18 -12 30t-29 12q-24 -1 -37 -12q-11 -11 -11 -22zM324 393l-187 -179l-95 95l6 121l136 128l118 4l388 -375
l-75 -75z" />
    <glyph glyph-name="cid00983" unicode="&#x30db;" horiz-adv-x="747" 
d="M459 287l75 66l172 -281l-72 -72zM48 379v135l90 81h179v98h117v-98h178l87 -81v-135h-265v-379h-117v379h-269zM292 287l-175 -287l-72 72l172 281z" />
    <glyph glyph-name="cid00984" unicode="&#x30dc;" horiz-adv-x="746" 
d="M603 768h81v-148h-81v148zM480 768h82v-148h-82v148zM458 287l75 66l172 -281l-72 -72zM47 379v135l90 81h179v98h117v-98h178l87 -81v-135h-265v-379h-117v379h-269zM291 287l-175 -287l-72 72l172 281z" />
    <glyph glyph-name="cid00985" unicode="&#x30dd;" horiz-adv-x="746" 
d="M696 710q0 -42 -30 -65.5t-76 -23.5q-45 0 -73.5 23t-28.5 64q0 42 30 65.5t77 24.5q42 0 71.5 -24.5t29.5 -63.5zM548 714q0 -41 43 -41q17 0 31 10t14 23q0 18 -12 30t-29 12q-24 -1 -37 -12q-10 -11 -10 -22zM458 287l75 66l172 -281l-72 -72zM47 379v135l90 81h179
v98h117v-98h178l87 -81v-135h-265v-379h-117v379h-269zM291 287l-175 -287l-72 72l172 281z" />
    <glyph glyph-name="cid00986" unicode="&#x30de;" horiz-adv-x="741" 
d="M696 477l-254 -254l139 -140l-83 -83l-295 296l84 83l72 -72l170 170h-484v135l90 81h474l87 -81v-135z" />
    <glyph glyph-name="cid00987" unicode="&#x30df;" horiz-adv-x="748" 
d="M699 612v-135h-651v135l90 81h474zM699 135v-135h-651v135h651zM135 407l478 -55v-122l-478 55v122z" />
    <glyph glyph-name="cid00988" unicode="&#x30e0;" horiz-adv-x="724" 
d="M381 690l99 -62l-256 -412h279l-84 140l96 66l172 -287v-135h-651v135z" />
    <glyph glyph-name="cid00989" unicode="&#x30e1;" horiz-adv-x="724" 
d="M125 0l-95 95l239 258l-172 173l85 85l169 -170l234 253l96 -95l-1 -121l-174 -192l151 -152l-85 -85l-147 148l-181 -197h-119z" />
    <glyph glyph-name="cid00990" unicode="&#x30e2;" horiz-adv-x="751" 
d="M701 612v-135h-348v-120h348v-135h-348v-105h302v-117h-302l-120 103v119h-183v135h183v120h-183v135l90 81h474z" />
    <glyph glyph-name="cid00991" unicode="&#x30e3;" horiz-adv-x="573" 
d="M142 274h-98v162h76l-10 71l80 14l11 -85h264l67 -61v-101l-116 -121l-59 56l63 65h-196l37 -264l-80 -14z" />
    <glyph glyph-name="cid00992" unicode="&#x30e4;" horiz-adv-x="749" 
d="M181 365h-131v216h101l-13 94l106 19l16 -113h351l90 -81v-135l-155 -161l-78 75l83 86h-261l49 -352l-106 -19z" />
    <glyph glyph-name="cid00993" unicode="&#x30e5;" horiz-adv-x="561" 
d="M524 101v-101h-488v101h258l91 257h-315v101l67 61h290l65 -61v-101l-91 -257h123z" />
    <glyph glyph-name="cid00994" unicode="&#x30e6;" horiz-adv-x="724" 
d="M687 135v-135h-651v135h344l121 342h-420v135l90 81h386l87 -81v-135l-121 -342h164z" />
    <glyph glyph-name="cid00995" unicode="&#x30e7;" horiz-adv-x="588" 
d="M536 459v-459h-488v101h379v92h-341v94h341v71h-379v101l68 61h355z" />
    <glyph glyph-name="cid00996" unicode="&#x30e8;" horiz-adv-x="754" 
d="M699 612v-612h-651v135h505v122h-454v126h454v94h-505v135l90 81h474z" />
    <glyph glyph-name="cid00997" unicode="&#x30e9;" horiz-adv-x="753" 
d="M702 612v-135h-651v135l90 81h474zM51 368h651v-104l-344 -264l-57 96l218 168h-468v104z" />
    <glyph glyph-name="cid00998" unicode="&#x30ea;" horiz-adv-x="756" 
d="M269 269h-137l-82 86v248l88 90h131v-424zM553 693h148v-610l-86 -83h-474v135h412v558z" />
    <glyph glyph-name="cid00999" unicode="&#x30eb;" horiz-adv-x="719" 
d="M32 0l90 693h69l68 -102l-77 -591h-150zM551 132l132 93v-132l-132 -93h-132v693h132v-561z" />
    <glyph glyph-name="cid01000" unicode="&#x30ec;" horiz-adv-x="758" 
d="M630 491l95 -95l-455 -396h-215v693h131v-472l322 271z" />
    <glyph glyph-name="cid01001" unicode="&#x30ed;" horiz-adv-x="760" 
d="M705 612v-612h-651v612l90 81h474zM200 135h359v342h-359v-342z" />
    <glyph glyph-name="cid01002" unicode="&#x30ee;" horiz-adv-x="595" 
d="M445 94v264h-309v-50h-83v212h488v-414l-96 -106h-169v94h169z" />
    <glyph glyph-name="cid01003" unicode="&#x30ef;" horiz-adv-x="754" 
d="M573 125v352h-412v-66h-111v282h651v-552l-128 -141h-226v125h226z" />
    <glyph glyph-name="cid01004" unicode="&#x30f0;" horiz-adv-x="750" 
d="M701 239v-135h-87v-104h-133v104h-431v135h98v140h-98v135l90 81h341v98h133v-98l87 -81v-135h-87v-140h87zM481 239v140h-227v-140h227z" />
    <glyph glyph-name="cid01005" unicode="&#x30f1;" horiz-adv-x="748" 
d="M540 477h-492v135l90 81h474l87 -81v-135l-248 -246v-96h248v-135h-651v135h287v230h92z" />
    <glyph glyph-name="cid01006" unicode="&#x30f2;" horiz-adv-x="740" 
d="M563 477h-519v135l90 81h474l87 -81v-135l-416 -477l-71 71l178 204h-267v116h369z" />
    <glyph glyph-name="cid01007" unicode="&#x30f3;" horiz-adv-x="738" 
d="M364 693v-147h-322v147h322zM133 0l-95 95l559 598l96 -95v-121l-441 -477h-119z" />
    <glyph glyph-name="cid01008" unicode="&#x30f4;" horiz-adv-x="753" 
d="M606 775h90v-162h-90v162zM471 775h90v-162h-90v162zM173 365v-123h-123v258l90 81h188v113h108v-113h178l87 -81v-401l-123 -99h-123v123h123v242h-405z" />
    <glyph glyph-name="cid01009" unicode="&#x30f5;" horiz-adv-x="578" 
d="M228 520h100l-27 -84h226v-362l-92 -74h-92v92h92v182h-186l-89 -274h-101l89 274h-109v101l67 61h95z" />
    <glyph glyph-name="cid01010" unicode="&#x30f6;" horiz-adv-x="567" 
d="M211 439h242l73 -62v-100h-108l-64 -277h-92l65 277h-168l-27 -85h-101l106 328h100z" />
    <glyph glyph-name="nonmarkingreturn" horiz-adv-x="0" 
 />
    <glyph glyph-name="ohungarumlaut" unicode="&#x151;" horiz-adv-x="606" 
d="M42 252q0 54 18 103t52 86q75 79 194 79t189 -75q67 -71 67 -185t-69 -188q-73 -79 -193 -79q-124 0 -194 77q-64 71 -64 182zM160 255q0 -31 10.5 -59.5t29.5 -49.5q41 -44 106 -44q61 0 97 44q34 42 34 109q0 68 -35 110q-38 45 -103 45q-66 0 -104 -48
q-34 -44 -35 -107zM412 734q39 0 122 8v-3l-128 -158h-76zM224 734q25 0 44 1l69 7l-1 -3l-128 -158h-66z" />
    <glyph glyph-name="Racute" unicode="&#x154;" horiz-adv-x="563" 
d="M263 252q-15 -1 -31.5 -1t-49.5 3v-254h-129v653q68 9 168 9q136 0 202.5 -50t66.5 -155q0 -81 -61 -139q-20 -19 -46 -32l100 -210q29 -65 45 -77l-3 -2q-47 8 -149 -1zM230 546q-25 0 -48 -2v-187q24 -3 56.5 -3t54.5 5.5t38 17.5q35 26 34.5 77.5t-36.5 72.5
q-34 19 -99 19zM271 873q73 0 156 8v-3l-128 -158h-111z" />
    <glyph glyph-name="racute" unicode="&#x155;" horiz-adv-x="390" 
d="M170 55q0 -42 2 -55h-122v510h120v-37q42 47 87.5 47t71.5 -11l-9 -132l-2 -1q-17 30 -70 30q-21 0 -42 -14t-36 -37v-300zM199 734q73 0 157 8l-1 -3l-128 -158h-110z" />
    <glyph glyph-name="Rcommaaccent" unicode="&#x156;" horiz-adv-x="565" 
d="M264 252q-15 -1 -31.5 -1t-49.5 3v-254h-129v653q68 9 168 9q136 0 202.5 -50t66.5 -155q0 -81 -61 -139q-20 -19 -46 -32l100 -210q29 -65 45 -77l-3 -2q-47 8 -149 -1zM231 546q-25 0 -48 -2v-187q24 -3 56.5 -3t54.5 5.5t38 17.5q35 26 34.5 77.5t-36.5 72.5
q-34 19 -99 19zM227 -296q30 53 30 108.5t-5 94.5l121 19l4 -25q4 -27 4 -56t-3 -47t-8 -30q-12 -28 -40 -40q-31 -13 -100 -27z" />
    <glyph glyph-name="rcommaaccent" unicode="&#x157;" horiz-adv-x="382" 
d="M174 55q0 -42 2 -55h-122v510h120v-37q42 47 87.5 47t71.5 -11l-9 -132l-2 -1q-17 30 -70 30q-21 0 -42 -14t-36 -37v-300zM42 -296q30 53 30 108.5t-5 94.5l121 19l4 -25q4 -27 4 -56t-3 -47t-8 -30q-12 -28 -40 -40q-31 -13 -100 -27z" />
    <glyph glyph-name="Rcaron" unicode="&#x158;" horiz-adv-x="563" 
d="M263 252q-15 -1 -31.5 -1t-49.5 3v-254h-129v653q68 9 168 9q136 0 202.5 -50t66.5 -155q0 -81 -61 -139q-20 -19 -46 -32l100 -210q29 -65 45 -77l-3 -2q-47 8 -149 -1zM230 546q-25 0 -48 -2v-187q24 -3 56.5 -3t54.5 5.5t38 17.5q35 26 34.5 77.5t-36.5 72.5
q-34 19 -99 19zM303 668h-24q-21 0 -33 -1l-118 162l2 1q23 -1 128 -1l47 -87l56 87l124 1l2 -1l-124 -162z" />
    <glyph glyph-name="rcaron" unicode="&#x159;" horiz-adv-x="429" 
d="M178 55q0 -42 2 -55h-122v510h120v-37q42 47 87.5 47t71.5 -11l-9 -132l-2 -1q-17 30 -70 30q-21 0 -42 -14t-36 -37v-300zM211 580h-25q-21 0 -32 -1l-118 161l1 2q23 -1 129 -2l47 -86l55 86l125 2l2 -2l-125 -161z" />
    <glyph glyph-name="Sacute" unicode="&#x15a;" horiz-adv-x="561" 
d="M459 613l-9 -143l-4 -1q-36 54 -123 70q-27 5 -52 5t-43 -4t-31 -13q-26 -18 -26 -46q0 -37 23 -55q29 -22 97 -31.5t109 -25t67 -39.5q50 -45 50 -127q0 -107 -81 -165q-69 -50 -175 -50q-85 0 -168 32q-28 11 -48 25l6 163l2 1q61 -104 199 -104q98 0 129 47
q11 16 11 36t-6.5 33t-20.5 22q-28 19 -95 25t-109.5 24t-68.5 43q-46 47 -46 131q0 87 62 141q62 55 167 54.5t184 -48.5zM237 873q73 0 157 8l-1 -3l-128 -158h-110z" />
    <glyph glyph-name="sacute" unicode="&#x15b;" horiz-adv-x="507" 
d="M248 -7q-138 0 -208 50q1 15 3 33l4 35q4 35 5 43.5t1.5 9.5t8 -8t28 -21t47.5 -21q58 -20 121 -20q84 0 84 56q0 18 -16 27q-29 15 -84.5 22.5t-91.5 22t-58 34.5q-42 39 -42 101q0 76 59 120q58 43 161 43q102 0 173 -58q-3 -13 -7 -24q-11 -32 -17 -46l-11 -29
q-1 -4 -2 -4t-7 10q-31 36 -96 47q-20 4 -41 4q-89 0 -89 -54q1 -19 19 -28q35 -19 95 -27.5t91 -23.5t50 -36q35 -38 35 -101q0 -69 -55 -112q-57 -45 -160 -45zM247 734q73 0 156 8l-1 -3l-127 -158h-111z" />
    <glyph glyph-name="Scircumflex" unicode="&#x15c;" horiz-adv-x="561" 
d="M459 613l-9 -143l-4 -1q-36 54 -123 70q-27 5 -52 5t-43 -4t-31 -13q-26 -18 -26 -46q0 -37 23 -55q29 -22 97 -31.5t109 -25t67 -39.5q50 -45 50 -127q0 -107 -81 -165q-69 -50 -175 -50q-85 0 -168 32q-28 11 -48 25l6 163l2 1q61 -104 199 -104q98 0 129 47
q11 16 11 36t-6.5 33t-20.5 22q-28 19 -95 25t-109.5 24t-68.5 43q-46 47 -46 131q0 87 62 141q62 55 167 54.5t184 -48.5zM225 719q-105 0 -129 -1l-1 1l118 162q12 -1 32 -2h25l59 2l125 -162l-2 -1l-125 1l-55 87z" />
    <glyph glyph-name="scircumflex" unicode="&#x15d;" horiz-adv-x="506" 
d="M248 -7q-138 0 -208 50q1 15 3 33l4 35q4 35 5 43.5t1.5 9.5t8 -8t28 -21t47.5 -21q58 -20 121 -20q84 0 84 56q0 18 -16 27q-29 15 -84.5 22.5t-91.5 22t-58 34.5q-42 39 -42 101q0 76 59 120q58 43 161 43q102 0 173 -58q-3 -13 -7 -24q-11 -32 -17 -46l-11 -29
q-1 -4 -2 -4t-7 10q-31 36 -96 47q-20 4 -41 4q-89 0 -89 -54q1 -19 19 -28q35 -19 95 -27.5t91 -23.5t50 -36q35 -38 35 -101q0 -69 -55 -112q-57 -45 -160 -45zM205 580q-105 0 -129 -1l-1 1l118 162q12 -1 32 -2h25l59 2l125 -162l-2 -1l-125 1l-55 87z" />
    <glyph glyph-name="Scedilla" unicode="&#x15e;" horiz-adv-x="561" 
d="M332 -5q4 -31 4.5 -70.5t-10.5 -66t-26 -35.5q-29 -19 -105 -34l-3 3q24 34 32 144q2 29 3 54q-78 7 -143 34q-23 9 -39 21l6 163l2 1q61 -104 199 -104q98 0 129 47q11 16 11 36t-6.5 33t-20.5 22q-28 19 -95 25t-109.5 24t-68.5 43q-46 47 -46 131q0 87 62 141
q62 55 167 55t184 -49l-9 -143l-4 -1q-36 54 -123 70q-27 5 -52 5t-43 -4t-31 -13q-26 -18 -26 -46q0 -37 23 -55q29 -22 97 -31.5t109 -25t67 -39.5q50 -45 50 -127q0 -88 -55 -143q-48 -49 -130 -65z" />
    <glyph glyph-name="scedilla" unicode="&#x15f;" horiz-adv-x="508" 
d="M208 -6q-107 6 -167 49q1 15 3 33l4 35q4 35 5 43.5t1.5 9.5t8 -8t28 -21t47.5 -21q58 -20 121 -20q84 0 84 56q0 18 -16 27q-29 15 -84.5 22.5t-91.5 22t-58 34.5q-42 39 -42 101q0 76 59 120q58 43 161 43q102 0 173 -58q-3 -13 -7 -24q-11 -32 -17 -46l-11 -29
q-1 -4 -2 -4t-7 10q-31 36 -96 47q-20 4 -41 4q-89 0 -89 -54q1 -19 19 -28q35 -19 95 -27.5t91 -23.5t50 -36q35 -38 35 -101q0 -88 -85 -131q-28 -14 -66 -21q4 -33 4 -73t-10.5 -66.5t-25.5 -35.5q-29 -19 -105 -34l-3 3q23 34 32 147q3 30 3 55z" />
    <glyph glyph-name="Tcommaaccent" unicode="&#x162;" horiz-adv-x="544" 
d="M338 -3q-23 3 -120 3h-16v540h-97q-43 0 -51 -4l-12 -8h-1v125l1 2q16 -5 87 -6h307q43 0 50.5 4.5t12.5 8.5l1 -1v-125l-1 -1q-16 5 -87 5h-74v-543zM189 -296q30 53 30 108.5t-5 94.5l121 19l4 -25q4 -27 4 -56t-3 -47q-4 -18 -8 -30q-12 -28 -40 -40q-31 -13 -100 -27
z" />
    <glyph glyph-name="tcommaaccent" unicode="&#x163;" horiz-adv-x="443" 
d="M308 107q63 0 87 33h4l1 -113q-24 -24 -89 -32q-18 -2 -44 -2t-56.5 9.5t-51.5 31.5q-44 45 -45 142v222h-73q0 14 -1 29v75q0 8 1 8h73v139h120v-139h134v-112h-134v-199q0 -77 43 -88q13 -4 31 -4zM139 -296q30 53 30 108.5t-6 94.5l122 19l4 -25q4 -27 4 -56t-3 -47
t-8 -30q-12 -28 -40 -40q-31 -13 -100 -27z" />
    <glyph glyph-name="Tcaron" unicode="&#x164;" horiz-adv-x="542" 
d="M337 -3q-23 3 -120 3h-16v540h-97q-43 0 -50 -4l-13 -8h-1v125l1 2q16 -5 87 -6h307q43 0 50.5 4.5t12.5 8.5l1 -1v-125l-1 -1q-16 5 -87 5h-74v-543zM266 668h-25q-21 0 -33 -1l-118 162l2 1q23 -1 128 -1l48 -87l55 87l124 1l2 -1l-124 -162z" />
    <glyph glyph-name="tcaron" unicode="&#x165;" horiz-adv-x="576" 
d="M308 107q63 0 87 33h4l1 -113q-24 -24 -89 -32q-18 -2 -44 -2t-56.5 9.5t-51.5 31.5q-44 45 -45 142v222h-73q0 14 -1 29v75q0 8 1 8h73v139h120v-139h134v-112h-134v-199q0 -77 43 -88q13 -4 31 -4zM528 706q5 -51 5 -77.5t-1.5 -51t-4.5 -43.5q-7 -42 -17 -49
q-12 -8 -42 -13l-54 -12l-3 3q8 14 8 88v49q0 50 -3 86z" />
    <glyph glyph-name="Tbar" unicode="&#x166;" horiz-adv-x="543" 
d="M338 -3q-23 3 -120 3h-16v317h-99l1 13q2 16 2 24v16q0 8 -1 17l-1 15q0 8 -1 13h99v125h-97q-43 0 -51 -4l-12 -8h-1v125l1 2q16 -5 87 -6h307q43 0 50.5 4.5t12.5 8.5l1 -1v-125l-1 -1q-16 5 -87 5h-74v-125h94q-2 -24 -2 -45v-25q0 -3 2 -28h-94v-320z" />
    <glyph glyph-name="tbar" unicode="&#x167;" horiz-adv-x="449" 
d="M314 107q63 0 87 33h4l1 -113q-24 -24 -89 -32q-18 -2 -44 -2t-56.5 9.5t-51.5 31.5q-44 45 -45 142v57h-78l2 13q2 16 2 24v16q0 8 -1 17l-1 15q0 8 -1 13h77v67h-73q0 14 -1 29v75q0 8 1 8h73v139h120v-139h134v-112h-134v-67h132q-2 -24 -2 -45v-25q0 -3 2 -28h-132
v-34q0 -77 43 -88q13 -4 31 -4z" />
    <glyph glyph-name="Utilde" unicode="&#x168;" horiz-adv-x="614" 
d="M424 652q30 -2 50 -3h41q21 0 43 4v-403q0 -120 -73 -193q-69 -69 -173 -69q-114 0 -184 59q-79 66 -78 191v414q41 -2 77 -2q35 -1 58 3v-421q0 -62 38 -96q35 -31 88 -31q78 0 104 80q9 29 9 71v396zM224 764q-46 0 -82 -36h-2l-2 97q33 39 91 39q45 0 83.5 -26.5
t79.5 -26.5q58 0 76 41l1 -1l-5 -105q-8 -15 -29.5 -24.5t-45 -9.5t-38 4t-26.5 9.5t-22.5 12.5t-22.5 12q-27 14 -56 14z" />
    <glyph glyph-name="utilde" unicode="&#x169;" horiz-adv-x="534" 
d="M355 44q-62 -52 -136 -51q-79 0 -124 53q-43 52 -43 142v194q0 98 -4 112t-6 18q22 -2 47 -2h40q16 0 43 2v-283q0 -101 55 -117q17 -5 36 -5q58 0 92 42v361h122v-448q0 -43 3 -62h-125v44zM177 625q-46 0 -82 -37l-2 1l-2 97q33 39 91 39q45 0 83.5 -26.5t79.5 -26.5
q58 0 76 41l1 -1l-5 -106q-8 -15 -29.5 -24t-45 -9t-38 4t-26.5 9.5t-22.5 12t-22.5 12.5q-27 14 -56 14z" />
    <glyph glyph-name="Umacron" unicode="&#x16a;" horiz-adv-x="614" 
d="M424 652q30 -2 50 -3h41q21 0 43 4v-403q0 -120 -73 -193q-69 -69 -173 -69q-114 0 -184 59q-79 66 -78 191v414q41 -2 77 -2q35 -1 58 3v-421q0 -62 38 -96q35 -31 88 -31q78 0 104 80q9 29 9 71v396zM471 830q-2 -24 -1 -37v-17q0 -4 1 -29h-329l1 13q2 16 2.5 29
t-2.5 41h328z" />
    <glyph glyph-name="umacron" unicode="&#x16b;" horiz-adv-x="535" 
d="M356 44q-62 -52 -136 -51q-79 0 -124 53q-43 52 -43 142v194q0 98 -4 112t-6 18q22 -2 47 -2h40q16 0 43 2v-283q0 -101 55 -117q17 -5 36 -5q58 0 92 42v361h122v-448q0 -43 3 -62h-125v44zM422 744q-2 -24 -2 -37v-17q0 -4 2 -29h-329l1 12q2 16 2.5 29.5t-2.5 41.5
h328z" />
    <glyph glyph-name="Ubreve" unicode="&#x16c;" horiz-adv-x="614" 
d="M424 652q30 -2 50 -3h41q21 0 43 4v-403q0 -120 -73 -193q-69 -69 -173 -69q-114 0 -184 59q-79 66 -78 191v414q41 -2 77 -2q35 -1 58 3v-421q0 -62 38 -96q35 -31 88 -31q78 0 104 80q9 29 9 71v396zM472 882q5 -5 5 -33.5t-10 -56t-31 -49.5q-47 -49 -133 -49
q-85 0 -132 49q-41 43 -41 105q0 29 5 34l65 -2q5 -39 18 -57q29 -41 85 -41q57 0 84 38q15 21 20 60z" />
    <glyph glyph-name="ubreve" unicode="&#x16d;" horiz-adv-x="533" 
d="M355 44q-62 -52 -136 -51q-79 0 -124 53q-43 52 -43 142v194q0 98 -4 112t-6 18q22 -2 47 -2h40q16 0 43 2v-283q0 -101 55 -117q17 -5 36 -5q58 0 92 42v361h122v-448q0 -43 3 -62h-125v44zM425 786q5 -5 5 -33t-10 -56t-31 -50q-47 -49 -133 -49q-85 0 -132 49
q-41 43 -41 105q0 29 5 34l65 -1q5 -39 18 -57q29 -41 85 -41q57 0 84 38q15 21 20 60z" />
    <glyph glyph-name="Uring" unicode="&#x16e;" horiz-adv-x="614" 
d="M424 652q30 -2 50 -3h41q21 0 43 4v-403q0 -120 -73 -193q-69 -69 -173 -69q-114 0 -184 59q-79 66 -78 191v414q41 -2 77 -2q35 -1 58 3v-421q0 -62 38 -96q35 -31 88 -31q78 0 104 80q9 29 9 71v396zM301 667q-30 0 -54.5 8t-42.5 23q-37 31 -37 84q0 52 37 84
q37 34 103 34q59 0 96 -34q37 -33 37 -82q0 -54 -39 -85q-38 -32 -100 -32zM278 740q11 -4 24 -4t23.5 4t18.5 10q17 15 17 29t-4 23t-11 15q-17 16 -38 16t-32 -4t-17 -12q-14 -13 -14 -27.5t3.5 -23.5t11 -15.5t18.5 -10.5z" />
    <glyph glyph-name="uring" unicode="&#x16f;" horiz-adv-x="533" 
d="M355 44q-62 -52 -136 -51q-79 0 -124 53q-43 52 -43 142v194q0 98 -4 112t-6 18q22 -2 47 -2h40q16 0 43 2v-283q0 -101 55 -117q17 -5 36 -5q58 0 92 42v361h122v-448q0 -43 3 -62h-125v44zM253 576q-30 0 -54 8t-42 22q-37 31 -37 84q0 52 37 85t103 34q59 0 96 -34
q37 -33 37 -82q0 -54 -40 -86q-38 -31 -100 -31zM231 649q11 -4 24 -4t23.5 3.5t17.5 10.5q17 14 17 28.5t-3.5 23t-10.5 16.5q-17 16 -38 15.5t-32 -5t-18 -10.5q-14 -14 -13.5 -28.5t4 -23.5t11 -15.5t18.5 -10.5z" />
    <glyph glyph-name="Uhungarumlaut" unicode="&#x170;" horiz-adv-x="614" 
d="M424 652q30 -2 50 -3h41q21 0 43 4v-403q0 -120 -73 -193q-69 -69 -173 -69q-114 0 -184 59q-79 66 -78 191v414q41 -2 77 -2q35 -1 58 3v-421q0 -62 38 -96q35 -31 88 -31q78 0 104 80q9 29 9 71v396zM417 883q39 0 122 8l-1 -3l-128 -158h-76zM229 883q25 0 44 2l68 6
v-3l-128 -158h-67z" />
    <glyph glyph-name="uhungarumlaut" unicode="&#x171;" horiz-adv-x="537" 
d="M356 44q-62 -52 -136 -51q-79 0 -124 53q-43 52 -43 142v194q0 98 -4 112t-6 18q22 -2 47 -2h40q16 0 43 2v-283q0 -101 55 -117q17 -5 36 -5q58 0 92 42v361h122v-448q0 -43 3 -62h-125v44zM371 734q39 0 122 8l-1 -3l-128 -158h-76zM183 734q25 0 44 1l68 7l-1 -3
l-127 -158h-67z" />
    <glyph glyph-name="Uogonek" unicode="&#x172;" horiz-adv-x="614" 
d="M406 -158q18 0 29 8l1 -2l-27 -119q-85 0 -146 33q-75 40 -75 118q0 62 54 115q-135 28 -177 147q-15 42 -15 96v414q41 -2 76.5 -2.5t58.5 3.5v-421q0 -62 38 -96q35 -31 88 -31q78 0 104 80q9 29 9 71v396q30 -2 50 -3h30q31 0 54 4v-403q0 -122 -74 -194
q-23 -22 -37.5 -30.5t-17.5 -9.5l-10 -5l-19 -9q-13 -7 -31 -20t-32 -27q-29 -32 -29 -61q0 -52 98 -52z" />
    <glyph glyph-name="uogonek" unicode="&#x173;" horiz-adv-x="535" 
d="M297 7q-35 -15 -76 -14.5t-72 14.5t-53 39q-43 52 -43 142v194q0 98 -4 112t-6 18q22 -2 47 -2h40q16 0 43 2v-283q0 -101 55 -117q17 -5 36 -5q58 0 92 42v361h122v-448q0 -43 3 -62h-6l1 -1q-53 0 -92 -34q-35 -32 -35 -71q0 -51 98 -52q18 0 29 8l1 -2l-36 -119
q-138 0 -192 79q-20 29 -20 65q0 77 68 134z" />
    <glyph glyph-name="Wcircumflex" unicode="&#x174;" horiz-adv-x="897" 
d="M348 -2q-15 2 -49 2h-57q-17 0 -27 -1l-1 1q2 3 2 7.5t-0.5 9.5t-4 17.5t-9.5 36.5l-166 580q31 -2 75.5 -2t57.5 4l115 -442l113 440q7 0 13 -1h11q16 -1 40.5 -1t49.5 4l115 -442l98 440q29 -2 76.5 -2t57.5 4l-140 -515q-27 -89 -28.5 -105.5t-1.5 -23t2 -9.5l-1 -2
q-16 2 -50 2h-53q-24 0 -34 -1l-1 1q2 3 2 7.5t-0.5 9t-2.5 17t-7 36.5l-13 67l-81 304l-76 -303q-23 -93 -24 -107q-2 -27 0 -31zM400 719q-105 0 -128 -1l-2 1l118 162q12 -1 33 -2h25l59 2l124 -162l-2 -1l-124 1l-55 87z" />
    <glyph glyph-name="wcircumflex" unicode="&#x175;" horiz-adv-x="823" 
d="M37 510h132l91 -366l97 366h113l101 -374l90 374h119l-151 -510h-126l-97 334l-90 -334h-125zM359 580q-105 0 -128 -1l-2 1l118 162q12 -1 33 -2h25l59 2l124 -162l-2 -1l-124 1l-55 87z" />
    <glyph glyph-name="Ycircumflex" unicode="&#x176;" horiz-adv-x="656" 
d="M256 0q6 19 7 89v136q-84 186 -108 232t-40 73q-51 86 -61.5 98.5t-20.5 20.5h168q5 -10 15 -28l118 -250q8 21 19 46q106 229 108 232h161q-25 -20 -61 -84q-11 -19 -22 -43l-110 -230q-19 -42 -32 -75v-140q0 -49 6 -77h-147zM278 719q-105 0 -129 -1l-1 1l118 162
q12 -1 32 -2h25l59 2l125 -162l-2 -1l-125 1l-55 87z" />
    <glyph glyph-name="ycircumflex" unicode="&#x177;" horiz-adv-x="578" 
d="M47 -170l32 26q73 59 121 174l22 54l-187 426h137l117 -295l109 295h141q-25 -35 -62 -131l-74 -181q-147 -346 -230 -412zM251 580q-105 0 -129 -1l-1 1l118 162q12 -1 32 -2h25l59 2l125 -162l-2 -1l-125 1l-55 87z" />
    <glyph glyph-name="Zacute" unicode="&#x179;" horiz-adv-x="563" 
d="M60 605q0 16 -2 44h463l-284 -532h177q69 0 82 4t20 8v-136q-21 2 -34.5 3.5t-29.5 2.5q-23 1 -88 1h-329l294 532h-154q-95 0 -121 -10q6 24 6 69v14zM241 873q73 0 157 8l-1 -3l-128 -158h-110z" />
    <glyph glyph-name="zacute" unicode="&#x17a;" horiz-adv-x="533" 
d="M78 487l-1 23h412l-249 -412h192q43 0 58 12l-32 -117q-21 1 -52 2l-60 3q-56 2 -106 2q-110 0 -206 -7l256 422h-121q-57 0 -93 -13q2 38 2 59v26zM250 734q73 0 156 8l-1 -3l-127 -158h-111z" />
    <glyph glyph-name="Zdotaccent" unicode="&#x17b;" horiz-adv-x="563" 
d="M60 605q0 16 -2 44h463l-284 -532h177q69 0 82 4t20 8v-136q-21 2 -34.5 3.5t-29.5 2.5q-23 1 -88 1h-329l294 532h-154q-95 0 -121 -10q6 24 6 69v14zM195 790q32 51 73 96l93 -74q-24 -31 -33 -43l-17 -24q-8 -11 -18 -25z" />
    <glyph glyph-name="zdotaccent" unicode="&#x17c;" horiz-adv-x="533" 
d="M78 487l-1 23h412l-249 -412h192q43 0 58 12l-32 -117q-21 1 -52 2l-60 3q-56 2 -106 2q-110 0 -206 -7l256 422h-121q-57 0 -93 -13q2 38 2 59v26zM174 652q32 51 73 96l93 -74q-24 -31 -33 -43l-17 -24q-8 -11 -18 -25z" />
    <glyph glyph-name="AEacute" unicode="&#x1fc;" horiz-adv-x="873" 
d="M178 -4q-53 4 -105 4h-38l342 595l17 27q8 13 8 19t-1 9v1q31 -1 68 -2h102h58l58 1q64 0 130 3q-5 -43 -5 -114q0 -8 1 -12l-1 -2q-26 7 -72 8h-162v-125h128q54 0 65 3l1 -120q-23 2 -61 2h-133v-176h207q30 0 42 6h2l-5 -123h-370l1 141h-199zM456 258l2 258
l-139 -258h137zM545 873q73 0 156 8v-3l-128 -158h-111z" />
    <glyph glyph-name="aeacute" unicode="&#x1fd;" horiz-adv-x="882" 
d="M416 51q-75 -58 -181 -58q-89 0 -142 48q-52 47 -52 121q0 81 73 135q74 55 185 55q15 0 23 -1q-18 69 -103 68q-57 0 -105 -40q-15 -13 -27 -28l-1 1l-15 113q70 55 173.5 55t160.5 -73q75 73 199 73q99 0 166 -66q68 -66 68 -170q0 -28 -6 -52q-54 -15 -204 -14h-81
h-59h-40q13 -53 60.5 -82t133.5 -29t149 52q-2 -54 -7 -128q-39 -25 -119 -35q-24 -3 -48 -3q-125 0 -201 58zM458 325q13 0 31 -1h35h35h26h55l45 2q18 0 31 1q-17 56 -83 75q-21 6 -43.5 6t-42.5 -6t-37 -16q-34 -22 -52 -61zM354 132q-28 48 -29 118q-10 1 -33 1
t-49.5 -5.5t-44.5 -16.5q-37 -21 -37 -55.5t23.5 -55.5t59.5 -21q68 0 110 35zM422 734q73 0 156 8v-3l-128 -158h-111z" />
    <glyph glyph-name="Scommaaccent" unicode="&#x218;" horiz-adv-x="561" 
d="M459 613l-9 -143l-4 -1q-36 54 -123 70q-27 5 -52 5t-43 -4t-31 -13q-26 -18 -26 -46q0 -37 23 -55q29 -22 97 -31.5t109 -25t67 -39.5q50 -45 50 -127q0 -107 -81 -165q-69 -50 -175 -50q-85 0 -168 32q-28 11 -48 25l6 163l2 1q61 -104 199 -104q98 0 129 47
q11 16 11 36t-6.5 33t-20.5 22q-28 19 -95 25t-109.5 24t-68.5 43q-46 47 -46 131q0 87 62 141q62 55 167 54.5t184 -48.5zM193 -296q30 53 30 108.5t-6 94.5l122 19l4 -25q4 -27 4 -56t-3 -47t-8 -30q-12 -28 -40 -40q-31 -13 -100 -27z" />
    <glyph glyph-name="scommaaccent" unicode="&#x219;" horiz-adv-x="508" 
d="M249 -7q-138 0 -208 50q1 15 3 33l4 35q4 35 5 43.5t1.5 9.5t8 -8t28 -21t47.5 -21q58 -20 121 -20q84 0 84 56q0 18 -16 27q-29 15 -84.5 22.5t-91.5 22t-58 34.5q-42 39 -42 101q0 76 59 120q58 43 161 43q102 0 173 -58q-3 -13 -7 -24q-11 -32 -17 -46l-11 -29
q-1 -4 -2 -4t-7 10q-31 36 -96 47q-20 4 -41 4q-89 0 -89 -54q1 -19 19 -28q35 -19 95 -27.5t91 -23.5t50 -36q35 -38 35 -101q0 -69 -55 -112q-57 -45 -160 -45zM174 -296q30 53 30 108.5t-6 94.5l122 19l4 -25q4 -27 4 -56t-3 -47t-8 -30q-12 -28 -40 -40
q-31 -13 -100 -27z" />
    <glyph glyph-name="dotlessj" unicode="&#x237;" horiz-adv-x="342" 
d="M95 -76q71 0 71 108v478h120v-443q0 -205 -117 -243q-38 -12 -86 -12l-51 128l1 3q28 -19 62 -19z" />
    <glyph glyph-name="caron" unicode="&#x2c7;" horiz-adv-x="440" 
d="M215 580h-25q-21 0 -32 -1l-118 161l1 2q23 -1 129 -2l47 -86l55 86l125 2l2 -2l-125 -161z" />
    <glyph glyph-name="breve" unicode="&#x2d8;" horiz-adv-x="436" 
d="M387 786q5 -5 5 -33t-10 -56t-31 -50q-47 -49 -132 -49t-133 49q-41 43 -41 105q0 29 5 34l65 -1q5 -39 18 -57q29 -41 86 -41t83 38q15 21 20 60z" />
    <glyph glyph-name="dotaccent" unicode="&#x2d9;" horiz-adv-x="250" 
d="M42 652q32 51 72 96l94 -74q-24 -31 -34 -43l-17 -24q-8 -11 -17 -25z" />
    <glyph glyph-name="ring" unicode="&#x2da;" horiz-adv-x="365" 
d="M180 576q-30 0 -54.5 8t-42.5 22q-37 31 -37 84q0 52 37 85q38 33 104 34q59 0 95 -34q37 -33 37 -82q0 -54 -39 -86q-38 -31 -100 -31zM157 649q11 -4 24 -4t23.5 3.5t18.5 10.5q17 14 17 28.5t-4 23t-11 16.5q-17 16 -38 15.5t-31.5 -5t-17.5 -10.5q-14 -14 -14 -28.5
t3.5 -23.5t11 -15.5t18.5 -10.5z" />
    <glyph glyph-name="ogonek" unicode="&#x2db;" horiz-adv-x="336" 
d="M228.5 -155.5q15.5 -2.5 32 -2.5t27.5 8l1 -2l-51 -119q-86 0 -131 25q-60 34 -61 111q0 48 34 98q14 22 33.5 33t56.5 24l68 -20q-29 -18 -50 -57q-17 -30 -17 -46.5t8 -26.5t21 -16.5t28.5 -9z" />
    <glyph glyph-name="hungarumlaut" unicode="&#x2dd;" horiz-adv-x="473" 
d="M310 734q39 0 122 8v-3l-128 -158h-76zM122 734q25 0 44 1l68 7v-3l-128 -158h-66z" />
    <glyph glyph-name="Delta" unicode="&#x394;" horiz-adv-x="674" 
d="M265 691h105l267 -691h-600zM209 116h248l-138 372z" />
    <glyph glyph-name="Delta" unicode="&#x2206;" horiz-adv-x="674" 
d="M265 691h105l267 -691h-600zM209 116h248l-138 372z" />
    <glyph glyph-name="Omega" unicode="&#x3a9;" horiz-adv-x="685" 
d="M289 51q0 -29 -14 -58h-226l2 115q11 -3 64 -3h39q-11 22 -28.5 45.5t-33.5 53.5q-40 73 -40 169q0 130 75 206q74 75 202 74q118 0 192 -78t74 -202q0 -120 -61 -223q-14 -22 -21 -45h72q39 0 51 3l1 -115h-233q-15 37 -15 70t6 57t14 46.5t17.5 44.5t18.5 45
q19 55 19 102t-10.5 83t-28.5 57q-34 38 -102 38q-151 0 -151 -184q0 -56 58 -150q35 -57 47 -89.5t12 -61.5z" />
    <glyph glyph-name="Omega" unicode="&#x2126;" horiz-adv-x="685" 
d="M289 51q0 -29 -14 -58h-226l2 115q11 -3 64 -3h39q-11 22 -28.5 45.5t-33.5 53.5q-40 73 -40 169q0 130 75 206q74 75 202 74q118 0 192 -78t74 -202q0 -120 -61 -223q-14 -22 -21 -45h72q39 0 51 3l1 -115h-233q-15 37 -15 70t6 57t14 46.5t17.5 44.5t18.5 45
q19 55 19 102t-10.5 83t-28.5 57q-34 38 -102 38q-151 0 -151 -184q0 -56 58 -150q35 -57 47 -89.5t12 -61.5z" />
    <glyph glyph-name="pi" unicode="&#x3c0;" horiz-adv-x="635" 
d="M498 55q0 -42 2 -55h-122v407h-128q-10 -274 -63 -379q-7 -15 -12 -20.5t-5 -7.5h-121q65 147 76 304q3 49 5 103h-86l1 13q2 16 2.5 39.5t-2.5 50.5h542q-2 -24 -2 -47v-27q0 -3 2 -29h-89v-352z" />
    <glyph glyph-name="uni1E02" unicode="&#x1e02;" horiz-adv-x="576" 
d="M370 3.5q-57 -15.5 -140 -15.5t-177 15v643q95 15 164.5 15.5t114 -13t73.5 -35.5q56 -43 55.5 -112.5t-50.5 -114.5q60 -19 92 -71q30 -46 30 -102.5t-16.5 -96.5t-52.5 -68.5t-93 -44zM182 404q21 -3 51.5 -3.5t50.5 8t31 20.5q18 20 17 55q0 75 -88 75q-37 0 -62 -3
v-152zM255 299q-41 0 -73 -5v-192q34 -9 72 -9t66.5 9t47.5 25q40 32 40 82q0 90 -153 90zM221 790q32 51 73 96l93 -74q-24 -31 -33 -43l-17 -24q-8 -11 -17 -25z" />
    <glyph glyph-name="uni1E03" unicode="&#x1e03;" horiz-adv-x="567" 
d="M172 492q55 28 112 28t98 -18t73 -51q68 -74 67 -186q0 -124 -73 -200q-71 -73 -177 -72q-93 0 -152 48q-67 55 -68 151v535h120v-235zM172 193q0 -86 107 -86q52 0 88 46q36 47 36 117t-38 106q-34 32 -92 32q-35 0 -77 -24q-13 -7 -24 -16v-175zM238 652q32 51 73 96
l93 -74q-24 -31 -33 -43l-17 -24q-8 -11 -18 -25z" />
    <glyph glyph-name="uni1E0A" unicode="&#x1e0a;" horiz-adv-x="614" 
d="M203 -12q-79 0 -149 12v654q64 8 149.5 8t154.5 -23.5t116 -66.5q94 -86 93 -240q0 -173 -104 -264q-94 -80 -260 -80zM181 107q32 -6 63.5 -6t68.5 12.5t64 38.5q58 56 57 162q0 175 -127 215q-42 13 -97 13h-14h-15v-435zM230 790q32 51 72 96l94 -74q-24 -31 -34 -43
l-17 -24q-8 -11 -17 -25z" />
    <glyph glyph-name="uni1E0B" unicode="&#x1e0b;" horiz-adv-x="591" 
d="M421 27q-62 -35 -124 -34.5t-108.5 20t-79.5 53.5q-67 70 -67 183q0 116 78 193q79 78 201 78q38 0 74 -10v218h120v-522q0 -65 6 -85t13.5 -29.5t19.5 -17.5l-92 -81q-25 13 -41 34zM320 105q41 0 75 16v270q-34 14 -74 14t-68.5 -10.5t-49.5 -29.5q-43 -40 -43 -104
q0 -70 39 -112q42 -44 121 -44zM165 652q32 51 73 96l93 -74q-24 -31 -33 -43l-17 -24q-8 -11 -18 -25z" />
    <glyph glyph-name="uni1E1E" unicode="&#x1e1e;" horiz-adv-x="468" 
d="M395 281q-23 2 -60 2h-148v-283h-134v653q13 -1 30 -2l36 -1q37 -1 78 -1q120 0 229 4q-5 -43 -5 -114q0 -8 1 -12l-1 -2q-26 7 -73 8h-161v-135h142q54 0 65 3zM166 790q32 51 73 96l93 -74q-24 -31 -33 -43l-17 -24q-8 -11 -18 -25z" />
    <glyph glyph-name="uni1E1F" unicode="&#x1e1f;" horiz-adv-x="418" 
d="M351 454q-4 -14 -3 -71v-43h-118v-340h-120v340h-72q0 32 1 57l1 52v5h70v30q0 117 55 189q57 74 157 74q42 0 56 -6l1 -123l-1 -2q-19 19 -47.5 18.5t-46 -10t-29.5 -26.5q-25 -35 -25 -97v-47h121zM53 797q32 51 72 96l94 -74q-24 -31 -34 -43l-17 -24q-8 -11 -17 -25z
" />
    <glyph glyph-name="uni1E40" unicode="&#x1e40;" horiz-adv-x="691" 
d="M184 -3q-23 3 -91 3h-39v651q31 -2 69 -2t53 4l165 -278l157 278q16 -4 60 -4t75 2v-651h-39q-67 0 -90 -3v438l-160 -286l-160 263v-415zM260 790q32 51 73 96l93 -74q-24 -31 -33 -43l-17 -24q-8 -11 -17 -25z" />
    <glyph glyph-name="uni1E41" unicode="&#x1e41;" horiz-adv-x="795" 
d="M175 141q0 -110 4 -141h-128v510h124v-44q67 54 137 54q83 0 120 -72q38 39 63 51q42 21 83.5 21t71 -14t48.5 -40q39 -52 38 -144v-194q0 -83 2.5 -99.5t6.5 -21.5t7 -8l-1 -2q-39 3 -57 3h-37q-18 0 -44 -1v264q0 114 -36 135q-12 7 -27.5 7t-27.5 -3.5t-23 -11.5
q-18 -13 -41 -52v-8v-129q0 -125 6 -201h-70q-29 0 -56 -1v264q0 80 -9.5 104t-20 31t-26.5 7q-64 0 -107 -62v-202zM330 652q32 51 73 96l93 -74q-24 -31 -33 -43l-17 -24q-8 -11 -18 -25z" />
    <glyph glyph-name="uni1E56" unicode="&#x1e56;" horiz-adv-x="512" 
d="M53 653q68 9 139 9q133 0 202 -62.5t69 -186.5q0 -111 -76 -175q-71 -61 -182 -61q-13 0 -28 2v-179h-124v653zM207 544q-15 0 -30 -1v-257q16 -2 38.5 -2t47 9.5t40.5 26.5q35 36 35 94q0 130 -131 130zM145 790q32 51 73 96l93 -74q-24 -31 -33 -43l-17 -24
q-8 -11 -17 -25z" />
    <glyph glyph-name="uni1E57" unicode="&#x1e57;" horiz-adv-x="568" 
d="M170 10v-143q0 -42 2 -55h-122v698h120v-31q59 42 113 41.5t96 -15.5t74 -47q70 -69 70 -196q0 -84 -40 -151q-34 -56 -93 -90q-53 -30 -114.5 -30t-105.5 19zM170 133q37 -31 96 -31q97 0 125 93q10 32 10 68.5t-7 58t-18 37.5t-24.5 26.5t-27.5 16.5q-25 11 -51.5 11.5
t-55 -12t-47.5 -32.5v-236zM203 652q32 51 73 96l93 -74q-24 -31 -33 -43l-17 -24q-8 -11 -17 -25z" />
    <glyph glyph-name="uni1E60" unicode="&#x1e60;" horiz-adv-x="561" 
d="M459 613l-9 -143l-4 -1q-36 54 -123 70q-27 5 -52 5t-43 -4t-31 -13q-26 -18 -26 -46q0 -37 23 -55q29 -22 97 -31.5t109 -25t67 -39.5q50 -45 50 -127q0 -107 -81 -165q-69 -50 -175 -50q-85 0 -168 32q-28 11 -48 25l6 163l2 1q61 -104 199 -104q98 0 129 47
q11 16 11 36t-6.5 33t-20.5 22q-28 19 -95 25t-109.5 24t-68.5 43q-46 47 -46 131q0 87 62 141q62 55 167 54.5t184 -48.5zM191 790q32 51 73 96l93 -74q-24 -31 -33 -43l-17 -24q-8 -11 -18 -25z" />
    <glyph glyph-name="uni1E61" unicode="&#x1e61;" horiz-adv-x="507" 
d="M248 -7q-138 0 -208 50q1 15 3 33l4 35q4 35 5 43.5t1.5 9.5t8 -8t28 -21t47.5 -21q58 -20 121 -20q84 0 84 56q0 18 -16 27q-29 15 -84.5 22.5t-91.5 22t-58 34.5q-42 39 -42 101q0 76 59 120q58 43 161 43q102 0 173 -58q-3 -13 -7 -24q-11 -32 -17 -46l-11 -29
q-1 -4 -2 -4t-7 10q-31 36 -96 47q-20 4 -41 4q-89 0 -89 -54q1 -19 19 -28q35 -19 95 -27.5t91 -23.5t50 -36q35 -38 35 -101q0 -69 -55 -112q-57 -45 -160 -45zM171 652q32 51 73 96l93 -74q-24 -31 -33 -43l-17 -24q-8 -11 -18 -25z" />
    <glyph glyph-name="uni1E6A" unicode="&#x1e6a;" horiz-adv-x="542" 
d="M337 -3q-23 3 -120 3h-16v540h-97q-43 0 -50 -4l-13 -8h-1v125l1 2q16 -5 87 -6h307q43 0 50.5 4.5t12.5 8.5l1 -1v-125l-1 -1q-16 5 -87 5h-74v-543zM186 790q32 51 73 96l93 -74q-24 -31 -33 -43l-17 -24q-8 -11 -17 -25z" />
    <glyph glyph-name="uni1E6B" unicode="&#x1e6b;" horiz-adv-x="443" 
d="M308 107q63 0 87 33h4l1 -113q-24 -24 -89 -32q-18 -2 -44 -2t-56.5 9.5t-51.5 31.5q-44 45 -45 142v222h-73q0 14 -1 29v75q0 8 1 8h73v139h120v-139h134v-112h-134v-199q0 -77 43 -88q13 -4 31 -4zM89 735q32 51 73 96l93 -74q-24 -31 -33 -43l-17 -24q-8 -11 -18 -25z
" />
    <glyph glyph-name="Wgrave" unicode="&#x1e80;" horiz-adv-x="898" 
d="M349 -2q-15 2 -49 2h-57q-17 0 -27 -1l-1 1q2 3 2 7.5t-0.5 9.5t-4 17.5t-9.5 36.5l-166 580q31 -2 75.5 -2t57.5 4l115 -442l113 440q7 0 13 -1h11q16 -1 40.5 -1t49.5 4l115 -442l98 440q29 -2 76.5 -2t57.5 4l-140 -515q-27 -89 -28.5 -105.5t-1.5 -23t2 -9.5l-1 -2
q-16 2 -50 2h-53q-24 0 -34 -1l-1 1q2 3 2 7.5t-0.5 9t-2.5 17t-7 36.5l-13 67l-81 304l-76 -303q-23 -93 -24 -107q-2 -27 0 -31zM331 881q83 -8 157 -8l82 -153h-110l-128 158z" />
    <glyph glyph-name="wgrave" unicode="&#x1e81;" horiz-adv-x="823" 
d="M37 510h132l91 -366l97 366h113l101 -374l90 374h119l-151 -510h-126l-97 334l-90 -334h-125zM260 742q83 -8 156 -8l83 -153h-111l-127 158z" />
    <glyph glyph-name="Wacute" unicode="&#x1e82;" horiz-adv-x="897" 
d="M348 -2q-15 2 -49 2h-57q-17 0 -27 -1l-1 1q2 3 2 7.5t-0.5 9.5t-4 17.5t-9.5 36.5l-166 580q31 -2 75.5 -2t57.5 4l115 -442l113 440q7 0 13 -1h11q16 -1 40.5 -1t49.5 4l115 -442l98 440q29 -2 76.5 -2t57.5 4l-140 -515q-27 -89 -28.5 -105.5t-1.5 -23t2 -9.5l-1 -2
q-16 2 -50 2h-53q-24 0 -34 -1l-1 1q2 3 2 7.5t-0.5 9t-2.5 17t-7 36.5l-13 67l-81 304l-76 -303q-23 -93 -24 -107q-2 -27 0 -31zM413 873q73 0 156 8v-3l-128 -158h-111z" />
    <glyph glyph-name="wacute" unicode="&#x1e83;" horiz-adv-x="823" 
d="M37 510h132l91 -366l97 366h113l101 -374l90 374h119l-151 -510h-126l-97 334l-90 -334h-125zM401 734q73 0 156 8v-3l-128 -158h-110z" />
    <glyph glyph-name="Wdieresis" unicode="&#x1e84;" horiz-adv-x="898" 
d="M349 -2q-15 2 -49 2h-57q-17 0 -27 -1l-1 1q2 3 2 7.5t-0.5 9.5t-4 17.5t-9.5 36.5l-166 580q31 -2 75.5 -2t57.5 4l115 -442l113 440q7 0 13 -1h11q16 -1 40.5 -1t49.5 4l115 -442l98 440q29 -2 76.5 -2t57.5 4l-140 -515q-27 -89 -28.5 -105.5t-1.5 -23t2 -9.5l-1 -2
q-16 2 -50 2h-53q-24 0 -34 -1l-1 1q2 3 2 7.5t-0.5 9t-2.5 17t-7 36.5l-13 67l-81 304l-76 -303q-23 -93 -24 -107q-2 -27 0 -31zM620 837q-2 -24 -2 -62t2 -55h-129q4 30 4 60t-3 57h128zM410 837q-2 -24 -2 -62t2 -55h-129q4 30 4 60t-3 57h128z" />
    <glyph glyph-name="wdieresis" unicode="&#x1e85;" horiz-adv-x="823" 
d="M37 510h132l91 -366l97 366h113l101 -374l90 374h119l-151 -510h-126l-97 334l-90 -334h-125zM578 698q-2 -24 -2 -62t2 -55h-129q4 30 4 59.5t-3 57.5h128zM368 698q-2 -24 -1.5 -62t1.5 -55h-129q4 30 4 59.5t-3 57.5h128z" />
    <glyph glyph-name="Ygrave" unicode="&#x1ef2;" horiz-adv-x="656" 
d="M256 0q6 19 7 89v136q-84 186 -108 232t-40 73q-51 86 -61.5 98.5t-20.5 20.5h168q5 -10 15 -28l118 -250q8 21 19 46q106 229 108 232h161q-25 -20 -61 -84q-11 -19 -22 -43l-110 -230q-19 -42 -32 -75v-140q0 -49 6 -77h-147zM208 881q83 -8 156 -8l83 -153h-111
l-128 158v3z" />
    <glyph glyph-name="ygrave" unicode="&#x1ef3;" horiz-adv-x="579" 
d="M48 -170l32 26q73 59 121 174l22 54l-187 426h137l117 -295l109 295h141q-25 -35 -62 -131l-74 -181q-147 -346 -230 -412zM152 742q83 -8 157 -8l82 -153h-110l-128 158z" />
    <glyph glyph-name="fraction" unicode="&#x2044;" horiz-adv-x="552" 
d="M398 649h119l-366 -649h-120z" />
    <glyph glyph-name="partialdiff" unicode="&#x2202;" horiz-adv-x="552" 
d="M73 654q55 9 117.5 9.5t117 -20.5t91.5 -55.5t59 -79t33 -91.5q19 -74 19 -151t-19.5 -123.5t-52.5 -80.5q-69 -70 -168 -69q-100 0 -167 66q-65 65 -65 157q0 110 71 174q63 57 158 57q48 0 96 -33q-22 70 -63 105q-50 42 -130 42q-31 0 -77 -8zM386 242
q-3 18 -18.5 40.5t-29.5 31.5q-26 18 -76 18q-42 0 -68 -30t-26 -80q0 -49 29 -81q31 -34 83 -34q72 0 98 74q9 25 8 61z" />
    <glyph glyph-name="product" unicode="&#x220f;" horiz-adv-x="559" 
d="M171 -83q-23 3 -109 3h-15v614h-1l1 108v9h459l1 -117h-1v-617q-23 3 -91 3h-34v614h-210v-617z" />
    <glyph glyph-name="summation" unicode="&#x2211;" horiz-adv-x="538" 
d="M39 -84q2 31 1.5 51.5t-3.5 35.5l229 280l-229 272q4 16 3.5 40t-1.5 55h454q0 -82 3 -105h-288l216 -257l-206 -267h278q-3 -23 -3 -105h-454z" />
    <glyph glyph-name="minus" unicode="&#x2212;" horiz-adv-x="431" 
d="M114 244q-37 0 -60 -2l1 120q11 -3 65 -3h190q54 0 64 3l2 -120q-23 2 -61 2h-201z" />
    <glyph glyph-name="radical" unicode="&#x221a;" horiz-adv-x="723" 
d="M168 507q54 0 65 3l122 -333l201 722h135l-285 -899h-101l-166 392h-42q-37 0 -61 -2l1 120q11 -3 65 -3h66z" />
    <glyph glyph-name="infinity" unicode="&#x221e;" horiz-adv-x="786" 
d="M553 98q-117 0 -173 92q-37 -62 -98 -81q-18 -6 -33 -6q-99 0 -156 78q-49 68 -49 166q0 118 67 181q55 53 118 53q62 0 90.5 -14t48 -32t39.5 -47q37 68 103 87q21 6 49.5 6t62 -13t60.5 -42q59 -62 58 -175q0 -118 -55 -187q-52 -66 -132 -66zM452 384q39 -162 93 -161
q31 0 52 31t21 89.5t-20.5 91.5t-56.5 32q-50 -2 -89 -83zM166 352q0 -125 100 -125q23 0 39 13t30 42q-5 16 -9.5 35t-12.5 40l-14 40q-14 40 -29 51t-30.5 11t-28.5 -7.5t-23 -21.5q-22 -32 -22 -78z" />
    <glyph glyph-name="integral" unicode="&#x222b;" horiz-adv-x="375" 
d="M32 -118q30 -19 64 -19q62 0 62 81q0 12 -1 27l-58 655q-3 31 -3 75t12.5 80.5t40.5 58.5q52 41 180 41l12 -129l-1 -2q-30 19 -64 19q-62 1 -62 -81q0 -13 1 -27l58 -655q3 -31 3 -75t-12 -80.5t-40 -58.5q-52 -41 -179 -41l-14 128z" />
    <glyph glyph-name="approxequal" unicode="&#x2248;" horiz-adv-x="722" 
d="M521 415q104 0 138 100l3 -2l9 -133q-42 -78 -165 -78q-66 0 -156 65q-55 40 -85.5 52.5t-55.5 12.5t-45.5 -4.5t-38.5 -15.5q-36 -21 -66 -71l-3 2l-4 135q60 69 170 69q59 0 156 -66t143 -66zM516 129q104 0 138 100l3 -1l10 -134q-42 -78 -165 -77q-66 0 -156 65
q-55 40 -86 52t-56 12t-45.5 -4.5t-38.5 -15.5q-36 -21 -65 -70l-3 1l-4 135q60 69 169 69q59 0 156 -66t143 -66z" />
    <glyph glyph-name="lessequal" unicode="&#x2264;" horiz-adv-x="416" 
d="M40 456l329 203v-137l-215 -121l215 -132v-137l-329 219v105zM102 -12q-37 0 -61 -3l2 116q11 -3 64 -3h190q53 0 65 3l1 -116q-23 2 -60 3h-201z" />
    <glyph glyph-name="greaterequal" unicode="&#x2265;" horiz-adv-x="416" 
d="M373 456l-330 203v-137l215 -121l-215 -132v-137l330 219v105zM310 -12q37 0 61 -3l-2 116q-11 -3 -64 -3h-190q-53 0 -65 3l-1 -116q23 2 60 3h201z" />
    <glyph glyph-name="lozenge" unicode="&#x25ca;" horiz-adv-x="572" 
d="M34 331l195 415h104l204 -415l-195 -415h-105zM399 331l-117 274l-111 -274l117 -275z" />
    <glyph glyph-name="ff" unicode="&#xfb00;" horiz-adv-x="753" 
d="M351 454q-4 -14 -3 -71v-43h-118v-340h-120v340h-72q0 32 1 57l1 52v5h70v30q0 117 55 189q57 74 157 74q42 0 56 -6l1 -123l-1 -2q-19 19 -47.5 18.5t-46 -10t-29.5 -26.5q-25 -35 -25 -97v-47h121zM685 454q-4 -14 -3 -71v-43h-118v-340h-120v340h-72q0 32 1 57l1 52v5
h70v30q0 117 55 189q57 74 157 74q42 0 56 -6l1 -123l-1 -2q-19 19 -47.5 18.5t-46 -10t-29.5 -26.5q-25 -35 -25 -97v-47h121z" />
    <glyph glyph-name="fi" unicode="&#xfb01;" horiz-adv-x="647" 
d="M351 454q-4 -14 -3 -71v-43h-118v-340h-120v340h-72q0 32 1 57l1 52v5h70v30q0 117 55 189q57 74 157 74q42 0 56 -6l1 -123l-1 -2q-19 19 -47.5 18.5t-46 -10t-29.5 -26.5q-25 -35 -25 -97v-47h121zM426 656q39 61 82 107l105 -82q-21 -26 -39 -51l-38 -53zM555 55
q0 -42 2 -55h-125v510h123v-455z" />
    <glyph glyph-name="fl" unicode="&#xfb02;" horiz-adv-x="613" 
d="M351 454q-4 -14 -3 -71v-43h-118v-340h-120v340h-72q0 32 1 57l1 52v5h70v30q0 117 55 189q57 74 157 74q42 0 56 -6l1 -123l-1 -2q-19 19 -47.5 18.5t-46 -10t-29.5 -26.5q-25 -35 -25 -97v-47h121zM555 55q0 -42 2 -55h-124v728h122v-673z" />
    <glyph glyph-name="uniFF0D" unicode="&#xff0d;" horiz-adv-x="1000" 
d="M51 432h889v-153h-889v153z" />
    <glyph glyph-name="uniFF01" unicode="&#xff01;" horiz-adv-x="1000" 
d="M413 128h154v-128h-154v128zM413 767h154l44 -63v-308l-44 -53v-110h-154v110l-44 53v308z" />
    <glyph glyph-name="uniFF1F" unicode="&#xff1f;" horiz-adv-x="1000" 
d="M413 128h154v-128h-154v128zM413 240v118h272v119h-519v135l90 81h474l87 -81v-288l-78 -84h-326z" />
    <glyph glyph-name="uniFF0A" unicode="&#xff0a;" horiz-adv-x="1000" 
d="M500 459l25 -77h81l-66 -48l25 -77l-65 47l-66 -47l25 77l-66 48h82zM500 571l-50 -154h-163l132 -96l-51 -154l132 95l131 -95l-50 154l131 96h-162zM500 787l100 -309h325l-263 -191l100 -309l-262 191l-263 -191l100 309l-262 191h324z" />
    <glyph glyph-name="uni2605" unicode="&#x2605;" horiz-adv-x="1000" 
d="M500 787l100 -309h325l-263 -191l100 -309l-262 191l-263 -191l100 309l-262 191h324z" />
    <glyph glyph-name="uni2606" unicode="&#x2606;" horiz-adv-x="1000" 
d="M500 787l100 -309h325l-263 -191l100 -309l-262 191l-263 -191l100 309l-262 191h324zM500 625l-64 -197h-207l167 -122l-64 -197l168 122l167 -122l-64 197l168 122h-207z" />
    <glyph glyph-name="uni301D" unicode="&#x301d;" horiz-adv-x="336" 
d="M184 783h128v-268h-75zM22 783h128v-268h-76z" />
    <glyph glyph-name="uni301F" unicode="&#x301f;" horiz-adv-x="336" 
d="M150 -7h-128v268h75zM312 -7h-128v268h75z" />
    <glyph glyph-name="uni56EF" unicode="&#x56ef;" horiz-adv-x="1000" 
d="M783 665l48 -60v-66h-264v-72h204v-99h-204v-96h129l-41 41l56 50l83 -83l-10 -8h47v-126h-669v126h285v96h-207v99h207v72h-285v66l48 60h573zM116 708v-615h756v615h-756zM977 789v-789h-962v789h962z" />
    <glyph glyph-name="uni65E5" unicode="&#x65e5;" horiz-adv-x="1000" 
d="M873 789v-789h-756v789h756zM725 488v180h-464v-180h464zM725 353h-464v-203h464v203z" />
    <glyph glyph-name="uni672C" unicode="&#x672c;" horiz-adv-x="1000" 
d="M33 605v82l90 49h307v53h132v-53h311l87 -49v-82h-281l293 -437h-156l-254 379v-230h142v-141h-142v-176h-132v176h-140v141h140v224l-250 -373h-156l293 437h-284z" />
    <glyph glyph-name="uni6728" unicode="&#x6728;" horiz-adv-x="1000" 
d="M33 605v82l90 49h307v53h132v-53h311l87 -49v-82h-281l293 -437h-156l-254 379v-547h-132v541l-250 -373h-156l293 437h-284z" />
    <glyph glyph-name="uni8A9E" unicode="&#x8a9e;" horiz-adv-x="1000" 
d="M970 436v-84h-441v84h76l11 73h-48v87h61l8 51h-108v83l76 50h291l74 -50v-83h-254l-8 -51h220v-160h42zM641 242v-161h216v161h-216zM540 314h417v-314h-417v314zM76 351v95h357v-95h-357zM76 477v95h357v-95h-357zM164 242v-161h186v161h-186zM63 314h387v-314h-387
v314zM500 605h-479v82l90 49h84v53h132v-53h86l87 -49v-82zM853 509h-158l-11 -73h169v73z" />
    <glyph glyph-name="uni8A00" unicode="&#x8a00;" horiz-adv-x="1000" 
d="M184 351v95h609v-95h-609zM184 477v95h609v-95h-609zM272 242v-161h438v161h-438zM171 314h639v-314h-639v314zM960 605h-927v82l90 49h307v53h132v-53h311l87 -49v-82z" />
  </font>
</defs>
</svg>
